%TF.GenerationSoftware,KiCad,Pcbnew,9.0.0*%
%TF.CreationDate,2025-04-26T19:09:02+02:00*%
%TF.ProjectId,chorus,63686f72-7573-42e6-9b69-6361645f7063,rev?*%
%TF.SameCoordinates,Original*%
%TF.FileFunction,Legend,Top*%
%TF.FilePolarity,Positive*%
%FSLAX46Y46*%
G04 Gerber Fmt 4.6, Leading zero omitted, Abs format (unit mm)*
G04 Created by KiCad (PCBNEW 9.0.0) date 2025-04-26 19:09:02*
%MOMM*%
%LPD*%
G01*
G04 APERTURE LIST*
%ADD10C,0.150000*%
%ADD11C,0.120000*%
G04 APERTURE END LIST*
D10*
X96012095Y-132047819D02*
X96012095Y-132857342D01*
X96012095Y-132857342D02*
X96059714Y-132952580D01*
X96059714Y-132952580D02*
X96107333Y-133000200D01*
X96107333Y-133000200D02*
X96202571Y-133047819D01*
X96202571Y-133047819D02*
X96393047Y-133047819D01*
X96393047Y-133047819D02*
X96488285Y-133000200D01*
X96488285Y-133000200D02*
X96535904Y-132952580D01*
X96535904Y-132952580D02*
X96583523Y-132857342D01*
X96583523Y-132857342D02*
X96583523Y-132047819D01*
X97583523Y-133047819D02*
X97012095Y-133047819D01*
X97297809Y-133047819D02*
X97297809Y-132047819D01*
X97297809Y-132047819D02*
X97202571Y-132190676D01*
X97202571Y-132190676D02*
X97107333Y-132285914D01*
X97107333Y-132285914D02*
X97012095Y-132333533D01*
X93726095Y-116548819D02*
X93726095Y-117358342D01*
X93726095Y-117358342D02*
X93773714Y-117453580D01*
X93773714Y-117453580D02*
X93821333Y-117501200D01*
X93821333Y-117501200D02*
X93916571Y-117548819D01*
X93916571Y-117548819D02*
X94107047Y-117548819D01*
X94107047Y-117548819D02*
X94202285Y-117501200D01*
X94202285Y-117501200D02*
X94249904Y-117453580D01*
X94249904Y-117453580D02*
X94297523Y-117358342D01*
X94297523Y-117358342D02*
X94297523Y-116548819D01*
X95249904Y-116548819D02*
X94773714Y-116548819D01*
X94773714Y-116548819D02*
X94726095Y-117025009D01*
X94726095Y-117025009D02*
X94773714Y-116977390D01*
X94773714Y-116977390D02*
X94868952Y-116929771D01*
X94868952Y-116929771D02*
X95107047Y-116929771D01*
X95107047Y-116929771D02*
X95202285Y-116977390D01*
X95202285Y-116977390D02*
X95249904Y-117025009D01*
X95249904Y-117025009D02*
X95297523Y-117120247D01*
X95297523Y-117120247D02*
X95297523Y-117358342D01*
X95297523Y-117358342D02*
X95249904Y-117453580D01*
X95249904Y-117453580D02*
X95202285Y-117501200D01*
X95202285Y-117501200D02*
X95107047Y-117548819D01*
X95107047Y-117548819D02*
X94868952Y-117548819D01*
X94868952Y-117548819D02*
X94773714Y-117501200D01*
X94773714Y-117501200D02*
X94726095Y-117453580D01*
X93961819Y-101870333D02*
X94676104Y-101870333D01*
X94676104Y-101870333D02*
X94818961Y-101917952D01*
X94818961Y-101917952D02*
X94914200Y-102013190D01*
X94914200Y-102013190D02*
X94961819Y-102156047D01*
X94961819Y-102156047D02*
X94961819Y-102251285D01*
X93961819Y-101489380D02*
X93961819Y-100822714D01*
X93961819Y-100822714D02*
X94961819Y-101251285D01*
X101465142Y-139043580D02*
X101417523Y-139091200D01*
X101417523Y-139091200D02*
X101274666Y-139138819D01*
X101274666Y-139138819D02*
X101179428Y-139138819D01*
X101179428Y-139138819D02*
X101036571Y-139091200D01*
X101036571Y-139091200D02*
X100941333Y-138995961D01*
X100941333Y-138995961D02*
X100893714Y-138900723D01*
X100893714Y-138900723D02*
X100846095Y-138710247D01*
X100846095Y-138710247D02*
X100846095Y-138567390D01*
X100846095Y-138567390D02*
X100893714Y-138376914D01*
X100893714Y-138376914D02*
X100941333Y-138281676D01*
X100941333Y-138281676D02*
X101036571Y-138186438D01*
X101036571Y-138186438D02*
X101179428Y-138138819D01*
X101179428Y-138138819D02*
X101274666Y-138138819D01*
X101274666Y-138138819D02*
X101417523Y-138186438D01*
X101417523Y-138186438D02*
X101465142Y-138234057D01*
X102417523Y-139138819D02*
X101846095Y-139138819D01*
X102131809Y-139138819D02*
X102131809Y-138138819D01*
X102131809Y-138138819D02*
X102036571Y-138281676D01*
X102036571Y-138281676D02*
X101941333Y-138376914D01*
X101941333Y-138376914D02*
X101846095Y-138424533D01*
X102893714Y-139138819D02*
X103084190Y-139138819D01*
X103084190Y-139138819D02*
X103179428Y-139091200D01*
X103179428Y-139091200D02*
X103227047Y-139043580D01*
X103227047Y-139043580D02*
X103322285Y-138900723D01*
X103322285Y-138900723D02*
X103369904Y-138710247D01*
X103369904Y-138710247D02*
X103369904Y-138329295D01*
X103369904Y-138329295D02*
X103322285Y-138234057D01*
X103322285Y-138234057D02*
X103274666Y-138186438D01*
X103274666Y-138186438D02*
X103179428Y-138138819D01*
X103179428Y-138138819D02*
X102988952Y-138138819D01*
X102988952Y-138138819D02*
X102893714Y-138186438D01*
X102893714Y-138186438D02*
X102846095Y-138234057D01*
X102846095Y-138234057D02*
X102798476Y-138329295D01*
X102798476Y-138329295D02*
X102798476Y-138567390D01*
X102798476Y-138567390D02*
X102846095Y-138662628D01*
X102846095Y-138662628D02*
X102893714Y-138710247D01*
X102893714Y-138710247D02*
X102988952Y-138757866D01*
X102988952Y-138757866D02*
X103179428Y-138757866D01*
X103179428Y-138757866D02*
X103274666Y-138710247D01*
X103274666Y-138710247D02*
X103322285Y-138662628D01*
X103322285Y-138662628D02*
X103369904Y-138567390D01*
X106799142Y-147699580D02*
X106751523Y-147747200D01*
X106751523Y-147747200D02*
X106608666Y-147794819D01*
X106608666Y-147794819D02*
X106513428Y-147794819D01*
X106513428Y-147794819D02*
X106370571Y-147747200D01*
X106370571Y-147747200D02*
X106275333Y-147651961D01*
X106275333Y-147651961D02*
X106227714Y-147556723D01*
X106227714Y-147556723D02*
X106180095Y-147366247D01*
X106180095Y-147366247D02*
X106180095Y-147223390D01*
X106180095Y-147223390D02*
X106227714Y-147032914D01*
X106227714Y-147032914D02*
X106275333Y-146937676D01*
X106275333Y-146937676D02*
X106370571Y-146842438D01*
X106370571Y-146842438D02*
X106513428Y-146794819D01*
X106513428Y-146794819D02*
X106608666Y-146794819D01*
X106608666Y-146794819D02*
X106751523Y-146842438D01*
X106751523Y-146842438D02*
X106799142Y-146890057D01*
X107751523Y-147794819D02*
X107180095Y-147794819D01*
X107465809Y-147794819D02*
X107465809Y-146794819D01*
X107465809Y-146794819D02*
X107370571Y-146937676D01*
X107370571Y-146937676D02*
X107275333Y-147032914D01*
X107275333Y-147032914D02*
X107180095Y-147080533D01*
X108322952Y-147223390D02*
X108227714Y-147175771D01*
X108227714Y-147175771D02*
X108180095Y-147128152D01*
X108180095Y-147128152D02*
X108132476Y-147032914D01*
X108132476Y-147032914D02*
X108132476Y-146985295D01*
X108132476Y-146985295D02*
X108180095Y-146890057D01*
X108180095Y-146890057D02*
X108227714Y-146842438D01*
X108227714Y-146842438D02*
X108322952Y-146794819D01*
X108322952Y-146794819D02*
X108513428Y-146794819D01*
X108513428Y-146794819D02*
X108608666Y-146842438D01*
X108608666Y-146842438D02*
X108656285Y-146890057D01*
X108656285Y-146890057D02*
X108703904Y-146985295D01*
X108703904Y-146985295D02*
X108703904Y-147032914D01*
X108703904Y-147032914D02*
X108656285Y-147128152D01*
X108656285Y-147128152D02*
X108608666Y-147175771D01*
X108608666Y-147175771D02*
X108513428Y-147223390D01*
X108513428Y-147223390D02*
X108322952Y-147223390D01*
X108322952Y-147223390D02*
X108227714Y-147271009D01*
X108227714Y-147271009D02*
X108180095Y-147318628D01*
X108180095Y-147318628D02*
X108132476Y-147413866D01*
X108132476Y-147413866D02*
X108132476Y-147604342D01*
X108132476Y-147604342D02*
X108180095Y-147699580D01*
X108180095Y-147699580D02*
X108227714Y-147747200D01*
X108227714Y-147747200D02*
X108322952Y-147794819D01*
X108322952Y-147794819D02*
X108513428Y-147794819D01*
X108513428Y-147794819D02*
X108608666Y-147747200D01*
X108608666Y-147747200D02*
X108656285Y-147699580D01*
X108656285Y-147699580D02*
X108703904Y-147604342D01*
X108703904Y-147604342D02*
X108703904Y-147413866D01*
X108703904Y-147413866D02*
X108656285Y-147318628D01*
X108656285Y-147318628D02*
X108608666Y-147271009D01*
X108608666Y-147271009D02*
X108513428Y-147223390D01*
X89927819Y-143081333D02*
X90642104Y-143081333D01*
X90642104Y-143081333D02*
X90784961Y-143128952D01*
X90784961Y-143128952D02*
X90880200Y-143224190D01*
X90880200Y-143224190D02*
X90927819Y-143367047D01*
X90927819Y-143367047D02*
X90927819Y-143462285D01*
X90927819Y-142081333D02*
X90927819Y-142652761D01*
X90927819Y-142367047D02*
X89927819Y-142367047D01*
X89927819Y-142367047D02*
X90070676Y-142462285D01*
X90070676Y-142462285D02*
X90165914Y-142557523D01*
X90165914Y-142557523D02*
X90213533Y-142652761D01*
X98671142Y-143615580D02*
X98623523Y-143663200D01*
X98623523Y-143663200D02*
X98480666Y-143710819D01*
X98480666Y-143710819D02*
X98385428Y-143710819D01*
X98385428Y-143710819D02*
X98242571Y-143663200D01*
X98242571Y-143663200D02*
X98147333Y-143567961D01*
X98147333Y-143567961D02*
X98099714Y-143472723D01*
X98099714Y-143472723D02*
X98052095Y-143282247D01*
X98052095Y-143282247D02*
X98052095Y-143139390D01*
X98052095Y-143139390D02*
X98099714Y-142948914D01*
X98099714Y-142948914D02*
X98147333Y-142853676D01*
X98147333Y-142853676D02*
X98242571Y-142758438D01*
X98242571Y-142758438D02*
X98385428Y-142710819D01*
X98385428Y-142710819D02*
X98480666Y-142710819D01*
X98480666Y-142710819D02*
X98623523Y-142758438D01*
X98623523Y-142758438D02*
X98671142Y-142806057D01*
X99623523Y-143710819D02*
X99052095Y-143710819D01*
X99337809Y-143710819D02*
X99337809Y-142710819D01*
X99337809Y-142710819D02*
X99242571Y-142853676D01*
X99242571Y-142853676D02*
X99147333Y-142948914D01*
X99147333Y-142948914D02*
X99052095Y-142996533D01*
X99956857Y-142710819D02*
X100623523Y-142710819D01*
X100623523Y-142710819D02*
X100194952Y-143710819D01*
X90543142Y-147794819D02*
X90209809Y-147318628D01*
X89971714Y-147794819D02*
X89971714Y-146794819D01*
X89971714Y-146794819D02*
X90352666Y-146794819D01*
X90352666Y-146794819D02*
X90447904Y-146842438D01*
X90447904Y-146842438D02*
X90495523Y-146890057D01*
X90495523Y-146890057D02*
X90543142Y-146985295D01*
X90543142Y-146985295D02*
X90543142Y-147128152D01*
X90543142Y-147128152D02*
X90495523Y-147223390D01*
X90495523Y-147223390D02*
X90447904Y-147271009D01*
X90447904Y-147271009D02*
X90352666Y-147318628D01*
X90352666Y-147318628D02*
X89971714Y-147318628D01*
X90876476Y-146794819D02*
X91495523Y-146794819D01*
X91495523Y-146794819D02*
X91162190Y-147175771D01*
X91162190Y-147175771D02*
X91305047Y-147175771D01*
X91305047Y-147175771D02*
X91400285Y-147223390D01*
X91400285Y-147223390D02*
X91447904Y-147271009D01*
X91447904Y-147271009D02*
X91495523Y-147366247D01*
X91495523Y-147366247D02*
X91495523Y-147604342D01*
X91495523Y-147604342D02*
X91447904Y-147699580D01*
X91447904Y-147699580D02*
X91400285Y-147747200D01*
X91400285Y-147747200D02*
X91305047Y-147794819D01*
X91305047Y-147794819D02*
X91019333Y-147794819D01*
X91019333Y-147794819D02*
X90924095Y-147747200D01*
X90924095Y-147747200D02*
X90876476Y-147699580D01*
X91828857Y-146794819D02*
X92447904Y-146794819D01*
X92447904Y-146794819D02*
X92114571Y-147175771D01*
X92114571Y-147175771D02*
X92257428Y-147175771D01*
X92257428Y-147175771D02*
X92352666Y-147223390D01*
X92352666Y-147223390D02*
X92400285Y-147271009D01*
X92400285Y-147271009D02*
X92447904Y-147366247D01*
X92447904Y-147366247D02*
X92447904Y-147604342D01*
X92447904Y-147604342D02*
X92400285Y-147699580D01*
X92400285Y-147699580D02*
X92352666Y-147747200D01*
X92352666Y-147747200D02*
X92257428Y-147794819D01*
X92257428Y-147794819D02*
X91971714Y-147794819D01*
X91971714Y-147794819D02*
X91876476Y-147747200D01*
X91876476Y-147747200D02*
X91828857Y-147699580D01*
X109085142Y-141952819D02*
X108751809Y-141476628D01*
X108513714Y-141952819D02*
X108513714Y-140952819D01*
X108513714Y-140952819D02*
X108894666Y-140952819D01*
X108894666Y-140952819D02*
X108989904Y-141000438D01*
X108989904Y-141000438D02*
X109037523Y-141048057D01*
X109037523Y-141048057D02*
X109085142Y-141143295D01*
X109085142Y-141143295D02*
X109085142Y-141286152D01*
X109085142Y-141286152D02*
X109037523Y-141381390D01*
X109037523Y-141381390D02*
X108989904Y-141429009D01*
X108989904Y-141429009D02*
X108894666Y-141476628D01*
X108894666Y-141476628D02*
X108513714Y-141476628D01*
X109418476Y-140952819D02*
X110037523Y-140952819D01*
X110037523Y-140952819D02*
X109704190Y-141333771D01*
X109704190Y-141333771D02*
X109847047Y-141333771D01*
X109847047Y-141333771D02*
X109942285Y-141381390D01*
X109942285Y-141381390D02*
X109989904Y-141429009D01*
X109989904Y-141429009D02*
X110037523Y-141524247D01*
X110037523Y-141524247D02*
X110037523Y-141762342D01*
X110037523Y-141762342D02*
X109989904Y-141857580D01*
X109989904Y-141857580D02*
X109942285Y-141905200D01*
X109942285Y-141905200D02*
X109847047Y-141952819D01*
X109847047Y-141952819D02*
X109561333Y-141952819D01*
X109561333Y-141952819D02*
X109466095Y-141905200D01*
X109466095Y-141905200D02*
X109418476Y-141857580D01*
X110942285Y-140952819D02*
X110466095Y-140952819D01*
X110466095Y-140952819D02*
X110418476Y-141429009D01*
X110418476Y-141429009D02*
X110466095Y-141381390D01*
X110466095Y-141381390D02*
X110561333Y-141333771D01*
X110561333Y-141333771D02*
X110799428Y-141333771D01*
X110799428Y-141333771D02*
X110894666Y-141381390D01*
X110894666Y-141381390D02*
X110942285Y-141429009D01*
X110942285Y-141429009D02*
X110989904Y-141524247D01*
X110989904Y-141524247D02*
X110989904Y-141762342D01*
X110989904Y-141762342D02*
X110942285Y-141857580D01*
X110942285Y-141857580D02*
X110894666Y-141905200D01*
X110894666Y-141905200D02*
X110799428Y-141952819D01*
X110799428Y-141952819D02*
X110561333Y-141952819D01*
X110561333Y-141952819D02*
X110466095Y-141905200D01*
X110466095Y-141905200D02*
X110418476Y-141857580D01*
X109085142Y-145254819D02*
X108751809Y-144778628D01*
X108513714Y-145254819D02*
X108513714Y-144254819D01*
X108513714Y-144254819D02*
X108894666Y-144254819D01*
X108894666Y-144254819D02*
X108989904Y-144302438D01*
X108989904Y-144302438D02*
X109037523Y-144350057D01*
X109037523Y-144350057D02*
X109085142Y-144445295D01*
X109085142Y-144445295D02*
X109085142Y-144588152D01*
X109085142Y-144588152D02*
X109037523Y-144683390D01*
X109037523Y-144683390D02*
X108989904Y-144731009D01*
X108989904Y-144731009D02*
X108894666Y-144778628D01*
X108894666Y-144778628D02*
X108513714Y-144778628D01*
X109418476Y-144254819D02*
X110037523Y-144254819D01*
X110037523Y-144254819D02*
X109704190Y-144635771D01*
X109704190Y-144635771D02*
X109847047Y-144635771D01*
X109847047Y-144635771D02*
X109942285Y-144683390D01*
X109942285Y-144683390D02*
X109989904Y-144731009D01*
X109989904Y-144731009D02*
X110037523Y-144826247D01*
X110037523Y-144826247D02*
X110037523Y-145064342D01*
X110037523Y-145064342D02*
X109989904Y-145159580D01*
X109989904Y-145159580D02*
X109942285Y-145207200D01*
X109942285Y-145207200D02*
X109847047Y-145254819D01*
X109847047Y-145254819D02*
X109561333Y-145254819D01*
X109561333Y-145254819D02*
X109466095Y-145207200D01*
X109466095Y-145207200D02*
X109418476Y-145159580D01*
X110894666Y-144588152D02*
X110894666Y-145254819D01*
X110656571Y-144207200D02*
X110418476Y-144921485D01*
X110418476Y-144921485D02*
X111037523Y-144921485D01*
X108404819Y-106623857D02*
X107928628Y-106957190D01*
X108404819Y-107195285D02*
X107404819Y-107195285D01*
X107404819Y-107195285D02*
X107404819Y-106814333D01*
X107404819Y-106814333D02*
X107452438Y-106719095D01*
X107452438Y-106719095D02*
X107500057Y-106671476D01*
X107500057Y-106671476D02*
X107595295Y-106623857D01*
X107595295Y-106623857D02*
X107738152Y-106623857D01*
X107738152Y-106623857D02*
X107833390Y-106671476D01*
X107833390Y-106671476D02*
X107881009Y-106719095D01*
X107881009Y-106719095D02*
X107928628Y-106814333D01*
X107928628Y-106814333D02*
X107928628Y-107195285D01*
X107404819Y-106290523D02*
X107404819Y-105671476D01*
X107404819Y-105671476D02*
X107785771Y-106004809D01*
X107785771Y-106004809D02*
X107785771Y-105861952D01*
X107785771Y-105861952D02*
X107833390Y-105766714D01*
X107833390Y-105766714D02*
X107881009Y-105719095D01*
X107881009Y-105719095D02*
X107976247Y-105671476D01*
X107976247Y-105671476D02*
X108214342Y-105671476D01*
X108214342Y-105671476D02*
X108309580Y-105719095D01*
X108309580Y-105719095D02*
X108357200Y-105766714D01*
X108357200Y-105766714D02*
X108404819Y-105861952D01*
X108404819Y-105861952D02*
X108404819Y-106147666D01*
X108404819Y-106147666D02*
X108357200Y-106242904D01*
X108357200Y-106242904D02*
X108309580Y-106290523D01*
X107500057Y-105290523D02*
X107452438Y-105242904D01*
X107452438Y-105242904D02*
X107404819Y-105147666D01*
X107404819Y-105147666D02*
X107404819Y-104909571D01*
X107404819Y-104909571D02*
X107452438Y-104814333D01*
X107452438Y-104814333D02*
X107500057Y-104766714D01*
X107500057Y-104766714D02*
X107595295Y-104719095D01*
X107595295Y-104719095D02*
X107690533Y-104719095D01*
X107690533Y-104719095D02*
X107833390Y-104766714D01*
X107833390Y-104766714D02*
X108404819Y-105338142D01*
X108404819Y-105338142D02*
X108404819Y-104719095D01*
X94528819Y-124911857D02*
X94052628Y-125245190D01*
X94528819Y-125483285D02*
X93528819Y-125483285D01*
X93528819Y-125483285D02*
X93528819Y-125102333D01*
X93528819Y-125102333D02*
X93576438Y-125007095D01*
X93576438Y-125007095D02*
X93624057Y-124959476D01*
X93624057Y-124959476D02*
X93719295Y-124911857D01*
X93719295Y-124911857D02*
X93862152Y-124911857D01*
X93862152Y-124911857D02*
X93957390Y-124959476D01*
X93957390Y-124959476D02*
X94005009Y-125007095D01*
X94005009Y-125007095D02*
X94052628Y-125102333D01*
X94052628Y-125102333D02*
X94052628Y-125483285D01*
X93528819Y-124578523D02*
X93528819Y-123959476D01*
X93528819Y-123959476D02*
X93909771Y-124292809D01*
X93909771Y-124292809D02*
X93909771Y-124149952D01*
X93909771Y-124149952D02*
X93957390Y-124054714D01*
X93957390Y-124054714D02*
X94005009Y-124007095D01*
X94005009Y-124007095D02*
X94100247Y-123959476D01*
X94100247Y-123959476D02*
X94338342Y-123959476D01*
X94338342Y-123959476D02*
X94433580Y-124007095D01*
X94433580Y-124007095D02*
X94481200Y-124054714D01*
X94481200Y-124054714D02*
X94528819Y-124149952D01*
X94528819Y-124149952D02*
X94528819Y-124435666D01*
X94528819Y-124435666D02*
X94481200Y-124530904D01*
X94481200Y-124530904D02*
X94433580Y-124578523D01*
X93528819Y-123102333D02*
X93528819Y-123292809D01*
X93528819Y-123292809D02*
X93576438Y-123388047D01*
X93576438Y-123388047D02*
X93624057Y-123435666D01*
X93624057Y-123435666D02*
X93766914Y-123530904D01*
X93766914Y-123530904D02*
X93957390Y-123578523D01*
X93957390Y-123578523D02*
X94338342Y-123578523D01*
X94338342Y-123578523D02*
X94433580Y-123530904D01*
X94433580Y-123530904D02*
X94481200Y-123483285D01*
X94481200Y-123483285D02*
X94528819Y-123388047D01*
X94528819Y-123388047D02*
X94528819Y-123197571D01*
X94528819Y-123197571D02*
X94481200Y-123102333D01*
X94481200Y-123102333D02*
X94433580Y-123054714D01*
X94433580Y-123054714D02*
X94338342Y-123007095D01*
X94338342Y-123007095D02*
X94100247Y-123007095D01*
X94100247Y-123007095D02*
X94005009Y-123054714D01*
X94005009Y-123054714D02*
X93957390Y-123102333D01*
X93957390Y-123102333D02*
X93909771Y-123197571D01*
X93909771Y-123197571D02*
X93909771Y-123388047D01*
X93909771Y-123388047D02*
X93957390Y-123483285D01*
X93957390Y-123483285D02*
X94005009Y-123530904D01*
X94005009Y-123530904D02*
X94100247Y-123578523D01*
X102260333Y-115453819D02*
X101927000Y-114977628D01*
X101688905Y-115453819D02*
X101688905Y-114453819D01*
X101688905Y-114453819D02*
X102069857Y-114453819D01*
X102069857Y-114453819D02*
X102165095Y-114501438D01*
X102165095Y-114501438D02*
X102212714Y-114549057D01*
X102212714Y-114549057D02*
X102260333Y-114644295D01*
X102260333Y-114644295D02*
X102260333Y-114787152D01*
X102260333Y-114787152D02*
X102212714Y-114882390D01*
X102212714Y-114882390D02*
X102165095Y-114930009D01*
X102165095Y-114930009D02*
X102069857Y-114977628D01*
X102069857Y-114977628D02*
X101688905Y-114977628D01*
X102641286Y-114549057D02*
X102688905Y-114501438D01*
X102688905Y-114501438D02*
X102784143Y-114453819D01*
X102784143Y-114453819D02*
X103022238Y-114453819D01*
X103022238Y-114453819D02*
X103117476Y-114501438D01*
X103117476Y-114501438D02*
X103165095Y-114549057D01*
X103165095Y-114549057D02*
X103212714Y-114644295D01*
X103212714Y-114644295D02*
X103212714Y-114739533D01*
X103212714Y-114739533D02*
X103165095Y-114882390D01*
X103165095Y-114882390D02*
X102593667Y-115453819D01*
X102593667Y-115453819D02*
X103212714Y-115453819D01*
X94418333Y-121485819D02*
X94085000Y-121009628D01*
X93846905Y-121485819D02*
X93846905Y-120485819D01*
X93846905Y-120485819D02*
X94227857Y-120485819D01*
X94227857Y-120485819D02*
X94323095Y-120533438D01*
X94323095Y-120533438D02*
X94370714Y-120581057D01*
X94370714Y-120581057D02*
X94418333Y-120676295D01*
X94418333Y-120676295D02*
X94418333Y-120819152D01*
X94418333Y-120819152D02*
X94370714Y-120914390D01*
X94370714Y-120914390D02*
X94323095Y-120962009D01*
X94323095Y-120962009D02*
X94227857Y-121009628D01*
X94227857Y-121009628D02*
X93846905Y-121009628D01*
X95275476Y-120819152D02*
X95275476Y-121485819D01*
X95037381Y-120438200D02*
X94799286Y-121152485D01*
X94799286Y-121152485D02*
X95418333Y-121152485D01*
X91012261Y-127169057D02*
X90917023Y-127121438D01*
X90917023Y-127121438D02*
X90821785Y-127026200D01*
X90821785Y-127026200D02*
X90678928Y-126883342D01*
X90678928Y-126883342D02*
X90583690Y-126835723D01*
X90583690Y-126835723D02*
X90488452Y-126835723D01*
X90536071Y-127073819D02*
X90440833Y-127026200D01*
X90440833Y-127026200D02*
X90345595Y-126930961D01*
X90345595Y-126930961D02*
X90297976Y-126740485D01*
X90297976Y-126740485D02*
X90297976Y-126407152D01*
X90297976Y-126407152D02*
X90345595Y-126216676D01*
X90345595Y-126216676D02*
X90440833Y-126121438D01*
X90440833Y-126121438D02*
X90536071Y-126073819D01*
X90536071Y-126073819D02*
X90726547Y-126073819D01*
X90726547Y-126073819D02*
X90821785Y-126121438D01*
X90821785Y-126121438D02*
X90917023Y-126216676D01*
X90917023Y-126216676D02*
X90964642Y-126407152D01*
X90964642Y-126407152D02*
X90964642Y-126740485D01*
X90964642Y-126740485D02*
X90917023Y-126930961D01*
X90917023Y-126930961D02*
X90821785Y-127026200D01*
X90821785Y-127026200D02*
X90726547Y-127073819D01*
X90726547Y-127073819D02*
X90536071Y-127073819D01*
X91297976Y-126073819D02*
X91917023Y-126073819D01*
X91917023Y-126073819D02*
X91583690Y-126454771D01*
X91583690Y-126454771D02*
X91726547Y-126454771D01*
X91726547Y-126454771D02*
X91821785Y-126502390D01*
X91821785Y-126502390D02*
X91869404Y-126550009D01*
X91869404Y-126550009D02*
X91917023Y-126645247D01*
X91917023Y-126645247D02*
X91917023Y-126883342D01*
X91917023Y-126883342D02*
X91869404Y-126978580D01*
X91869404Y-126978580D02*
X91821785Y-127026200D01*
X91821785Y-127026200D02*
X91726547Y-127073819D01*
X91726547Y-127073819D02*
X91440833Y-127073819D01*
X91440833Y-127073819D02*
X91345595Y-127026200D01*
X91345595Y-127026200D02*
X91297976Y-126978580D01*
X93472095Y-107975819D02*
X93472095Y-108785342D01*
X93472095Y-108785342D02*
X93519714Y-108880580D01*
X93519714Y-108880580D02*
X93567333Y-108928200D01*
X93567333Y-108928200D02*
X93662571Y-108975819D01*
X93662571Y-108975819D02*
X93853047Y-108975819D01*
X93853047Y-108975819D02*
X93948285Y-108928200D01*
X93948285Y-108928200D02*
X93995904Y-108880580D01*
X93995904Y-108880580D02*
X94043523Y-108785342D01*
X94043523Y-108785342D02*
X94043523Y-107975819D01*
X94424476Y-107975819D02*
X95043523Y-107975819D01*
X95043523Y-107975819D02*
X94710190Y-108356771D01*
X94710190Y-108356771D02*
X94853047Y-108356771D01*
X94853047Y-108356771D02*
X94948285Y-108404390D01*
X94948285Y-108404390D02*
X94995904Y-108452009D01*
X94995904Y-108452009D02*
X95043523Y-108547247D01*
X95043523Y-108547247D02*
X95043523Y-108785342D01*
X95043523Y-108785342D02*
X94995904Y-108880580D01*
X94995904Y-108880580D02*
X94948285Y-108928200D01*
X94948285Y-108928200D02*
X94853047Y-108975819D01*
X94853047Y-108975819D02*
X94567333Y-108975819D01*
X94567333Y-108975819D02*
X94472095Y-108928200D01*
X94472095Y-108928200D02*
X94424476Y-108880580D01*
X98267761Y-127295057D02*
X98172523Y-127247438D01*
X98172523Y-127247438D02*
X98077285Y-127152200D01*
X98077285Y-127152200D02*
X97934428Y-127009342D01*
X97934428Y-127009342D02*
X97839190Y-126961723D01*
X97839190Y-126961723D02*
X97743952Y-126961723D01*
X97791571Y-127199819D02*
X97696333Y-127152200D01*
X97696333Y-127152200D02*
X97601095Y-127056961D01*
X97601095Y-127056961D02*
X97553476Y-126866485D01*
X97553476Y-126866485D02*
X97553476Y-126533152D01*
X97553476Y-126533152D02*
X97601095Y-126342676D01*
X97601095Y-126342676D02*
X97696333Y-126247438D01*
X97696333Y-126247438D02*
X97791571Y-126199819D01*
X97791571Y-126199819D02*
X97982047Y-126199819D01*
X97982047Y-126199819D02*
X98077285Y-126247438D01*
X98077285Y-126247438D02*
X98172523Y-126342676D01*
X98172523Y-126342676D02*
X98220142Y-126533152D01*
X98220142Y-126533152D02*
X98220142Y-126866485D01*
X98220142Y-126866485D02*
X98172523Y-127056961D01*
X98172523Y-127056961D02*
X98077285Y-127152200D01*
X98077285Y-127152200D02*
X97982047Y-127199819D01*
X97982047Y-127199819D02*
X97791571Y-127199819D01*
X99077285Y-126533152D02*
X99077285Y-127199819D01*
X98839190Y-126152200D02*
X98601095Y-126866485D01*
X98601095Y-126866485D02*
X99220142Y-126866485D01*
X103926580Y-124593857D02*
X103974200Y-124641476D01*
X103974200Y-124641476D02*
X104021819Y-124784333D01*
X104021819Y-124784333D02*
X104021819Y-124879571D01*
X104021819Y-124879571D02*
X103974200Y-125022428D01*
X103974200Y-125022428D02*
X103878961Y-125117666D01*
X103878961Y-125117666D02*
X103783723Y-125165285D01*
X103783723Y-125165285D02*
X103593247Y-125212904D01*
X103593247Y-125212904D02*
X103450390Y-125212904D01*
X103450390Y-125212904D02*
X103259914Y-125165285D01*
X103259914Y-125165285D02*
X103164676Y-125117666D01*
X103164676Y-125117666D02*
X103069438Y-125022428D01*
X103069438Y-125022428D02*
X103021819Y-124879571D01*
X103021819Y-124879571D02*
X103021819Y-124784333D01*
X103021819Y-124784333D02*
X103069438Y-124641476D01*
X103069438Y-124641476D02*
X103117057Y-124593857D01*
X103117057Y-124212904D02*
X103069438Y-124165285D01*
X103069438Y-124165285D02*
X103021819Y-124070047D01*
X103021819Y-124070047D02*
X103021819Y-123831952D01*
X103021819Y-123831952D02*
X103069438Y-123736714D01*
X103069438Y-123736714D02*
X103117057Y-123689095D01*
X103117057Y-123689095D02*
X103212295Y-123641476D01*
X103212295Y-123641476D02*
X103307533Y-123641476D01*
X103307533Y-123641476D02*
X103450390Y-123689095D01*
X103450390Y-123689095D02*
X104021819Y-124260523D01*
X104021819Y-124260523D02*
X104021819Y-123641476D01*
X103117057Y-123260523D02*
X103069438Y-123212904D01*
X103069438Y-123212904D02*
X103021819Y-123117666D01*
X103021819Y-123117666D02*
X103021819Y-122879571D01*
X103021819Y-122879571D02*
X103069438Y-122784333D01*
X103069438Y-122784333D02*
X103117057Y-122736714D01*
X103117057Y-122736714D02*
X103212295Y-122689095D01*
X103212295Y-122689095D02*
X103307533Y-122689095D01*
X103307533Y-122689095D02*
X103450390Y-122736714D01*
X103450390Y-122736714D02*
X104021819Y-123308142D01*
X104021819Y-123308142D02*
X104021819Y-122689095D01*
X118483142Y-127931819D02*
X118149809Y-127455628D01*
X117911714Y-127931819D02*
X117911714Y-126931819D01*
X117911714Y-126931819D02*
X118292666Y-126931819D01*
X118292666Y-126931819D02*
X118387904Y-126979438D01*
X118387904Y-126979438D02*
X118435523Y-127027057D01*
X118435523Y-127027057D02*
X118483142Y-127122295D01*
X118483142Y-127122295D02*
X118483142Y-127265152D01*
X118483142Y-127265152D02*
X118435523Y-127360390D01*
X118435523Y-127360390D02*
X118387904Y-127408009D01*
X118387904Y-127408009D02*
X118292666Y-127455628D01*
X118292666Y-127455628D02*
X117911714Y-127455628D01*
X118864095Y-127027057D02*
X118911714Y-126979438D01*
X118911714Y-126979438D02*
X119006952Y-126931819D01*
X119006952Y-126931819D02*
X119245047Y-126931819D01*
X119245047Y-126931819D02*
X119340285Y-126979438D01*
X119340285Y-126979438D02*
X119387904Y-127027057D01*
X119387904Y-127027057D02*
X119435523Y-127122295D01*
X119435523Y-127122295D02*
X119435523Y-127217533D01*
X119435523Y-127217533D02*
X119387904Y-127360390D01*
X119387904Y-127360390D02*
X118816476Y-127931819D01*
X118816476Y-127931819D02*
X119435523Y-127931819D01*
X119768857Y-126931819D02*
X120387904Y-126931819D01*
X120387904Y-126931819D02*
X120054571Y-127312771D01*
X120054571Y-127312771D02*
X120197428Y-127312771D01*
X120197428Y-127312771D02*
X120292666Y-127360390D01*
X120292666Y-127360390D02*
X120340285Y-127408009D01*
X120340285Y-127408009D02*
X120387904Y-127503247D01*
X120387904Y-127503247D02*
X120387904Y-127741342D01*
X120387904Y-127741342D02*
X120340285Y-127836580D01*
X120340285Y-127836580D02*
X120292666Y-127884200D01*
X120292666Y-127884200D02*
X120197428Y-127931819D01*
X120197428Y-127931819D02*
X119911714Y-127931819D01*
X119911714Y-127931819D02*
X119816476Y-127884200D01*
X119816476Y-127884200D02*
X119768857Y-127836580D01*
X122039142Y-126755819D02*
X121705809Y-126279628D01*
X121467714Y-126755819D02*
X121467714Y-125755819D01*
X121467714Y-125755819D02*
X121848666Y-125755819D01*
X121848666Y-125755819D02*
X121943904Y-125803438D01*
X121943904Y-125803438D02*
X121991523Y-125851057D01*
X121991523Y-125851057D02*
X122039142Y-125946295D01*
X122039142Y-125946295D02*
X122039142Y-126089152D01*
X122039142Y-126089152D02*
X121991523Y-126184390D01*
X121991523Y-126184390D02*
X121943904Y-126232009D01*
X121943904Y-126232009D02*
X121848666Y-126279628D01*
X121848666Y-126279628D02*
X121467714Y-126279628D01*
X122420095Y-125851057D02*
X122467714Y-125803438D01*
X122467714Y-125803438D02*
X122562952Y-125755819D01*
X122562952Y-125755819D02*
X122801047Y-125755819D01*
X122801047Y-125755819D02*
X122896285Y-125803438D01*
X122896285Y-125803438D02*
X122943904Y-125851057D01*
X122943904Y-125851057D02*
X122991523Y-125946295D01*
X122991523Y-125946295D02*
X122991523Y-126041533D01*
X122991523Y-126041533D02*
X122943904Y-126184390D01*
X122943904Y-126184390D02*
X122372476Y-126755819D01*
X122372476Y-126755819D02*
X122991523Y-126755819D01*
X123372476Y-125851057D02*
X123420095Y-125803438D01*
X123420095Y-125803438D02*
X123515333Y-125755819D01*
X123515333Y-125755819D02*
X123753428Y-125755819D01*
X123753428Y-125755819D02*
X123848666Y-125803438D01*
X123848666Y-125803438D02*
X123896285Y-125851057D01*
X123896285Y-125851057D02*
X123943904Y-125946295D01*
X123943904Y-125946295D02*
X123943904Y-126041533D01*
X123943904Y-126041533D02*
X123896285Y-126184390D01*
X123896285Y-126184390D02*
X123324857Y-126755819D01*
X123324857Y-126755819D02*
X123943904Y-126755819D01*
X124311580Y-115228666D02*
X124359200Y-115276285D01*
X124359200Y-115276285D02*
X124406819Y-115419142D01*
X124406819Y-115419142D02*
X124406819Y-115514380D01*
X124406819Y-115514380D02*
X124359200Y-115657237D01*
X124359200Y-115657237D02*
X124263961Y-115752475D01*
X124263961Y-115752475D02*
X124168723Y-115800094D01*
X124168723Y-115800094D02*
X123978247Y-115847713D01*
X123978247Y-115847713D02*
X123835390Y-115847713D01*
X123835390Y-115847713D02*
X123644914Y-115800094D01*
X123644914Y-115800094D02*
X123549676Y-115752475D01*
X123549676Y-115752475D02*
X123454438Y-115657237D01*
X123454438Y-115657237D02*
X123406819Y-115514380D01*
X123406819Y-115514380D02*
X123406819Y-115419142D01*
X123406819Y-115419142D02*
X123454438Y-115276285D01*
X123454438Y-115276285D02*
X123502057Y-115228666D01*
X123406819Y-114895332D02*
X123406819Y-114228666D01*
X123406819Y-114228666D02*
X124406819Y-114657237D01*
X126150761Y-119930819D02*
X125817428Y-119454628D01*
X125579333Y-119930819D02*
X125579333Y-118930819D01*
X125579333Y-118930819D02*
X125960285Y-118930819D01*
X125960285Y-118930819D02*
X126055523Y-118978438D01*
X126055523Y-118978438D02*
X126103142Y-119026057D01*
X126103142Y-119026057D02*
X126150761Y-119121295D01*
X126150761Y-119121295D02*
X126150761Y-119264152D01*
X126150761Y-119264152D02*
X126103142Y-119359390D01*
X126103142Y-119359390D02*
X126055523Y-119407009D01*
X126055523Y-119407009D02*
X125960285Y-119454628D01*
X125960285Y-119454628D02*
X125579333Y-119454628D01*
X126436476Y-118930819D02*
X126769809Y-119930819D01*
X126769809Y-119930819D02*
X127103142Y-118930819D01*
X127341238Y-118930819D02*
X127960285Y-118930819D01*
X127960285Y-118930819D02*
X127626952Y-119311771D01*
X127626952Y-119311771D02*
X127769809Y-119311771D01*
X127769809Y-119311771D02*
X127865047Y-119359390D01*
X127865047Y-119359390D02*
X127912666Y-119407009D01*
X127912666Y-119407009D02*
X127960285Y-119502247D01*
X127960285Y-119502247D02*
X127960285Y-119740342D01*
X127960285Y-119740342D02*
X127912666Y-119835580D01*
X127912666Y-119835580D02*
X127865047Y-119883200D01*
X127865047Y-119883200D02*
X127769809Y-119930819D01*
X127769809Y-119930819D02*
X127484095Y-119930819D01*
X127484095Y-119930819D02*
X127388857Y-119883200D01*
X127388857Y-119883200D02*
X127341238Y-119835580D01*
X101146142Y-121611819D02*
X100812809Y-121135628D01*
X100574714Y-121611819D02*
X100574714Y-120611819D01*
X100574714Y-120611819D02*
X100955666Y-120611819D01*
X100955666Y-120611819D02*
X101050904Y-120659438D01*
X101050904Y-120659438D02*
X101098523Y-120707057D01*
X101098523Y-120707057D02*
X101146142Y-120802295D01*
X101146142Y-120802295D02*
X101146142Y-120945152D01*
X101146142Y-120945152D02*
X101098523Y-121040390D01*
X101098523Y-121040390D02*
X101050904Y-121088009D01*
X101050904Y-121088009D02*
X100955666Y-121135628D01*
X100955666Y-121135628D02*
X100574714Y-121135628D01*
X102098523Y-121611819D02*
X101527095Y-121611819D01*
X101812809Y-121611819D02*
X101812809Y-120611819D01*
X101812809Y-120611819D02*
X101717571Y-120754676D01*
X101717571Y-120754676D02*
X101622333Y-120849914D01*
X101622333Y-120849914D02*
X101527095Y-120897533D01*
X102955666Y-120611819D02*
X102765190Y-120611819D01*
X102765190Y-120611819D02*
X102669952Y-120659438D01*
X102669952Y-120659438D02*
X102622333Y-120707057D01*
X102622333Y-120707057D02*
X102527095Y-120849914D01*
X102527095Y-120849914D02*
X102479476Y-121040390D01*
X102479476Y-121040390D02*
X102479476Y-121421342D01*
X102479476Y-121421342D02*
X102527095Y-121516580D01*
X102527095Y-121516580D02*
X102574714Y-121564200D01*
X102574714Y-121564200D02*
X102669952Y-121611819D01*
X102669952Y-121611819D02*
X102860428Y-121611819D01*
X102860428Y-121611819D02*
X102955666Y-121564200D01*
X102955666Y-121564200D02*
X103003285Y-121516580D01*
X103003285Y-121516580D02*
X103050904Y-121421342D01*
X103050904Y-121421342D02*
X103050904Y-121183247D01*
X103050904Y-121183247D02*
X103003285Y-121088009D01*
X103003285Y-121088009D02*
X102955666Y-121040390D01*
X102955666Y-121040390D02*
X102860428Y-120992771D01*
X102860428Y-120992771D02*
X102669952Y-120992771D01*
X102669952Y-120992771D02*
X102574714Y-121040390D01*
X102574714Y-121040390D02*
X102527095Y-121088009D01*
X102527095Y-121088009D02*
X102479476Y-121183247D01*
X100957142Y-109420819D02*
X100623809Y-108944628D01*
X100385714Y-109420819D02*
X100385714Y-108420819D01*
X100385714Y-108420819D02*
X100766666Y-108420819D01*
X100766666Y-108420819D02*
X100861904Y-108468438D01*
X100861904Y-108468438D02*
X100909523Y-108516057D01*
X100909523Y-108516057D02*
X100957142Y-108611295D01*
X100957142Y-108611295D02*
X100957142Y-108754152D01*
X100957142Y-108754152D02*
X100909523Y-108849390D01*
X100909523Y-108849390D02*
X100861904Y-108897009D01*
X100861904Y-108897009D02*
X100766666Y-108944628D01*
X100766666Y-108944628D02*
X100385714Y-108944628D01*
X101909523Y-109420819D02*
X101338095Y-109420819D01*
X101623809Y-109420819D02*
X101623809Y-108420819D01*
X101623809Y-108420819D02*
X101528571Y-108563676D01*
X101528571Y-108563676D02*
X101433333Y-108658914D01*
X101433333Y-108658914D02*
X101338095Y-108706533D01*
X102242857Y-108420819D02*
X102861904Y-108420819D01*
X102861904Y-108420819D02*
X102528571Y-108801771D01*
X102528571Y-108801771D02*
X102671428Y-108801771D01*
X102671428Y-108801771D02*
X102766666Y-108849390D01*
X102766666Y-108849390D02*
X102814285Y-108897009D01*
X102814285Y-108897009D02*
X102861904Y-108992247D01*
X102861904Y-108992247D02*
X102861904Y-109230342D01*
X102861904Y-109230342D02*
X102814285Y-109325580D01*
X102814285Y-109325580D02*
X102766666Y-109373200D01*
X102766666Y-109373200D02*
X102671428Y-109420819D01*
X102671428Y-109420819D02*
X102385714Y-109420819D01*
X102385714Y-109420819D02*
X102290476Y-109373200D01*
X102290476Y-109373200D02*
X102242857Y-109325580D01*
X88083580Y-115990666D02*
X88131200Y-116038285D01*
X88131200Y-116038285D02*
X88178819Y-116181142D01*
X88178819Y-116181142D02*
X88178819Y-116276380D01*
X88178819Y-116276380D02*
X88131200Y-116419237D01*
X88131200Y-116419237D02*
X88035961Y-116514475D01*
X88035961Y-116514475D02*
X87940723Y-116562094D01*
X87940723Y-116562094D02*
X87750247Y-116609713D01*
X87750247Y-116609713D02*
X87607390Y-116609713D01*
X87607390Y-116609713D02*
X87416914Y-116562094D01*
X87416914Y-116562094D02*
X87321676Y-116514475D01*
X87321676Y-116514475D02*
X87226438Y-116419237D01*
X87226438Y-116419237D02*
X87178819Y-116276380D01*
X87178819Y-116276380D02*
X87178819Y-116181142D01*
X87178819Y-116181142D02*
X87226438Y-116038285D01*
X87226438Y-116038285D02*
X87274057Y-115990666D01*
X88178819Y-115038285D02*
X88178819Y-115609713D01*
X88178819Y-115323999D02*
X87178819Y-115323999D01*
X87178819Y-115323999D02*
X87321676Y-115419237D01*
X87321676Y-115419237D02*
X87416914Y-115514475D01*
X87416914Y-115514475D02*
X87464533Y-115609713D01*
X101198819Y-118213666D02*
X100722628Y-118546999D01*
X101198819Y-118785094D02*
X100198819Y-118785094D01*
X100198819Y-118785094D02*
X100198819Y-118404142D01*
X100198819Y-118404142D02*
X100246438Y-118308904D01*
X100246438Y-118308904D02*
X100294057Y-118261285D01*
X100294057Y-118261285D02*
X100389295Y-118213666D01*
X100389295Y-118213666D02*
X100532152Y-118213666D01*
X100532152Y-118213666D02*
X100627390Y-118261285D01*
X100627390Y-118261285D02*
X100675009Y-118308904D01*
X100675009Y-118308904D02*
X100722628Y-118404142D01*
X100722628Y-118404142D02*
X100722628Y-118785094D01*
X101198819Y-117261285D02*
X101198819Y-117832713D01*
X101198819Y-117546999D02*
X100198819Y-117546999D01*
X100198819Y-117546999D02*
X100341676Y-117642237D01*
X100341676Y-117642237D02*
X100436914Y-117737475D01*
X100436914Y-117737475D02*
X100484533Y-117832713D01*
X99909333Y-104340819D02*
X99576000Y-103864628D01*
X99337905Y-104340819D02*
X99337905Y-103340819D01*
X99337905Y-103340819D02*
X99718857Y-103340819D01*
X99718857Y-103340819D02*
X99814095Y-103388438D01*
X99814095Y-103388438D02*
X99861714Y-103436057D01*
X99861714Y-103436057D02*
X99909333Y-103531295D01*
X99909333Y-103531295D02*
X99909333Y-103674152D01*
X99909333Y-103674152D02*
X99861714Y-103769390D01*
X99861714Y-103769390D02*
X99814095Y-103817009D01*
X99814095Y-103817009D02*
X99718857Y-103864628D01*
X99718857Y-103864628D02*
X99337905Y-103864628D01*
X100385524Y-104340819D02*
X100576000Y-104340819D01*
X100576000Y-104340819D02*
X100671238Y-104293200D01*
X100671238Y-104293200D02*
X100718857Y-104245580D01*
X100718857Y-104245580D02*
X100814095Y-104102723D01*
X100814095Y-104102723D02*
X100861714Y-103912247D01*
X100861714Y-103912247D02*
X100861714Y-103531295D01*
X100861714Y-103531295D02*
X100814095Y-103436057D01*
X100814095Y-103436057D02*
X100766476Y-103388438D01*
X100766476Y-103388438D02*
X100671238Y-103340819D01*
X100671238Y-103340819D02*
X100480762Y-103340819D01*
X100480762Y-103340819D02*
X100385524Y-103388438D01*
X100385524Y-103388438D02*
X100337905Y-103436057D01*
X100337905Y-103436057D02*
X100290286Y-103531295D01*
X100290286Y-103531295D02*
X100290286Y-103769390D01*
X100290286Y-103769390D02*
X100337905Y-103864628D01*
X100337905Y-103864628D02*
X100385524Y-103912247D01*
X100385524Y-103912247D02*
X100480762Y-103959866D01*
X100480762Y-103959866D02*
X100671238Y-103959866D01*
X100671238Y-103959866D02*
X100766476Y-103912247D01*
X100766476Y-103912247D02*
X100814095Y-103864628D01*
X100814095Y-103864628D02*
X100861714Y-103769390D01*
X95877142Y-114246819D02*
X95543809Y-113770628D01*
X95305714Y-114246819D02*
X95305714Y-113246819D01*
X95305714Y-113246819D02*
X95686666Y-113246819D01*
X95686666Y-113246819D02*
X95781904Y-113294438D01*
X95781904Y-113294438D02*
X95829523Y-113342057D01*
X95829523Y-113342057D02*
X95877142Y-113437295D01*
X95877142Y-113437295D02*
X95877142Y-113580152D01*
X95877142Y-113580152D02*
X95829523Y-113675390D01*
X95829523Y-113675390D02*
X95781904Y-113723009D01*
X95781904Y-113723009D02*
X95686666Y-113770628D01*
X95686666Y-113770628D02*
X95305714Y-113770628D01*
X96829523Y-114246819D02*
X96258095Y-114246819D01*
X96543809Y-114246819D02*
X96543809Y-113246819D01*
X96543809Y-113246819D02*
X96448571Y-113389676D01*
X96448571Y-113389676D02*
X96353333Y-113484914D01*
X96353333Y-113484914D02*
X96258095Y-113532533D01*
X97686666Y-113580152D02*
X97686666Y-114246819D01*
X97448571Y-113199200D02*
X97210476Y-113913485D01*
X97210476Y-113913485D02*
X97829523Y-113913485D01*
X104005142Y-108658819D02*
X103671809Y-108182628D01*
X103433714Y-108658819D02*
X103433714Y-107658819D01*
X103433714Y-107658819D02*
X103814666Y-107658819D01*
X103814666Y-107658819D02*
X103909904Y-107706438D01*
X103909904Y-107706438D02*
X103957523Y-107754057D01*
X103957523Y-107754057D02*
X104005142Y-107849295D01*
X104005142Y-107849295D02*
X104005142Y-107992152D01*
X104005142Y-107992152D02*
X103957523Y-108087390D01*
X103957523Y-108087390D02*
X103909904Y-108135009D01*
X103909904Y-108135009D02*
X103814666Y-108182628D01*
X103814666Y-108182628D02*
X103433714Y-108182628D01*
X104957523Y-108658819D02*
X104386095Y-108658819D01*
X104671809Y-108658819D02*
X104671809Y-107658819D01*
X104671809Y-107658819D02*
X104576571Y-107801676D01*
X104576571Y-107801676D02*
X104481333Y-107896914D01*
X104481333Y-107896914D02*
X104386095Y-107944533D01*
X105862285Y-107658819D02*
X105386095Y-107658819D01*
X105386095Y-107658819D02*
X105338476Y-108135009D01*
X105338476Y-108135009D02*
X105386095Y-108087390D01*
X105386095Y-108087390D02*
X105481333Y-108039771D01*
X105481333Y-108039771D02*
X105719428Y-108039771D01*
X105719428Y-108039771D02*
X105814666Y-108087390D01*
X105814666Y-108087390D02*
X105862285Y-108135009D01*
X105862285Y-108135009D02*
X105909904Y-108230247D01*
X105909904Y-108230247D02*
X105909904Y-108468342D01*
X105909904Y-108468342D02*
X105862285Y-108563580D01*
X105862285Y-108563580D02*
X105814666Y-108611200D01*
X105814666Y-108611200D02*
X105719428Y-108658819D01*
X105719428Y-108658819D02*
X105481333Y-108658819D01*
X105481333Y-108658819D02*
X105386095Y-108611200D01*
X105386095Y-108611200D02*
X105338476Y-108563580D01*
X103530333Y-104245580D02*
X103482714Y-104293200D01*
X103482714Y-104293200D02*
X103339857Y-104340819D01*
X103339857Y-104340819D02*
X103244619Y-104340819D01*
X103244619Y-104340819D02*
X103101762Y-104293200D01*
X103101762Y-104293200D02*
X103006524Y-104197961D01*
X103006524Y-104197961D02*
X102958905Y-104102723D01*
X102958905Y-104102723D02*
X102911286Y-103912247D01*
X102911286Y-103912247D02*
X102911286Y-103769390D01*
X102911286Y-103769390D02*
X102958905Y-103578914D01*
X102958905Y-103578914D02*
X103006524Y-103483676D01*
X103006524Y-103483676D02*
X103101762Y-103388438D01*
X103101762Y-103388438D02*
X103244619Y-103340819D01*
X103244619Y-103340819D02*
X103339857Y-103340819D01*
X103339857Y-103340819D02*
X103482714Y-103388438D01*
X103482714Y-103388438D02*
X103530333Y-103436057D01*
X103911286Y-103436057D02*
X103958905Y-103388438D01*
X103958905Y-103388438D02*
X104054143Y-103340819D01*
X104054143Y-103340819D02*
X104292238Y-103340819D01*
X104292238Y-103340819D02*
X104387476Y-103388438D01*
X104387476Y-103388438D02*
X104435095Y-103436057D01*
X104435095Y-103436057D02*
X104482714Y-103531295D01*
X104482714Y-103531295D02*
X104482714Y-103626533D01*
X104482714Y-103626533D02*
X104435095Y-103769390D01*
X104435095Y-103769390D02*
X103863667Y-104340819D01*
X103863667Y-104340819D02*
X104482714Y-104340819D01*
X92829142Y-103832819D02*
X92495809Y-103356628D01*
X92257714Y-103832819D02*
X92257714Y-102832819D01*
X92257714Y-102832819D02*
X92638666Y-102832819D01*
X92638666Y-102832819D02*
X92733904Y-102880438D01*
X92733904Y-102880438D02*
X92781523Y-102928057D01*
X92781523Y-102928057D02*
X92829142Y-103023295D01*
X92829142Y-103023295D02*
X92829142Y-103166152D01*
X92829142Y-103166152D02*
X92781523Y-103261390D01*
X92781523Y-103261390D02*
X92733904Y-103309009D01*
X92733904Y-103309009D02*
X92638666Y-103356628D01*
X92638666Y-103356628D02*
X92257714Y-103356628D01*
X93781523Y-103832819D02*
X93210095Y-103832819D01*
X93495809Y-103832819D02*
X93495809Y-102832819D01*
X93495809Y-102832819D02*
X93400571Y-102975676D01*
X93400571Y-102975676D02*
X93305333Y-103070914D01*
X93305333Y-103070914D02*
X93210095Y-103118533D01*
X94162476Y-102928057D02*
X94210095Y-102880438D01*
X94210095Y-102880438D02*
X94305333Y-102832819D01*
X94305333Y-102832819D02*
X94543428Y-102832819D01*
X94543428Y-102832819D02*
X94638666Y-102880438D01*
X94638666Y-102880438D02*
X94686285Y-102928057D01*
X94686285Y-102928057D02*
X94733904Y-103023295D01*
X94733904Y-103023295D02*
X94733904Y-103118533D01*
X94733904Y-103118533D02*
X94686285Y-103261390D01*
X94686285Y-103261390D02*
X94114857Y-103832819D01*
X94114857Y-103832819D02*
X94733904Y-103832819D01*
X88083580Y-109640666D02*
X88131200Y-109688285D01*
X88131200Y-109688285D02*
X88178819Y-109831142D01*
X88178819Y-109831142D02*
X88178819Y-109926380D01*
X88178819Y-109926380D02*
X88131200Y-110069237D01*
X88131200Y-110069237D02*
X88035961Y-110164475D01*
X88035961Y-110164475D02*
X87940723Y-110212094D01*
X87940723Y-110212094D02*
X87750247Y-110259713D01*
X87750247Y-110259713D02*
X87607390Y-110259713D01*
X87607390Y-110259713D02*
X87416914Y-110212094D01*
X87416914Y-110212094D02*
X87321676Y-110164475D01*
X87321676Y-110164475D02*
X87226438Y-110069237D01*
X87226438Y-110069237D02*
X87178819Y-109926380D01*
X87178819Y-109926380D02*
X87178819Y-109831142D01*
X87178819Y-109831142D02*
X87226438Y-109688285D01*
X87226438Y-109688285D02*
X87274057Y-109640666D01*
X87178819Y-109307332D02*
X87178819Y-108688285D01*
X87178819Y-108688285D02*
X87559771Y-109021618D01*
X87559771Y-109021618D02*
X87559771Y-108878761D01*
X87559771Y-108878761D02*
X87607390Y-108783523D01*
X87607390Y-108783523D02*
X87655009Y-108735904D01*
X87655009Y-108735904D02*
X87750247Y-108688285D01*
X87750247Y-108688285D02*
X87988342Y-108688285D01*
X87988342Y-108688285D02*
X88083580Y-108735904D01*
X88083580Y-108735904D02*
X88131200Y-108783523D01*
X88131200Y-108783523D02*
X88178819Y-108878761D01*
X88178819Y-108878761D02*
X88178819Y-109164475D01*
X88178819Y-109164475D02*
X88131200Y-109259713D01*
X88131200Y-109259713D02*
X88083580Y-109307332D01*
X92829142Y-114246819D02*
X92495809Y-113770628D01*
X92257714Y-114246819D02*
X92257714Y-113246819D01*
X92257714Y-113246819D02*
X92638666Y-113246819D01*
X92638666Y-113246819D02*
X92733904Y-113294438D01*
X92733904Y-113294438D02*
X92781523Y-113342057D01*
X92781523Y-113342057D02*
X92829142Y-113437295D01*
X92829142Y-113437295D02*
X92829142Y-113580152D01*
X92829142Y-113580152D02*
X92781523Y-113675390D01*
X92781523Y-113675390D02*
X92733904Y-113723009D01*
X92733904Y-113723009D02*
X92638666Y-113770628D01*
X92638666Y-113770628D02*
X92257714Y-113770628D01*
X93781523Y-114246819D02*
X93210095Y-114246819D01*
X93495809Y-114246819D02*
X93495809Y-113246819D01*
X93495809Y-113246819D02*
X93400571Y-113389676D01*
X93400571Y-113389676D02*
X93305333Y-113484914D01*
X93305333Y-113484914D02*
X93210095Y-113532533D01*
X94400571Y-113246819D02*
X94495809Y-113246819D01*
X94495809Y-113246819D02*
X94591047Y-113294438D01*
X94591047Y-113294438D02*
X94638666Y-113342057D01*
X94638666Y-113342057D02*
X94686285Y-113437295D01*
X94686285Y-113437295D02*
X94733904Y-113627771D01*
X94733904Y-113627771D02*
X94733904Y-113865866D01*
X94733904Y-113865866D02*
X94686285Y-114056342D01*
X94686285Y-114056342D02*
X94638666Y-114151580D01*
X94638666Y-114151580D02*
X94591047Y-114199200D01*
X94591047Y-114199200D02*
X94495809Y-114246819D01*
X94495809Y-114246819D02*
X94400571Y-114246819D01*
X94400571Y-114246819D02*
X94305333Y-114199200D01*
X94305333Y-114199200D02*
X94257714Y-114151580D01*
X94257714Y-114151580D02*
X94210095Y-114056342D01*
X94210095Y-114056342D02*
X94162476Y-113865866D01*
X94162476Y-113865866D02*
X94162476Y-113627771D01*
X94162476Y-113627771D02*
X94210095Y-113437295D01*
X94210095Y-113437295D02*
X94257714Y-113342057D01*
X94257714Y-113342057D02*
X94305333Y-113294438D01*
X94305333Y-113294438D02*
X94400571Y-113246819D01*
X99433142Y-112850580D02*
X99385523Y-112898200D01*
X99385523Y-112898200D02*
X99242666Y-112945819D01*
X99242666Y-112945819D02*
X99147428Y-112945819D01*
X99147428Y-112945819D02*
X99004571Y-112898200D01*
X99004571Y-112898200D02*
X98909333Y-112802961D01*
X98909333Y-112802961D02*
X98861714Y-112707723D01*
X98861714Y-112707723D02*
X98814095Y-112517247D01*
X98814095Y-112517247D02*
X98814095Y-112374390D01*
X98814095Y-112374390D02*
X98861714Y-112183914D01*
X98861714Y-112183914D02*
X98909333Y-112088676D01*
X98909333Y-112088676D02*
X99004571Y-111993438D01*
X99004571Y-111993438D02*
X99147428Y-111945819D01*
X99147428Y-111945819D02*
X99242666Y-111945819D01*
X99242666Y-111945819D02*
X99385523Y-111993438D01*
X99385523Y-111993438D02*
X99433142Y-112041057D01*
X99814095Y-112041057D02*
X99861714Y-111993438D01*
X99861714Y-111993438D02*
X99956952Y-111945819D01*
X99956952Y-111945819D02*
X100195047Y-111945819D01*
X100195047Y-111945819D02*
X100290285Y-111993438D01*
X100290285Y-111993438D02*
X100337904Y-112041057D01*
X100337904Y-112041057D02*
X100385523Y-112136295D01*
X100385523Y-112136295D02*
X100385523Y-112231533D01*
X100385523Y-112231533D02*
X100337904Y-112374390D01*
X100337904Y-112374390D02*
X99766476Y-112945819D01*
X99766476Y-112945819D02*
X100385523Y-112945819D01*
X101004571Y-111945819D02*
X101099809Y-111945819D01*
X101099809Y-111945819D02*
X101195047Y-111993438D01*
X101195047Y-111993438D02*
X101242666Y-112041057D01*
X101242666Y-112041057D02*
X101290285Y-112136295D01*
X101290285Y-112136295D02*
X101337904Y-112326771D01*
X101337904Y-112326771D02*
X101337904Y-112564866D01*
X101337904Y-112564866D02*
X101290285Y-112755342D01*
X101290285Y-112755342D02*
X101242666Y-112850580D01*
X101242666Y-112850580D02*
X101195047Y-112898200D01*
X101195047Y-112898200D02*
X101099809Y-112945819D01*
X101099809Y-112945819D02*
X101004571Y-112945819D01*
X101004571Y-112945819D02*
X100909333Y-112898200D01*
X100909333Y-112898200D02*
X100861714Y-112850580D01*
X100861714Y-112850580D02*
X100814095Y-112755342D01*
X100814095Y-112755342D02*
X100766476Y-112564866D01*
X100766476Y-112564866D02*
X100766476Y-112326771D01*
X100766476Y-112326771D02*
X100814095Y-112136295D01*
X100814095Y-112136295D02*
X100861714Y-112041057D01*
X100861714Y-112041057D02*
X100909333Y-111993438D01*
X100909333Y-111993438D02*
X101004571Y-111945819D01*
X87700819Y-119673666D02*
X87224628Y-120006999D01*
X87700819Y-120245094D02*
X86700819Y-120245094D01*
X86700819Y-120245094D02*
X86700819Y-119864142D01*
X86700819Y-119864142D02*
X86748438Y-119768904D01*
X86748438Y-119768904D02*
X86796057Y-119721285D01*
X86796057Y-119721285D02*
X86891295Y-119673666D01*
X86891295Y-119673666D02*
X87034152Y-119673666D01*
X87034152Y-119673666D02*
X87129390Y-119721285D01*
X87129390Y-119721285D02*
X87177009Y-119768904D01*
X87177009Y-119768904D02*
X87224628Y-119864142D01*
X87224628Y-119864142D02*
X87224628Y-120245094D01*
X86700819Y-118768904D02*
X86700819Y-119245094D01*
X86700819Y-119245094D02*
X87177009Y-119292713D01*
X87177009Y-119292713D02*
X87129390Y-119245094D01*
X87129390Y-119245094D02*
X87081771Y-119149856D01*
X87081771Y-119149856D02*
X87081771Y-118911761D01*
X87081771Y-118911761D02*
X87129390Y-118816523D01*
X87129390Y-118816523D02*
X87177009Y-118768904D01*
X87177009Y-118768904D02*
X87272247Y-118721285D01*
X87272247Y-118721285D02*
X87510342Y-118721285D01*
X87510342Y-118721285D02*
X87605580Y-118768904D01*
X87605580Y-118768904D02*
X87653200Y-118816523D01*
X87653200Y-118816523D02*
X87700819Y-118911761D01*
X87700819Y-118911761D02*
X87700819Y-119149856D01*
X87700819Y-119149856D02*
X87653200Y-119245094D01*
X87653200Y-119245094D02*
X87605580Y-119292713D01*
X122185580Y-106084666D02*
X122233200Y-106132285D01*
X122233200Y-106132285D02*
X122280819Y-106275142D01*
X122280819Y-106275142D02*
X122280819Y-106370380D01*
X122280819Y-106370380D02*
X122233200Y-106513237D01*
X122233200Y-106513237D02*
X122137961Y-106608475D01*
X122137961Y-106608475D02*
X122042723Y-106656094D01*
X122042723Y-106656094D02*
X121852247Y-106703713D01*
X121852247Y-106703713D02*
X121709390Y-106703713D01*
X121709390Y-106703713D02*
X121518914Y-106656094D01*
X121518914Y-106656094D02*
X121423676Y-106608475D01*
X121423676Y-106608475D02*
X121328438Y-106513237D01*
X121328438Y-106513237D02*
X121280819Y-106370380D01*
X121280819Y-106370380D02*
X121280819Y-106275142D01*
X121280819Y-106275142D02*
X121328438Y-106132285D01*
X121328438Y-106132285D02*
X121376057Y-106084666D01*
X121280819Y-105179904D02*
X121280819Y-105656094D01*
X121280819Y-105656094D02*
X121757009Y-105703713D01*
X121757009Y-105703713D02*
X121709390Y-105656094D01*
X121709390Y-105656094D02*
X121661771Y-105560856D01*
X121661771Y-105560856D02*
X121661771Y-105322761D01*
X121661771Y-105322761D02*
X121709390Y-105227523D01*
X121709390Y-105227523D02*
X121757009Y-105179904D01*
X121757009Y-105179904D02*
X121852247Y-105132285D01*
X121852247Y-105132285D02*
X122090342Y-105132285D01*
X122090342Y-105132285D02*
X122185580Y-105179904D01*
X122185580Y-105179904D02*
X122233200Y-105227523D01*
X122233200Y-105227523D02*
X122280819Y-105322761D01*
X122280819Y-105322761D02*
X122280819Y-105560856D01*
X122280819Y-105560856D02*
X122233200Y-105656094D01*
X122233200Y-105656094D02*
X122185580Y-105703713D01*
X107547580Y-123387857D02*
X107595200Y-123435476D01*
X107595200Y-123435476D02*
X107642819Y-123578333D01*
X107642819Y-123578333D02*
X107642819Y-123673571D01*
X107642819Y-123673571D02*
X107595200Y-123816428D01*
X107595200Y-123816428D02*
X107499961Y-123911666D01*
X107499961Y-123911666D02*
X107404723Y-123959285D01*
X107404723Y-123959285D02*
X107214247Y-124006904D01*
X107214247Y-124006904D02*
X107071390Y-124006904D01*
X107071390Y-124006904D02*
X106880914Y-123959285D01*
X106880914Y-123959285D02*
X106785676Y-123911666D01*
X106785676Y-123911666D02*
X106690438Y-123816428D01*
X106690438Y-123816428D02*
X106642819Y-123673571D01*
X106642819Y-123673571D02*
X106642819Y-123578333D01*
X106642819Y-123578333D02*
X106690438Y-123435476D01*
X106690438Y-123435476D02*
X106738057Y-123387857D01*
X107642819Y-122435476D02*
X107642819Y-123006904D01*
X107642819Y-122721190D02*
X106642819Y-122721190D01*
X106642819Y-122721190D02*
X106785676Y-122816428D01*
X106785676Y-122816428D02*
X106880914Y-122911666D01*
X106880914Y-122911666D02*
X106928533Y-123006904D01*
X107642819Y-121483095D02*
X107642819Y-122054523D01*
X107642819Y-121768809D02*
X106642819Y-121768809D01*
X106642819Y-121768809D02*
X106785676Y-121864047D01*
X106785676Y-121864047D02*
X106880914Y-121959285D01*
X106880914Y-121959285D02*
X106928533Y-122054523D01*
X109085142Y-115486580D02*
X109037523Y-115534200D01*
X109037523Y-115534200D02*
X108894666Y-115581819D01*
X108894666Y-115581819D02*
X108799428Y-115581819D01*
X108799428Y-115581819D02*
X108656571Y-115534200D01*
X108656571Y-115534200D02*
X108561333Y-115438961D01*
X108561333Y-115438961D02*
X108513714Y-115343723D01*
X108513714Y-115343723D02*
X108466095Y-115153247D01*
X108466095Y-115153247D02*
X108466095Y-115010390D01*
X108466095Y-115010390D02*
X108513714Y-114819914D01*
X108513714Y-114819914D02*
X108561333Y-114724676D01*
X108561333Y-114724676D02*
X108656571Y-114629438D01*
X108656571Y-114629438D02*
X108799428Y-114581819D01*
X108799428Y-114581819D02*
X108894666Y-114581819D01*
X108894666Y-114581819D02*
X109037523Y-114629438D01*
X109037523Y-114629438D02*
X109085142Y-114677057D01*
X110037523Y-115581819D02*
X109466095Y-115581819D01*
X109751809Y-115581819D02*
X109751809Y-114581819D01*
X109751809Y-114581819D02*
X109656571Y-114724676D01*
X109656571Y-114724676D02*
X109561333Y-114819914D01*
X109561333Y-114819914D02*
X109466095Y-114867533D01*
X110894666Y-114915152D02*
X110894666Y-115581819D01*
X110656571Y-114534200D02*
X110418476Y-115248485D01*
X110418476Y-115248485D02*
X111037523Y-115248485D01*
X119580819Y-111640857D02*
X119104628Y-111974190D01*
X119580819Y-112212285D02*
X118580819Y-112212285D01*
X118580819Y-112212285D02*
X118580819Y-111831333D01*
X118580819Y-111831333D02*
X118628438Y-111736095D01*
X118628438Y-111736095D02*
X118676057Y-111688476D01*
X118676057Y-111688476D02*
X118771295Y-111640857D01*
X118771295Y-111640857D02*
X118914152Y-111640857D01*
X118914152Y-111640857D02*
X119009390Y-111688476D01*
X119009390Y-111688476D02*
X119057009Y-111736095D01*
X119057009Y-111736095D02*
X119104628Y-111831333D01*
X119104628Y-111831333D02*
X119104628Y-112212285D01*
X119580819Y-110688476D02*
X119580819Y-111259904D01*
X119580819Y-110974190D02*
X118580819Y-110974190D01*
X118580819Y-110974190D02*
X118723676Y-111069428D01*
X118723676Y-111069428D02*
X118818914Y-111164666D01*
X118818914Y-111164666D02*
X118866533Y-111259904D01*
X119009390Y-110117047D02*
X118961771Y-110212285D01*
X118961771Y-110212285D02*
X118914152Y-110259904D01*
X118914152Y-110259904D02*
X118818914Y-110307523D01*
X118818914Y-110307523D02*
X118771295Y-110307523D01*
X118771295Y-110307523D02*
X118676057Y-110259904D01*
X118676057Y-110259904D02*
X118628438Y-110212285D01*
X118628438Y-110212285D02*
X118580819Y-110117047D01*
X118580819Y-110117047D02*
X118580819Y-109926571D01*
X118580819Y-109926571D02*
X118628438Y-109831333D01*
X118628438Y-109831333D02*
X118676057Y-109783714D01*
X118676057Y-109783714D02*
X118771295Y-109736095D01*
X118771295Y-109736095D02*
X118818914Y-109736095D01*
X118818914Y-109736095D02*
X118914152Y-109783714D01*
X118914152Y-109783714D02*
X118961771Y-109831333D01*
X118961771Y-109831333D02*
X119009390Y-109926571D01*
X119009390Y-109926571D02*
X119009390Y-110117047D01*
X119009390Y-110117047D02*
X119057009Y-110212285D01*
X119057009Y-110212285D02*
X119104628Y-110259904D01*
X119104628Y-110259904D02*
X119199866Y-110307523D01*
X119199866Y-110307523D02*
X119390342Y-110307523D01*
X119390342Y-110307523D02*
X119485580Y-110259904D01*
X119485580Y-110259904D02*
X119533200Y-110212285D01*
X119533200Y-110212285D02*
X119580819Y-110117047D01*
X119580819Y-110117047D02*
X119580819Y-109926571D01*
X119580819Y-109926571D02*
X119533200Y-109831333D01*
X119533200Y-109831333D02*
X119485580Y-109783714D01*
X119485580Y-109783714D02*
X119390342Y-109736095D01*
X119390342Y-109736095D02*
X119199866Y-109736095D01*
X119199866Y-109736095D02*
X119104628Y-109783714D01*
X119104628Y-109783714D02*
X119057009Y-109831333D01*
X119057009Y-109831333D02*
X119009390Y-109926571D01*
X114037142Y-108721819D02*
X113703809Y-108245628D01*
X113465714Y-108721819D02*
X113465714Y-107721819D01*
X113465714Y-107721819D02*
X113846666Y-107721819D01*
X113846666Y-107721819D02*
X113941904Y-107769438D01*
X113941904Y-107769438D02*
X113989523Y-107817057D01*
X113989523Y-107817057D02*
X114037142Y-107912295D01*
X114037142Y-107912295D02*
X114037142Y-108055152D01*
X114037142Y-108055152D02*
X113989523Y-108150390D01*
X113989523Y-108150390D02*
X113941904Y-108198009D01*
X113941904Y-108198009D02*
X113846666Y-108245628D01*
X113846666Y-108245628D02*
X113465714Y-108245628D01*
X114418095Y-107817057D02*
X114465714Y-107769438D01*
X114465714Y-107769438D02*
X114560952Y-107721819D01*
X114560952Y-107721819D02*
X114799047Y-107721819D01*
X114799047Y-107721819D02*
X114894285Y-107769438D01*
X114894285Y-107769438D02*
X114941904Y-107817057D01*
X114941904Y-107817057D02*
X114989523Y-107912295D01*
X114989523Y-107912295D02*
X114989523Y-108007533D01*
X114989523Y-108007533D02*
X114941904Y-108150390D01*
X114941904Y-108150390D02*
X114370476Y-108721819D01*
X114370476Y-108721819D02*
X114989523Y-108721819D01*
X115465714Y-108721819D02*
X115656190Y-108721819D01*
X115656190Y-108721819D02*
X115751428Y-108674200D01*
X115751428Y-108674200D02*
X115799047Y-108626580D01*
X115799047Y-108626580D02*
X115894285Y-108483723D01*
X115894285Y-108483723D02*
X115941904Y-108293247D01*
X115941904Y-108293247D02*
X115941904Y-107912295D01*
X115941904Y-107912295D02*
X115894285Y-107817057D01*
X115894285Y-107817057D02*
X115846666Y-107769438D01*
X115846666Y-107769438D02*
X115751428Y-107721819D01*
X115751428Y-107721819D02*
X115560952Y-107721819D01*
X115560952Y-107721819D02*
X115465714Y-107769438D01*
X115465714Y-107769438D02*
X115418095Y-107817057D01*
X115418095Y-107817057D02*
X115370476Y-107912295D01*
X115370476Y-107912295D02*
X115370476Y-108150390D01*
X115370476Y-108150390D02*
X115418095Y-108245628D01*
X115418095Y-108245628D02*
X115465714Y-108293247D01*
X115465714Y-108293247D02*
X115560952Y-108340866D01*
X115560952Y-108340866D02*
X115751428Y-108340866D01*
X115751428Y-108340866D02*
X115846666Y-108293247D01*
X115846666Y-108293247D02*
X115894285Y-108245628D01*
X115894285Y-108245628D02*
X115941904Y-108150390D01*
X116959142Y-123803580D02*
X116911523Y-123851200D01*
X116911523Y-123851200D02*
X116768666Y-123898819D01*
X116768666Y-123898819D02*
X116673428Y-123898819D01*
X116673428Y-123898819D02*
X116530571Y-123851200D01*
X116530571Y-123851200D02*
X116435333Y-123755961D01*
X116435333Y-123755961D02*
X116387714Y-123660723D01*
X116387714Y-123660723D02*
X116340095Y-123470247D01*
X116340095Y-123470247D02*
X116340095Y-123327390D01*
X116340095Y-123327390D02*
X116387714Y-123136914D01*
X116387714Y-123136914D02*
X116435333Y-123041676D01*
X116435333Y-123041676D02*
X116530571Y-122946438D01*
X116530571Y-122946438D02*
X116673428Y-122898819D01*
X116673428Y-122898819D02*
X116768666Y-122898819D01*
X116768666Y-122898819D02*
X116911523Y-122946438D01*
X116911523Y-122946438D02*
X116959142Y-122994057D01*
X117911523Y-123898819D02*
X117340095Y-123898819D01*
X117625809Y-123898819D02*
X117625809Y-122898819D01*
X117625809Y-122898819D02*
X117530571Y-123041676D01*
X117530571Y-123041676D02*
X117435333Y-123136914D01*
X117435333Y-123136914D02*
X117340095Y-123184533D01*
X118530571Y-122898819D02*
X118625809Y-122898819D01*
X118625809Y-122898819D02*
X118721047Y-122946438D01*
X118721047Y-122946438D02*
X118768666Y-122994057D01*
X118768666Y-122994057D02*
X118816285Y-123089295D01*
X118816285Y-123089295D02*
X118863904Y-123279771D01*
X118863904Y-123279771D02*
X118863904Y-123517866D01*
X118863904Y-123517866D02*
X118816285Y-123708342D01*
X118816285Y-123708342D02*
X118768666Y-123803580D01*
X118768666Y-123803580D02*
X118721047Y-123851200D01*
X118721047Y-123851200D02*
X118625809Y-123898819D01*
X118625809Y-123898819D02*
X118530571Y-123898819D01*
X118530571Y-123898819D02*
X118435333Y-123851200D01*
X118435333Y-123851200D02*
X118387714Y-123803580D01*
X118387714Y-123803580D02*
X118340095Y-123708342D01*
X118340095Y-123708342D02*
X118292476Y-123517866D01*
X118292476Y-123517866D02*
X118292476Y-123279771D01*
X118292476Y-123279771D02*
X118340095Y-123089295D01*
X118340095Y-123089295D02*
X118387714Y-122994057D01*
X118387714Y-122994057D02*
X118435333Y-122946438D01*
X118435333Y-122946438D02*
X118530571Y-122898819D01*
X123898819Y-106877857D02*
X123422628Y-107211190D01*
X123898819Y-107449285D02*
X122898819Y-107449285D01*
X122898819Y-107449285D02*
X122898819Y-107068333D01*
X122898819Y-107068333D02*
X122946438Y-106973095D01*
X122946438Y-106973095D02*
X122994057Y-106925476D01*
X122994057Y-106925476D02*
X123089295Y-106877857D01*
X123089295Y-106877857D02*
X123232152Y-106877857D01*
X123232152Y-106877857D02*
X123327390Y-106925476D01*
X123327390Y-106925476D02*
X123375009Y-106973095D01*
X123375009Y-106973095D02*
X123422628Y-107068333D01*
X123422628Y-107068333D02*
X123422628Y-107449285D01*
X122994057Y-106496904D02*
X122946438Y-106449285D01*
X122946438Y-106449285D02*
X122898819Y-106354047D01*
X122898819Y-106354047D02*
X122898819Y-106115952D01*
X122898819Y-106115952D02*
X122946438Y-106020714D01*
X122946438Y-106020714D02*
X122994057Y-105973095D01*
X122994057Y-105973095D02*
X123089295Y-105925476D01*
X123089295Y-105925476D02*
X123184533Y-105925476D01*
X123184533Y-105925476D02*
X123327390Y-105973095D01*
X123327390Y-105973095D02*
X123898819Y-106544523D01*
X123898819Y-106544523D02*
X123898819Y-105925476D01*
X122898819Y-105306428D02*
X122898819Y-105211190D01*
X122898819Y-105211190D02*
X122946438Y-105115952D01*
X122946438Y-105115952D02*
X122994057Y-105068333D01*
X122994057Y-105068333D02*
X123089295Y-105020714D01*
X123089295Y-105020714D02*
X123279771Y-104973095D01*
X123279771Y-104973095D02*
X123517866Y-104973095D01*
X123517866Y-104973095D02*
X123708342Y-105020714D01*
X123708342Y-105020714D02*
X123803580Y-105068333D01*
X123803580Y-105068333D02*
X123851200Y-105115952D01*
X123851200Y-105115952D02*
X123898819Y-105211190D01*
X123898819Y-105211190D02*
X123898819Y-105306428D01*
X123898819Y-105306428D02*
X123851200Y-105401666D01*
X123851200Y-105401666D02*
X123803580Y-105449285D01*
X123803580Y-105449285D02*
X123708342Y-105496904D01*
X123708342Y-105496904D02*
X123517866Y-105544523D01*
X123517866Y-105544523D02*
X123279771Y-105544523D01*
X123279771Y-105544523D02*
X123089295Y-105496904D01*
X123089295Y-105496904D02*
X122994057Y-105449285D01*
X122994057Y-105449285D02*
X122946438Y-105401666D01*
X122946438Y-105401666D02*
X122898819Y-105306428D01*
X124833142Y-110944819D02*
X124499809Y-110468628D01*
X124261714Y-110944819D02*
X124261714Y-109944819D01*
X124261714Y-109944819D02*
X124642666Y-109944819D01*
X124642666Y-109944819D02*
X124737904Y-109992438D01*
X124737904Y-109992438D02*
X124785523Y-110040057D01*
X124785523Y-110040057D02*
X124833142Y-110135295D01*
X124833142Y-110135295D02*
X124833142Y-110278152D01*
X124833142Y-110278152D02*
X124785523Y-110373390D01*
X124785523Y-110373390D02*
X124737904Y-110421009D01*
X124737904Y-110421009D02*
X124642666Y-110468628D01*
X124642666Y-110468628D02*
X124261714Y-110468628D01*
X125785523Y-110944819D02*
X125214095Y-110944819D01*
X125499809Y-110944819D02*
X125499809Y-109944819D01*
X125499809Y-109944819D02*
X125404571Y-110087676D01*
X125404571Y-110087676D02*
X125309333Y-110182914D01*
X125309333Y-110182914D02*
X125214095Y-110230533D01*
X126261714Y-110944819D02*
X126452190Y-110944819D01*
X126452190Y-110944819D02*
X126547428Y-110897200D01*
X126547428Y-110897200D02*
X126595047Y-110849580D01*
X126595047Y-110849580D02*
X126690285Y-110706723D01*
X126690285Y-110706723D02*
X126737904Y-110516247D01*
X126737904Y-110516247D02*
X126737904Y-110135295D01*
X126737904Y-110135295D02*
X126690285Y-110040057D01*
X126690285Y-110040057D02*
X126642666Y-109992438D01*
X126642666Y-109992438D02*
X126547428Y-109944819D01*
X126547428Y-109944819D02*
X126356952Y-109944819D01*
X126356952Y-109944819D02*
X126261714Y-109992438D01*
X126261714Y-109992438D02*
X126214095Y-110040057D01*
X126214095Y-110040057D02*
X126166476Y-110135295D01*
X126166476Y-110135295D02*
X126166476Y-110373390D01*
X126166476Y-110373390D02*
X126214095Y-110468628D01*
X126214095Y-110468628D02*
X126261714Y-110516247D01*
X126261714Y-110516247D02*
X126356952Y-110563866D01*
X126356952Y-110563866D02*
X126547428Y-110563866D01*
X126547428Y-110563866D02*
X126642666Y-110516247D01*
X126642666Y-110516247D02*
X126690285Y-110468628D01*
X126690285Y-110468628D02*
X126737904Y-110373390D01*
X125849142Y-126755819D02*
X125515809Y-126279628D01*
X125277714Y-126755819D02*
X125277714Y-125755819D01*
X125277714Y-125755819D02*
X125658666Y-125755819D01*
X125658666Y-125755819D02*
X125753904Y-125803438D01*
X125753904Y-125803438D02*
X125801523Y-125851057D01*
X125801523Y-125851057D02*
X125849142Y-125946295D01*
X125849142Y-125946295D02*
X125849142Y-126089152D01*
X125849142Y-126089152D02*
X125801523Y-126184390D01*
X125801523Y-126184390D02*
X125753904Y-126232009D01*
X125753904Y-126232009D02*
X125658666Y-126279628D01*
X125658666Y-126279628D02*
X125277714Y-126279628D01*
X126230095Y-125851057D02*
X126277714Y-125803438D01*
X126277714Y-125803438D02*
X126372952Y-125755819D01*
X126372952Y-125755819D02*
X126611047Y-125755819D01*
X126611047Y-125755819D02*
X126706285Y-125803438D01*
X126706285Y-125803438D02*
X126753904Y-125851057D01*
X126753904Y-125851057D02*
X126801523Y-125946295D01*
X126801523Y-125946295D02*
X126801523Y-126041533D01*
X126801523Y-126041533D02*
X126753904Y-126184390D01*
X126753904Y-126184390D02*
X126182476Y-126755819D01*
X126182476Y-126755819D02*
X126801523Y-126755819D01*
X127753904Y-126755819D02*
X127182476Y-126755819D01*
X127468190Y-126755819D02*
X127468190Y-125755819D01*
X127468190Y-125755819D02*
X127372952Y-125898676D01*
X127372952Y-125898676D02*
X127277714Y-125993914D01*
X127277714Y-125993914D02*
X127182476Y-126041533D01*
X106372819Y-119323857D02*
X105896628Y-119657190D01*
X106372819Y-119895285D02*
X105372819Y-119895285D01*
X105372819Y-119895285D02*
X105372819Y-119514333D01*
X105372819Y-119514333D02*
X105420438Y-119419095D01*
X105420438Y-119419095D02*
X105468057Y-119371476D01*
X105468057Y-119371476D02*
X105563295Y-119323857D01*
X105563295Y-119323857D02*
X105706152Y-119323857D01*
X105706152Y-119323857D02*
X105801390Y-119371476D01*
X105801390Y-119371476D02*
X105849009Y-119419095D01*
X105849009Y-119419095D02*
X105896628Y-119514333D01*
X105896628Y-119514333D02*
X105896628Y-119895285D01*
X105468057Y-118942904D02*
X105420438Y-118895285D01*
X105420438Y-118895285D02*
X105372819Y-118800047D01*
X105372819Y-118800047D02*
X105372819Y-118561952D01*
X105372819Y-118561952D02*
X105420438Y-118466714D01*
X105420438Y-118466714D02*
X105468057Y-118419095D01*
X105468057Y-118419095D02*
X105563295Y-118371476D01*
X105563295Y-118371476D02*
X105658533Y-118371476D01*
X105658533Y-118371476D02*
X105801390Y-118419095D01*
X105801390Y-118419095D02*
X106372819Y-118990523D01*
X106372819Y-118990523D02*
X106372819Y-118371476D01*
X105372819Y-118038142D02*
X105372819Y-117371476D01*
X105372819Y-117371476D02*
X106372819Y-117800047D01*
X126103142Y-113897580D02*
X126055523Y-113945200D01*
X126055523Y-113945200D02*
X125912666Y-113992819D01*
X125912666Y-113992819D02*
X125817428Y-113992819D01*
X125817428Y-113992819D02*
X125674571Y-113945200D01*
X125674571Y-113945200D02*
X125579333Y-113849961D01*
X125579333Y-113849961D02*
X125531714Y-113754723D01*
X125531714Y-113754723D02*
X125484095Y-113564247D01*
X125484095Y-113564247D02*
X125484095Y-113421390D01*
X125484095Y-113421390D02*
X125531714Y-113230914D01*
X125531714Y-113230914D02*
X125579333Y-113135676D01*
X125579333Y-113135676D02*
X125674571Y-113040438D01*
X125674571Y-113040438D02*
X125817428Y-112992819D01*
X125817428Y-112992819D02*
X125912666Y-112992819D01*
X125912666Y-112992819D02*
X126055523Y-113040438D01*
X126055523Y-113040438D02*
X126103142Y-113088057D01*
X126484095Y-113088057D02*
X126531714Y-113040438D01*
X126531714Y-113040438D02*
X126626952Y-112992819D01*
X126626952Y-112992819D02*
X126865047Y-112992819D01*
X126865047Y-112992819D02*
X126960285Y-113040438D01*
X126960285Y-113040438D02*
X127007904Y-113088057D01*
X127007904Y-113088057D02*
X127055523Y-113183295D01*
X127055523Y-113183295D02*
X127055523Y-113278533D01*
X127055523Y-113278533D02*
X127007904Y-113421390D01*
X127007904Y-113421390D02*
X126436476Y-113992819D01*
X126436476Y-113992819D02*
X127055523Y-113992819D01*
X128007904Y-113992819D02*
X127436476Y-113992819D01*
X127722190Y-113992819D02*
X127722190Y-112992819D01*
X127722190Y-112992819D02*
X127626952Y-113135676D01*
X127626952Y-113135676D02*
X127531714Y-113230914D01*
X127531714Y-113230914D02*
X127436476Y-113278533D01*
X117721142Y-107451819D02*
X117387809Y-106975628D01*
X117149714Y-107451819D02*
X117149714Y-106451819D01*
X117149714Y-106451819D02*
X117530666Y-106451819D01*
X117530666Y-106451819D02*
X117625904Y-106499438D01*
X117625904Y-106499438D02*
X117673523Y-106547057D01*
X117673523Y-106547057D02*
X117721142Y-106642295D01*
X117721142Y-106642295D02*
X117721142Y-106785152D01*
X117721142Y-106785152D02*
X117673523Y-106880390D01*
X117673523Y-106880390D02*
X117625904Y-106928009D01*
X117625904Y-106928009D02*
X117530666Y-106975628D01*
X117530666Y-106975628D02*
X117149714Y-106975628D01*
X118673523Y-107451819D02*
X118102095Y-107451819D01*
X118387809Y-107451819D02*
X118387809Y-106451819D01*
X118387809Y-106451819D02*
X118292571Y-106594676D01*
X118292571Y-106594676D02*
X118197333Y-106689914D01*
X118197333Y-106689914D02*
X118102095Y-106737533D01*
X119006857Y-106451819D02*
X119673523Y-106451819D01*
X119673523Y-106451819D02*
X119244952Y-107451819D01*
X111103580Y-123452857D02*
X111151200Y-123500476D01*
X111151200Y-123500476D02*
X111198819Y-123643333D01*
X111198819Y-123643333D02*
X111198819Y-123738571D01*
X111198819Y-123738571D02*
X111151200Y-123881428D01*
X111151200Y-123881428D02*
X111055961Y-123976666D01*
X111055961Y-123976666D02*
X110960723Y-124024285D01*
X110960723Y-124024285D02*
X110770247Y-124071904D01*
X110770247Y-124071904D02*
X110627390Y-124071904D01*
X110627390Y-124071904D02*
X110436914Y-124024285D01*
X110436914Y-124024285D02*
X110341676Y-123976666D01*
X110341676Y-123976666D02*
X110246438Y-123881428D01*
X110246438Y-123881428D02*
X110198819Y-123738571D01*
X110198819Y-123738571D02*
X110198819Y-123643333D01*
X110198819Y-123643333D02*
X110246438Y-123500476D01*
X110246438Y-123500476D02*
X110294057Y-123452857D01*
X111198819Y-122500476D02*
X111198819Y-123071904D01*
X111198819Y-122786190D02*
X110198819Y-122786190D01*
X110198819Y-122786190D02*
X110341676Y-122881428D01*
X110341676Y-122881428D02*
X110436914Y-122976666D01*
X110436914Y-122976666D02*
X110484533Y-123071904D01*
X110294057Y-122119523D02*
X110246438Y-122071904D01*
X110246438Y-122071904D02*
X110198819Y-121976666D01*
X110198819Y-121976666D02*
X110198819Y-121738571D01*
X110198819Y-121738571D02*
X110246438Y-121643333D01*
X110246438Y-121643333D02*
X110294057Y-121595714D01*
X110294057Y-121595714D02*
X110389295Y-121548095D01*
X110389295Y-121548095D02*
X110484533Y-121548095D01*
X110484533Y-121548095D02*
X110627390Y-121595714D01*
X110627390Y-121595714D02*
X111198819Y-122167142D01*
X111198819Y-122167142D02*
X111198819Y-121548095D01*
X117453580Y-110433857D02*
X117501200Y-110481476D01*
X117501200Y-110481476D02*
X117548819Y-110624333D01*
X117548819Y-110624333D02*
X117548819Y-110719571D01*
X117548819Y-110719571D02*
X117501200Y-110862428D01*
X117501200Y-110862428D02*
X117405961Y-110957666D01*
X117405961Y-110957666D02*
X117310723Y-111005285D01*
X117310723Y-111005285D02*
X117120247Y-111052904D01*
X117120247Y-111052904D02*
X116977390Y-111052904D01*
X116977390Y-111052904D02*
X116786914Y-111005285D01*
X116786914Y-111005285D02*
X116691676Y-110957666D01*
X116691676Y-110957666D02*
X116596438Y-110862428D01*
X116596438Y-110862428D02*
X116548819Y-110719571D01*
X116548819Y-110719571D02*
X116548819Y-110624333D01*
X116548819Y-110624333D02*
X116596438Y-110481476D01*
X116596438Y-110481476D02*
X116644057Y-110433857D01*
X117548819Y-109481476D02*
X117548819Y-110052904D01*
X117548819Y-109767190D02*
X116548819Y-109767190D01*
X116548819Y-109767190D02*
X116691676Y-109862428D01*
X116691676Y-109862428D02*
X116786914Y-109957666D01*
X116786914Y-109957666D02*
X116834533Y-110052904D01*
X116548819Y-108576714D02*
X116548819Y-109052904D01*
X116548819Y-109052904D02*
X117025009Y-109100523D01*
X117025009Y-109100523D02*
X116977390Y-109052904D01*
X116977390Y-109052904D02*
X116929771Y-108957666D01*
X116929771Y-108957666D02*
X116929771Y-108719571D01*
X116929771Y-108719571D02*
X116977390Y-108624333D01*
X116977390Y-108624333D02*
X117025009Y-108576714D01*
X117025009Y-108576714D02*
X117120247Y-108529095D01*
X117120247Y-108529095D02*
X117358342Y-108529095D01*
X117358342Y-108529095D02*
X117453580Y-108576714D01*
X117453580Y-108576714D02*
X117501200Y-108624333D01*
X117501200Y-108624333D02*
X117548819Y-108719571D01*
X117548819Y-108719571D02*
X117548819Y-108957666D01*
X117548819Y-108957666D02*
X117501200Y-109052904D01*
X117501200Y-109052904D02*
X117453580Y-109100523D01*
X125563333Y-107102580D02*
X125515714Y-107150200D01*
X125515714Y-107150200D02*
X125372857Y-107197819D01*
X125372857Y-107197819D02*
X125277619Y-107197819D01*
X125277619Y-107197819D02*
X125134762Y-107150200D01*
X125134762Y-107150200D02*
X125039524Y-107054961D01*
X125039524Y-107054961D02*
X124991905Y-106959723D01*
X124991905Y-106959723D02*
X124944286Y-106769247D01*
X124944286Y-106769247D02*
X124944286Y-106626390D01*
X124944286Y-106626390D02*
X124991905Y-106435914D01*
X124991905Y-106435914D02*
X125039524Y-106340676D01*
X125039524Y-106340676D02*
X125134762Y-106245438D01*
X125134762Y-106245438D02*
X125277619Y-106197819D01*
X125277619Y-106197819D02*
X125372857Y-106197819D01*
X125372857Y-106197819D02*
X125515714Y-106245438D01*
X125515714Y-106245438D02*
X125563333Y-106293057D01*
X126420476Y-106197819D02*
X126230000Y-106197819D01*
X126230000Y-106197819D02*
X126134762Y-106245438D01*
X126134762Y-106245438D02*
X126087143Y-106293057D01*
X126087143Y-106293057D02*
X125991905Y-106435914D01*
X125991905Y-106435914D02*
X125944286Y-106626390D01*
X125944286Y-106626390D02*
X125944286Y-107007342D01*
X125944286Y-107007342D02*
X125991905Y-107102580D01*
X125991905Y-107102580D02*
X126039524Y-107150200D01*
X126039524Y-107150200D02*
X126134762Y-107197819D01*
X126134762Y-107197819D02*
X126325238Y-107197819D01*
X126325238Y-107197819D02*
X126420476Y-107150200D01*
X126420476Y-107150200D02*
X126468095Y-107102580D01*
X126468095Y-107102580D02*
X126515714Y-107007342D01*
X126515714Y-107007342D02*
X126515714Y-106769247D01*
X126515714Y-106769247D02*
X126468095Y-106674009D01*
X126468095Y-106674009D02*
X126420476Y-106626390D01*
X126420476Y-106626390D02*
X126325238Y-106578771D01*
X126325238Y-106578771D02*
X126134762Y-106578771D01*
X126134762Y-106578771D02*
X126039524Y-106626390D01*
X126039524Y-106626390D02*
X125991905Y-106674009D01*
X125991905Y-106674009D02*
X125944286Y-106769247D01*
X112895142Y-128724819D02*
X112561809Y-128248628D01*
X112323714Y-128724819D02*
X112323714Y-127724819D01*
X112323714Y-127724819D02*
X112704666Y-127724819D01*
X112704666Y-127724819D02*
X112799904Y-127772438D01*
X112799904Y-127772438D02*
X112847523Y-127820057D01*
X112847523Y-127820057D02*
X112895142Y-127915295D01*
X112895142Y-127915295D02*
X112895142Y-128058152D01*
X112895142Y-128058152D02*
X112847523Y-128153390D01*
X112847523Y-128153390D02*
X112799904Y-128201009D01*
X112799904Y-128201009D02*
X112704666Y-128248628D01*
X112704666Y-128248628D02*
X112323714Y-128248628D01*
X113276095Y-127820057D02*
X113323714Y-127772438D01*
X113323714Y-127772438D02*
X113418952Y-127724819D01*
X113418952Y-127724819D02*
X113657047Y-127724819D01*
X113657047Y-127724819D02*
X113752285Y-127772438D01*
X113752285Y-127772438D02*
X113799904Y-127820057D01*
X113799904Y-127820057D02*
X113847523Y-127915295D01*
X113847523Y-127915295D02*
X113847523Y-128010533D01*
X113847523Y-128010533D02*
X113799904Y-128153390D01*
X113799904Y-128153390D02*
X113228476Y-128724819D01*
X113228476Y-128724819D02*
X113847523Y-128724819D01*
X114704666Y-127724819D02*
X114514190Y-127724819D01*
X114514190Y-127724819D02*
X114418952Y-127772438D01*
X114418952Y-127772438D02*
X114371333Y-127820057D01*
X114371333Y-127820057D02*
X114276095Y-127962914D01*
X114276095Y-127962914D02*
X114228476Y-128153390D01*
X114228476Y-128153390D02*
X114228476Y-128534342D01*
X114228476Y-128534342D02*
X114276095Y-128629580D01*
X114276095Y-128629580D02*
X114323714Y-128677200D01*
X114323714Y-128677200D02*
X114418952Y-128724819D01*
X114418952Y-128724819D02*
X114609428Y-128724819D01*
X114609428Y-128724819D02*
X114704666Y-128677200D01*
X114704666Y-128677200D02*
X114752285Y-128629580D01*
X114752285Y-128629580D02*
X114799904Y-128534342D01*
X114799904Y-128534342D02*
X114799904Y-128296247D01*
X114799904Y-128296247D02*
X114752285Y-128201009D01*
X114752285Y-128201009D02*
X114704666Y-128153390D01*
X114704666Y-128153390D02*
X114609428Y-128105771D01*
X114609428Y-128105771D02*
X114418952Y-128105771D01*
X114418952Y-128105771D02*
X114323714Y-128153390D01*
X114323714Y-128153390D02*
X114276095Y-128201009D01*
X114276095Y-128201009D02*
X114228476Y-128296247D01*
X110436819Y-132531857D02*
X109960628Y-132865190D01*
X110436819Y-133103285D02*
X109436819Y-133103285D01*
X109436819Y-133103285D02*
X109436819Y-132722333D01*
X109436819Y-132722333D02*
X109484438Y-132627095D01*
X109484438Y-132627095D02*
X109532057Y-132579476D01*
X109532057Y-132579476D02*
X109627295Y-132531857D01*
X109627295Y-132531857D02*
X109770152Y-132531857D01*
X109770152Y-132531857D02*
X109865390Y-132579476D01*
X109865390Y-132579476D02*
X109913009Y-132627095D01*
X109913009Y-132627095D02*
X109960628Y-132722333D01*
X109960628Y-132722333D02*
X109960628Y-133103285D01*
X109532057Y-132150904D02*
X109484438Y-132103285D01*
X109484438Y-132103285D02*
X109436819Y-132008047D01*
X109436819Y-132008047D02*
X109436819Y-131769952D01*
X109436819Y-131769952D02*
X109484438Y-131674714D01*
X109484438Y-131674714D02*
X109532057Y-131627095D01*
X109532057Y-131627095D02*
X109627295Y-131579476D01*
X109627295Y-131579476D02*
X109722533Y-131579476D01*
X109722533Y-131579476D02*
X109865390Y-131627095D01*
X109865390Y-131627095D02*
X110436819Y-132198523D01*
X110436819Y-132198523D02*
X110436819Y-131579476D01*
X109770152Y-130722333D02*
X110436819Y-130722333D01*
X109389200Y-130960428D02*
X110103485Y-131198523D01*
X110103485Y-131198523D02*
X110103485Y-130579476D01*
X106037142Y-126755819D02*
X105703809Y-126279628D01*
X105465714Y-126755819D02*
X105465714Y-125755819D01*
X105465714Y-125755819D02*
X105846666Y-125755819D01*
X105846666Y-125755819D02*
X105941904Y-125803438D01*
X105941904Y-125803438D02*
X105989523Y-125851057D01*
X105989523Y-125851057D02*
X106037142Y-125946295D01*
X106037142Y-125946295D02*
X106037142Y-126089152D01*
X106037142Y-126089152D02*
X105989523Y-126184390D01*
X105989523Y-126184390D02*
X105941904Y-126232009D01*
X105941904Y-126232009D02*
X105846666Y-126279628D01*
X105846666Y-126279628D02*
X105465714Y-126279628D01*
X106418095Y-125851057D02*
X106465714Y-125803438D01*
X106465714Y-125803438D02*
X106560952Y-125755819D01*
X106560952Y-125755819D02*
X106799047Y-125755819D01*
X106799047Y-125755819D02*
X106894285Y-125803438D01*
X106894285Y-125803438D02*
X106941904Y-125851057D01*
X106941904Y-125851057D02*
X106989523Y-125946295D01*
X106989523Y-125946295D02*
X106989523Y-126041533D01*
X106989523Y-126041533D02*
X106941904Y-126184390D01*
X106941904Y-126184390D02*
X106370476Y-126755819D01*
X106370476Y-126755819D02*
X106989523Y-126755819D01*
X107894285Y-125755819D02*
X107418095Y-125755819D01*
X107418095Y-125755819D02*
X107370476Y-126232009D01*
X107370476Y-126232009D02*
X107418095Y-126184390D01*
X107418095Y-126184390D02*
X107513333Y-126136771D01*
X107513333Y-126136771D02*
X107751428Y-126136771D01*
X107751428Y-126136771D02*
X107846666Y-126184390D01*
X107846666Y-126184390D02*
X107894285Y-126232009D01*
X107894285Y-126232009D02*
X107941904Y-126327247D01*
X107941904Y-126327247D02*
X107941904Y-126565342D01*
X107941904Y-126565342D02*
X107894285Y-126660580D01*
X107894285Y-126660580D02*
X107846666Y-126708200D01*
X107846666Y-126708200D02*
X107751428Y-126755819D01*
X107751428Y-126755819D02*
X107513333Y-126755819D01*
X107513333Y-126755819D02*
X107418095Y-126708200D01*
X107418095Y-126708200D02*
X107370476Y-126660580D01*
X120991333Y-123549580D02*
X120943714Y-123597200D01*
X120943714Y-123597200D02*
X120800857Y-123644819D01*
X120800857Y-123644819D02*
X120705619Y-123644819D01*
X120705619Y-123644819D02*
X120562762Y-123597200D01*
X120562762Y-123597200D02*
X120467524Y-123501961D01*
X120467524Y-123501961D02*
X120419905Y-123406723D01*
X120419905Y-123406723D02*
X120372286Y-123216247D01*
X120372286Y-123216247D02*
X120372286Y-123073390D01*
X120372286Y-123073390D02*
X120419905Y-122882914D01*
X120419905Y-122882914D02*
X120467524Y-122787676D01*
X120467524Y-122787676D02*
X120562762Y-122692438D01*
X120562762Y-122692438D02*
X120705619Y-122644819D01*
X120705619Y-122644819D02*
X120800857Y-122644819D01*
X120800857Y-122644819D02*
X120943714Y-122692438D01*
X120943714Y-122692438D02*
X120991333Y-122740057D01*
X121467524Y-123644819D02*
X121658000Y-123644819D01*
X121658000Y-123644819D02*
X121753238Y-123597200D01*
X121753238Y-123597200D02*
X121800857Y-123549580D01*
X121800857Y-123549580D02*
X121896095Y-123406723D01*
X121896095Y-123406723D02*
X121943714Y-123216247D01*
X121943714Y-123216247D02*
X121943714Y-122835295D01*
X121943714Y-122835295D02*
X121896095Y-122740057D01*
X121896095Y-122740057D02*
X121848476Y-122692438D01*
X121848476Y-122692438D02*
X121753238Y-122644819D01*
X121753238Y-122644819D02*
X121562762Y-122644819D01*
X121562762Y-122644819D02*
X121467524Y-122692438D01*
X121467524Y-122692438D02*
X121419905Y-122740057D01*
X121419905Y-122740057D02*
X121372286Y-122835295D01*
X121372286Y-122835295D02*
X121372286Y-123073390D01*
X121372286Y-123073390D02*
X121419905Y-123168628D01*
X121419905Y-123168628D02*
X121467524Y-123216247D01*
X121467524Y-123216247D02*
X121562762Y-123263866D01*
X121562762Y-123263866D02*
X121753238Y-123263866D01*
X121753238Y-123263866D02*
X121848476Y-123216247D01*
X121848476Y-123216247D02*
X121896095Y-123168628D01*
X121896095Y-123168628D02*
X121943714Y-123073390D01*
X116532819Y-106623857D02*
X116056628Y-106957190D01*
X116532819Y-107195285D02*
X115532819Y-107195285D01*
X115532819Y-107195285D02*
X115532819Y-106814333D01*
X115532819Y-106814333D02*
X115580438Y-106719095D01*
X115580438Y-106719095D02*
X115628057Y-106671476D01*
X115628057Y-106671476D02*
X115723295Y-106623857D01*
X115723295Y-106623857D02*
X115866152Y-106623857D01*
X115866152Y-106623857D02*
X115961390Y-106671476D01*
X115961390Y-106671476D02*
X116009009Y-106719095D01*
X116009009Y-106719095D02*
X116056628Y-106814333D01*
X116056628Y-106814333D02*
X116056628Y-107195285D01*
X115628057Y-106242904D02*
X115580438Y-106195285D01*
X115580438Y-106195285D02*
X115532819Y-106100047D01*
X115532819Y-106100047D02*
X115532819Y-105861952D01*
X115532819Y-105861952D02*
X115580438Y-105766714D01*
X115580438Y-105766714D02*
X115628057Y-105719095D01*
X115628057Y-105719095D02*
X115723295Y-105671476D01*
X115723295Y-105671476D02*
X115818533Y-105671476D01*
X115818533Y-105671476D02*
X115961390Y-105719095D01*
X115961390Y-105719095D02*
X116532819Y-106290523D01*
X116532819Y-106290523D02*
X116532819Y-105671476D01*
X115961390Y-105100047D02*
X115913771Y-105195285D01*
X115913771Y-105195285D02*
X115866152Y-105242904D01*
X115866152Y-105242904D02*
X115770914Y-105290523D01*
X115770914Y-105290523D02*
X115723295Y-105290523D01*
X115723295Y-105290523D02*
X115628057Y-105242904D01*
X115628057Y-105242904D02*
X115580438Y-105195285D01*
X115580438Y-105195285D02*
X115532819Y-105100047D01*
X115532819Y-105100047D02*
X115532819Y-104909571D01*
X115532819Y-104909571D02*
X115580438Y-104814333D01*
X115580438Y-104814333D02*
X115628057Y-104766714D01*
X115628057Y-104766714D02*
X115723295Y-104719095D01*
X115723295Y-104719095D02*
X115770914Y-104719095D01*
X115770914Y-104719095D02*
X115866152Y-104766714D01*
X115866152Y-104766714D02*
X115913771Y-104814333D01*
X115913771Y-104814333D02*
X115961390Y-104909571D01*
X115961390Y-104909571D02*
X115961390Y-105100047D01*
X115961390Y-105100047D02*
X116009009Y-105195285D01*
X116009009Y-105195285D02*
X116056628Y-105242904D01*
X116056628Y-105242904D02*
X116151866Y-105290523D01*
X116151866Y-105290523D02*
X116342342Y-105290523D01*
X116342342Y-105290523D02*
X116437580Y-105242904D01*
X116437580Y-105242904D02*
X116485200Y-105195285D01*
X116485200Y-105195285D02*
X116532819Y-105100047D01*
X116532819Y-105100047D02*
X116532819Y-104909571D01*
X116532819Y-104909571D02*
X116485200Y-104814333D01*
X116485200Y-104814333D02*
X116437580Y-104766714D01*
X116437580Y-104766714D02*
X116342342Y-104719095D01*
X116342342Y-104719095D02*
X116151866Y-104719095D01*
X116151866Y-104719095D02*
X116056628Y-104766714D01*
X116056628Y-104766714D02*
X116009009Y-104814333D01*
X116009009Y-104814333D02*
X115961390Y-104909571D01*
X111117142Y-110944819D02*
X110783809Y-110468628D01*
X110545714Y-110944819D02*
X110545714Y-109944819D01*
X110545714Y-109944819D02*
X110926666Y-109944819D01*
X110926666Y-109944819D02*
X111021904Y-109992438D01*
X111021904Y-109992438D02*
X111069523Y-110040057D01*
X111069523Y-110040057D02*
X111117142Y-110135295D01*
X111117142Y-110135295D02*
X111117142Y-110278152D01*
X111117142Y-110278152D02*
X111069523Y-110373390D01*
X111069523Y-110373390D02*
X111021904Y-110421009D01*
X111021904Y-110421009D02*
X110926666Y-110468628D01*
X110926666Y-110468628D02*
X110545714Y-110468628D01*
X111450476Y-109944819D02*
X112069523Y-109944819D01*
X112069523Y-109944819D02*
X111736190Y-110325771D01*
X111736190Y-110325771D02*
X111879047Y-110325771D01*
X111879047Y-110325771D02*
X111974285Y-110373390D01*
X111974285Y-110373390D02*
X112021904Y-110421009D01*
X112021904Y-110421009D02*
X112069523Y-110516247D01*
X112069523Y-110516247D02*
X112069523Y-110754342D01*
X112069523Y-110754342D02*
X112021904Y-110849580D01*
X112021904Y-110849580D02*
X111974285Y-110897200D01*
X111974285Y-110897200D02*
X111879047Y-110944819D01*
X111879047Y-110944819D02*
X111593333Y-110944819D01*
X111593333Y-110944819D02*
X111498095Y-110897200D01*
X111498095Y-110897200D02*
X111450476Y-110849580D01*
X112688571Y-109944819D02*
X112783809Y-109944819D01*
X112783809Y-109944819D02*
X112879047Y-109992438D01*
X112879047Y-109992438D02*
X112926666Y-110040057D01*
X112926666Y-110040057D02*
X112974285Y-110135295D01*
X112974285Y-110135295D02*
X113021904Y-110325771D01*
X113021904Y-110325771D02*
X113021904Y-110563866D01*
X113021904Y-110563866D02*
X112974285Y-110754342D01*
X112974285Y-110754342D02*
X112926666Y-110849580D01*
X112926666Y-110849580D02*
X112879047Y-110897200D01*
X112879047Y-110897200D02*
X112783809Y-110944819D01*
X112783809Y-110944819D02*
X112688571Y-110944819D01*
X112688571Y-110944819D02*
X112593333Y-110897200D01*
X112593333Y-110897200D02*
X112545714Y-110849580D01*
X112545714Y-110849580D02*
X112498095Y-110754342D01*
X112498095Y-110754342D02*
X112450476Y-110563866D01*
X112450476Y-110563866D02*
X112450476Y-110325771D01*
X112450476Y-110325771D02*
X112498095Y-110135295D01*
X112498095Y-110135295D02*
X112545714Y-110040057D01*
X112545714Y-110040057D02*
X112593333Y-109992438D01*
X112593333Y-109992438D02*
X112688571Y-109944819D01*
X115062095Y-116613819D02*
X115062095Y-117423342D01*
X115062095Y-117423342D02*
X115109714Y-117518580D01*
X115109714Y-117518580D02*
X115157333Y-117566200D01*
X115157333Y-117566200D02*
X115252571Y-117613819D01*
X115252571Y-117613819D02*
X115443047Y-117613819D01*
X115443047Y-117613819D02*
X115538285Y-117566200D01*
X115538285Y-117566200D02*
X115585904Y-117518580D01*
X115585904Y-117518580D02*
X115633523Y-117423342D01*
X115633523Y-117423342D02*
X115633523Y-116613819D01*
X116538285Y-116947152D02*
X116538285Y-117613819D01*
X116300190Y-116566200D02*
X116062095Y-117280485D01*
X116062095Y-117280485D02*
X116681142Y-117280485D01*
X108658819Y-111957857D02*
X108182628Y-112291190D01*
X108658819Y-112529285D02*
X107658819Y-112529285D01*
X107658819Y-112529285D02*
X107658819Y-112148333D01*
X107658819Y-112148333D02*
X107706438Y-112053095D01*
X107706438Y-112053095D02*
X107754057Y-112005476D01*
X107754057Y-112005476D02*
X107849295Y-111957857D01*
X107849295Y-111957857D02*
X107992152Y-111957857D01*
X107992152Y-111957857D02*
X108087390Y-112005476D01*
X108087390Y-112005476D02*
X108135009Y-112053095D01*
X108135009Y-112053095D02*
X108182628Y-112148333D01*
X108182628Y-112148333D02*
X108182628Y-112529285D01*
X107658819Y-111624523D02*
X107658819Y-111005476D01*
X107658819Y-111005476D02*
X108039771Y-111338809D01*
X108039771Y-111338809D02*
X108039771Y-111195952D01*
X108039771Y-111195952D02*
X108087390Y-111100714D01*
X108087390Y-111100714D02*
X108135009Y-111053095D01*
X108135009Y-111053095D02*
X108230247Y-111005476D01*
X108230247Y-111005476D02*
X108468342Y-111005476D01*
X108468342Y-111005476D02*
X108563580Y-111053095D01*
X108563580Y-111053095D02*
X108611200Y-111100714D01*
X108611200Y-111100714D02*
X108658819Y-111195952D01*
X108658819Y-111195952D02*
X108658819Y-111481666D01*
X108658819Y-111481666D02*
X108611200Y-111576904D01*
X108611200Y-111576904D02*
X108563580Y-111624523D01*
X108658819Y-110053095D02*
X108658819Y-110624523D01*
X108658819Y-110338809D02*
X107658819Y-110338809D01*
X107658819Y-110338809D02*
X107801676Y-110434047D01*
X107801676Y-110434047D02*
X107896914Y-110529285D01*
X107896914Y-110529285D02*
X107944533Y-110624523D01*
X112119580Y-107448857D02*
X112167200Y-107496476D01*
X112167200Y-107496476D02*
X112214819Y-107639333D01*
X112214819Y-107639333D02*
X112214819Y-107734571D01*
X112214819Y-107734571D02*
X112167200Y-107877428D01*
X112167200Y-107877428D02*
X112071961Y-107972666D01*
X112071961Y-107972666D02*
X111976723Y-108020285D01*
X111976723Y-108020285D02*
X111786247Y-108067904D01*
X111786247Y-108067904D02*
X111643390Y-108067904D01*
X111643390Y-108067904D02*
X111452914Y-108020285D01*
X111452914Y-108020285D02*
X111357676Y-107972666D01*
X111357676Y-107972666D02*
X111262438Y-107877428D01*
X111262438Y-107877428D02*
X111214819Y-107734571D01*
X111214819Y-107734571D02*
X111214819Y-107639333D01*
X111214819Y-107639333D02*
X111262438Y-107496476D01*
X111262438Y-107496476D02*
X111310057Y-107448857D01*
X112214819Y-106496476D02*
X112214819Y-107067904D01*
X112214819Y-106782190D02*
X111214819Y-106782190D01*
X111214819Y-106782190D02*
X111357676Y-106877428D01*
X111357676Y-106877428D02*
X111452914Y-106972666D01*
X111452914Y-106972666D02*
X111500533Y-107067904D01*
X111214819Y-105639333D02*
X111214819Y-105829809D01*
X111214819Y-105829809D02*
X111262438Y-105925047D01*
X111262438Y-105925047D02*
X111310057Y-105972666D01*
X111310057Y-105972666D02*
X111452914Y-106067904D01*
X111452914Y-106067904D02*
X111643390Y-106115523D01*
X111643390Y-106115523D02*
X112024342Y-106115523D01*
X112024342Y-106115523D02*
X112119580Y-106067904D01*
X112119580Y-106067904D02*
X112167200Y-106020285D01*
X112167200Y-106020285D02*
X112214819Y-105925047D01*
X112214819Y-105925047D02*
X112214819Y-105734571D01*
X112214819Y-105734571D02*
X112167200Y-105639333D01*
X112167200Y-105639333D02*
X112119580Y-105591714D01*
X112119580Y-105591714D02*
X112024342Y-105544095D01*
X112024342Y-105544095D02*
X111786247Y-105544095D01*
X111786247Y-105544095D02*
X111691009Y-105591714D01*
X111691009Y-105591714D02*
X111643390Y-105639333D01*
X111643390Y-105639333D02*
X111595771Y-105734571D01*
X111595771Y-105734571D02*
X111595771Y-105925047D01*
X111595771Y-105925047D02*
X111643390Y-106020285D01*
X111643390Y-106020285D02*
X111691009Y-106067904D01*
X111691009Y-106067904D02*
X111786247Y-106115523D01*
X116754580Y-127642857D02*
X116802200Y-127690476D01*
X116802200Y-127690476D02*
X116849819Y-127833333D01*
X116849819Y-127833333D02*
X116849819Y-127928571D01*
X116849819Y-127928571D02*
X116802200Y-128071428D01*
X116802200Y-128071428D02*
X116706961Y-128166666D01*
X116706961Y-128166666D02*
X116611723Y-128214285D01*
X116611723Y-128214285D02*
X116421247Y-128261904D01*
X116421247Y-128261904D02*
X116278390Y-128261904D01*
X116278390Y-128261904D02*
X116087914Y-128214285D01*
X116087914Y-128214285D02*
X115992676Y-128166666D01*
X115992676Y-128166666D02*
X115897438Y-128071428D01*
X115897438Y-128071428D02*
X115849819Y-127928571D01*
X115849819Y-127928571D02*
X115849819Y-127833333D01*
X115849819Y-127833333D02*
X115897438Y-127690476D01*
X115897438Y-127690476D02*
X115945057Y-127642857D01*
X116849819Y-126690476D02*
X116849819Y-127261904D01*
X116849819Y-126976190D02*
X115849819Y-126976190D01*
X115849819Y-126976190D02*
X115992676Y-127071428D01*
X115992676Y-127071428D02*
X116087914Y-127166666D01*
X116087914Y-127166666D02*
X116135533Y-127261904D01*
X115849819Y-126357142D02*
X115849819Y-125738095D01*
X115849819Y-125738095D02*
X116230771Y-126071428D01*
X116230771Y-126071428D02*
X116230771Y-125928571D01*
X116230771Y-125928571D02*
X116278390Y-125833333D01*
X116278390Y-125833333D02*
X116326009Y-125785714D01*
X116326009Y-125785714D02*
X116421247Y-125738095D01*
X116421247Y-125738095D02*
X116659342Y-125738095D01*
X116659342Y-125738095D02*
X116754580Y-125785714D01*
X116754580Y-125785714D02*
X116802200Y-125833333D01*
X116802200Y-125833333D02*
X116849819Y-125928571D01*
X116849819Y-125928571D02*
X116849819Y-126214285D01*
X116849819Y-126214285D02*
X116802200Y-126309523D01*
X116802200Y-126309523D02*
X116754580Y-126357142D01*
X123803580Y-121832666D02*
X123851200Y-121880285D01*
X123851200Y-121880285D02*
X123898819Y-122023142D01*
X123898819Y-122023142D02*
X123898819Y-122118380D01*
X123898819Y-122118380D02*
X123851200Y-122261237D01*
X123851200Y-122261237D02*
X123755961Y-122356475D01*
X123755961Y-122356475D02*
X123660723Y-122404094D01*
X123660723Y-122404094D02*
X123470247Y-122451713D01*
X123470247Y-122451713D02*
X123327390Y-122451713D01*
X123327390Y-122451713D02*
X123136914Y-122404094D01*
X123136914Y-122404094D02*
X123041676Y-122356475D01*
X123041676Y-122356475D02*
X122946438Y-122261237D01*
X122946438Y-122261237D02*
X122898819Y-122118380D01*
X122898819Y-122118380D02*
X122898819Y-122023142D01*
X122898819Y-122023142D02*
X122946438Y-121880285D01*
X122946438Y-121880285D02*
X122994057Y-121832666D01*
X123327390Y-121261237D02*
X123279771Y-121356475D01*
X123279771Y-121356475D02*
X123232152Y-121404094D01*
X123232152Y-121404094D02*
X123136914Y-121451713D01*
X123136914Y-121451713D02*
X123089295Y-121451713D01*
X123089295Y-121451713D02*
X122994057Y-121404094D01*
X122994057Y-121404094D02*
X122946438Y-121356475D01*
X122946438Y-121356475D02*
X122898819Y-121261237D01*
X122898819Y-121261237D02*
X122898819Y-121070761D01*
X122898819Y-121070761D02*
X122946438Y-120975523D01*
X122946438Y-120975523D02*
X122994057Y-120927904D01*
X122994057Y-120927904D02*
X123089295Y-120880285D01*
X123089295Y-120880285D02*
X123136914Y-120880285D01*
X123136914Y-120880285D02*
X123232152Y-120927904D01*
X123232152Y-120927904D02*
X123279771Y-120975523D01*
X123279771Y-120975523D02*
X123327390Y-121070761D01*
X123327390Y-121070761D02*
X123327390Y-121261237D01*
X123327390Y-121261237D02*
X123375009Y-121356475D01*
X123375009Y-121356475D02*
X123422628Y-121404094D01*
X123422628Y-121404094D02*
X123517866Y-121451713D01*
X123517866Y-121451713D02*
X123708342Y-121451713D01*
X123708342Y-121451713D02*
X123803580Y-121404094D01*
X123803580Y-121404094D02*
X123851200Y-121356475D01*
X123851200Y-121356475D02*
X123898819Y-121261237D01*
X123898819Y-121261237D02*
X123898819Y-121070761D01*
X123898819Y-121070761D02*
X123851200Y-120975523D01*
X123851200Y-120975523D02*
X123803580Y-120927904D01*
X123803580Y-120927904D02*
X123708342Y-120880285D01*
X123708342Y-120880285D02*
X123517866Y-120880285D01*
X123517866Y-120880285D02*
X123422628Y-120927904D01*
X123422628Y-120927904D02*
X123375009Y-120975523D01*
X123375009Y-120975523D02*
X123327390Y-121070761D01*
X84368819Y-130913666D02*
X83892628Y-131246999D01*
X84368819Y-131485094D02*
X83368819Y-131485094D01*
X83368819Y-131485094D02*
X83368819Y-131104142D01*
X83368819Y-131104142D02*
X83416438Y-131008904D01*
X83416438Y-131008904D02*
X83464057Y-130961285D01*
X83464057Y-130961285D02*
X83559295Y-130913666D01*
X83559295Y-130913666D02*
X83702152Y-130913666D01*
X83702152Y-130913666D02*
X83797390Y-130961285D01*
X83797390Y-130961285D02*
X83845009Y-131008904D01*
X83845009Y-131008904D02*
X83892628Y-131104142D01*
X83892628Y-131104142D02*
X83892628Y-131485094D01*
X83368819Y-130056523D02*
X83368819Y-130246999D01*
X83368819Y-130246999D02*
X83416438Y-130342237D01*
X83416438Y-130342237D02*
X83464057Y-130389856D01*
X83464057Y-130389856D02*
X83606914Y-130485094D01*
X83606914Y-130485094D02*
X83797390Y-130532713D01*
X83797390Y-130532713D02*
X84178342Y-130532713D01*
X84178342Y-130532713D02*
X84273580Y-130485094D01*
X84273580Y-130485094D02*
X84321200Y-130437475D01*
X84321200Y-130437475D02*
X84368819Y-130342237D01*
X84368819Y-130342237D02*
X84368819Y-130151761D01*
X84368819Y-130151761D02*
X84321200Y-130056523D01*
X84321200Y-130056523D02*
X84273580Y-130008904D01*
X84273580Y-130008904D02*
X84178342Y-129961285D01*
X84178342Y-129961285D02*
X83940247Y-129961285D01*
X83940247Y-129961285D02*
X83845009Y-130008904D01*
X83845009Y-130008904D02*
X83797390Y-130056523D01*
X83797390Y-130056523D02*
X83749771Y-130151761D01*
X83749771Y-130151761D02*
X83749771Y-130342237D01*
X83749771Y-130342237D02*
X83797390Y-130437475D01*
X83797390Y-130437475D02*
X83845009Y-130485094D01*
X83845009Y-130485094D02*
X83940247Y-130532713D01*
X84368819Y-134977666D02*
X83892628Y-135310999D01*
X84368819Y-135549094D02*
X83368819Y-135549094D01*
X83368819Y-135549094D02*
X83368819Y-135168142D01*
X83368819Y-135168142D02*
X83416438Y-135072904D01*
X83416438Y-135072904D02*
X83464057Y-135025285D01*
X83464057Y-135025285D02*
X83559295Y-134977666D01*
X83559295Y-134977666D02*
X83702152Y-134977666D01*
X83702152Y-134977666D02*
X83797390Y-135025285D01*
X83797390Y-135025285D02*
X83845009Y-135072904D01*
X83845009Y-135072904D02*
X83892628Y-135168142D01*
X83892628Y-135168142D02*
X83892628Y-135549094D01*
X83368819Y-134644332D02*
X83368819Y-133977666D01*
X83368819Y-133977666D02*
X84368819Y-134406237D01*
X110182819Y-137077666D02*
X109706628Y-137410999D01*
X110182819Y-137649094D02*
X109182819Y-137649094D01*
X109182819Y-137649094D02*
X109182819Y-137268142D01*
X109182819Y-137268142D02*
X109230438Y-137172904D01*
X109230438Y-137172904D02*
X109278057Y-137125285D01*
X109278057Y-137125285D02*
X109373295Y-137077666D01*
X109373295Y-137077666D02*
X109516152Y-137077666D01*
X109516152Y-137077666D02*
X109611390Y-137125285D01*
X109611390Y-137125285D02*
X109659009Y-137172904D01*
X109659009Y-137172904D02*
X109706628Y-137268142D01*
X109706628Y-137268142D02*
X109706628Y-137649094D01*
X109611390Y-136506237D02*
X109563771Y-136601475D01*
X109563771Y-136601475D02*
X109516152Y-136649094D01*
X109516152Y-136649094D02*
X109420914Y-136696713D01*
X109420914Y-136696713D02*
X109373295Y-136696713D01*
X109373295Y-136696713D02*
X109278057Y-136649094D01*
X109278057Y-136649094D02*
X109230438Y-136601475D01*
X109230438Y-136601475D02*
X109182819Y-136506237D01*
X109182819Y-136506237D02*
X109182819Y-136315761D01*
X109182819Y-136315761D02*
X109230438Y-136220523D01*
X109230438Y-136220523D02*
X109278057Y-136172904D01*
X109278057Y-136172904D02*
X109373295Y-136125285D01*
X109373295Y-136125285D02*
X109420914Y-136125285D01*
X109420914Y-136125285D02*
X109516152Y-136172904D01*
X109516152Y-136172904D02*
X109563771Y-136220523D01*
X109563771Y-136220523D02*
X109611390Y-136315761D01*
X109611390Y-136315761D02*
X109611390Y-136506237D01*
X109611390Y-136506237D02*
X109659009Y-136601475D01*
X109659009Y-136601475D02*
X109706628Y-136649094D01*
X109706628Y-136649094D02*
X109801866Y-136696713D01*
X109801866Y-136696713D02*
X109992342Y-136696713D01*
X109992342Y-136696713D02*
X110087580Y-136649094D01*
X110087580Y-136649094D02*
X110135200Y-136601475D01*
X110135200Y-136601475D02*
X110182819Y-136506237D01*
X110182819Y-136506237D02*
X110182819Y-136315761D01*
X110182819Y-136315761D02*
X110135200Y-136220523D01*
X110135200Y-136220523D02*
X110087580Y-136172904D01*
X110087580Y-136172904D02*
X109992342Y-136125285D01*
X109992342Y-136125285D02*
X109801866Y-136125285D01*
X109801866Y-136125285D02*
X109706628Y-136172904D01*
X109706628Y-136172904D02*
X109659009Y-136220523D01*
X109659009Y-136220523D02*
X109611390Y-136315761D01*
D11*
%TO.C,U1*%
X86554000Y-135238000D02*
X106994000Y-135238000D01*
X106994000Y-135238000D02*
X106994000Y-129938000D01*
X86554000Y-133588000D02*
X86554000Y-135238000D01*
X86554000Y-129938000D02*
X86554000Y-131588000D01*
X106994000Y-129938000D02*
X86554000Y-129938000D01*
X86554000Y-131588000D02*
G75*
G02*
X86554000Y-133588000I0J-1000000D01*
G01*
%TO.C,U5*%
X94488000Y-114534000D02*
X92538000Y-114534000D01*
X94488000Y-114534000D02*
X96438000Y-114534000D01*
X94488000Y-119654000D02*
X92538000Y-119654000D01*
X94488000Y-119654000D02*
X96438000Y-119654000D01*
X91788000Y-114629000D02*
X91548000Y-114299000D01*
X92028000Y-114299000D01*
X91788000Y-114629000D01*
G36*
X91788000Y-114629000D02*
G01*
X91548000Y-114299000D01*
X92028000Y-114299000D01*
X91788000Y-114629000D01*
G37*
%TO.C,J7*%
X98107000Y-100207000D02*
X121027000Y-100207000D01*
X121027000Y-102867000D02*
X121027000Y-100207000D01*
X98107000Y-102867000D02*
X98107000Y-100207000D01*
X98107000Y-102867000D02*
X121027000Y-102867000D01*
X96837000Y-102867000D02*
X95507000Y-102867000D01*
X95507000Y-102867000D02*
X95507000Y-101537000D01*
%TO.C,C19*%
X103713000Y-139116000D02*
X103713000Y-143026000D01*
X105583000Y-143026000D02*
X105583000Y-139116000D01*
X103713000Y-143026000D02*
X105583000Y-143026000D01*
%TO.C,C18*%
X103713000Y-144196000D02*
X103713000Y-148106000D01*
X105583000Y-148106000D02*
X105583000Y-144196000D01*
X103713000Y-148106000D02*
X105583000Y-148106000D01*
%TO.C,J1*%
X91913000Y-145348000D02*
X94573000Y-145348000D01*
X91913000Y-145348000D02*
X91913000Y-142748000D01*
X94573000Y-145348000D02*
X94573000Y-140148000D01*
X91913000Y-142748000D02*
X94513000Y-142748000D01*
X94513000Y-142748000D02*
X94513000Y-140148000D01*
X91913000Y-141478000D02*
X91913000Y-140148000D01*
X91913000Y-140148000D02*
X93243000Y-140148000D01*
X94513000Y-140148000D02*
X94573000Y-140148000D01*
%TO.C,C17*%
X97466500Y-147693500D02*
X97466500Y-146906000D01*
X97072750Y-147299750D02*
X97860250Y-147299750D01*
X96968437Y-146666000D02*
X98254000Y-146666000D01*
X96968437Y-146666000D02*
X95904000Y-145601563D01*
X101659563Y-146666000D02*
X100374000Y-146666000D01*
X101659563Y-146666000D02*
X102724000Y-145601563D01*
X95904000Y-145601563D02*
X95904000Y-139846000D01*
X102724000Y-145601563D02*
X102724000Y-139846000D01*
X95904000Y-139846000D02*
X98254000Y-139846000D01*
X102724000Y-139846000D02*
X100374000Y-139846000D01*
%TO.C,R33*%
X94313742Y-146797500D02*
X94788258Y-146797500D01*
X94313742Y-147842500D02*
X94788258Y-147842500D01*
%TO.C,R35*%
X106665500Y-141303742D02*
X106665500Y-141778258D01*
X107710500Y-141303742D02*
X107710500Y-141778258D01*
%TO.C,R34*%
X106665500Y-144605742D02*
X106665500Y-145080258D01*
X107710500Y-144605742D02*
X107710500Y-145080258D01*
%TO.C,R32*%
X105903500Y-105743742D02*
X105903500Y-106218258D01*
X106948500Y-105743742D02*
X106948500Y-106218258D01*
%TO.C,R36*%
X94981500Y-124506258D02*
X94981500Y-124031742D01*
X96026500Y-124506258D02*
X96026500Y-124031742D01*
%TO.C,R2*%
X99838742Y-114476500D02*
X100313258Y-114476500D01*
X99838742Y-115521500D02*
X100313258Y-115521500D01*
%TO.C,R4*%
X92219258Y-121553500D02*
X91744742Y-121553500D01*
X92219258Y-120508500D02*
X91744742Y-120508500D01*
%TO.C,Q3*%
X91107500Y-122519000D02*
X90457500Y-122519000D01*
X91107500Y-122519000D02*
X91757500Y-122519000D01*
X91107500Y-125639000D02*
X90457500Y-125639000D01*
X91107500Y-125639000D02*
X91757500Y-125639000D01*
X89945000Y-122569000D02*
X89705000Y-122239000D01*
X90185000Y-122239000D01*
X89945000Y-122569000D01*
G36*
X89945000Y-122569000D02*
G01*
X89705000Y-122239000D01*
X90185000Y-122239000D01*
X89945000Y-122569000D01*
G37*
%TO.C,U3*%
X94234000Y-105961000D02*
X92284000Y-105961000D01*
X94234000Y-105961000D02*
X96184000Y-105961000D01*
X94234000Y-111081000D02*
X92284000Y-111081000D01*
X94234000Y-111081000D02*
X96184000Y-111081000D01*
X91534000Y-106056000D02*
X91294000Y-105726000D01*
X91774000Y-105726000D01*
X91534000Y-106056000D01*
G36*
X91534000Y-106056000D02*
G01*
X91294000Y-105726000D01*
X91774000Y-105726000D01*
X91534000Y-106056000D01*
G37*
%TO.C,Q4*%
X97454500Y-122695000D02*
X97214500Y-122365000D01*
X97694500Y-122365000D01*
X97454500Y-122695000D01*
G36*
X97454500Y-122695000D02*
G01*
X97214500Y-122365000D01*
X97694500Y-122365000D01*
X97454500Y-122695000D01*
G37*
X98617000Y-125765000D02*
X99267000Y-125765000D01*
X98617000Y-125765000D02*
X97967000Y-125765000D01*
X98617000Y-122645000D02*
X99267000Y-122645000D01*
X98617000Y-122645000D02*
X97967000Y-122645000D01*
%TO.C,C22*%
X101396500Y-123713742D02*
X101396500Y-124188258D01*
X102441500Y-123713742D02*
X102441500Y-124188258D01*
%TO.C,R23*%
X119363258Y-125524500D02*
X118888742Y-125524500D01*
X119363258Y-126569500D02*
X118888742Y-126569500D01*
%TO.C,R22*%
X122919258Y-124254500D02*
X122444742Y-124254500D01*
X122919258Y-125299500D02*
X122444742Y-125299500D01*
%TO.C,C7*%
X123109000Y-114530000D02*
X121239000Y-114530000D01*
X121239000Y-114530000D02*
X121239000Y-118440000D01*
X123109000Y-118440000D02*
X123109000Y-114530000D01*
%TO.C,RV3*%
X124376000Y-117106000D02*
X124376000Y-121846000D01*
X124376000Y-117106000D02*
X124686000Y-117106000D01*
X124376000Y-121846000D02*
X125476000Y-121846000D01*
X126506000Y-117106000D02*
X126986000Y-117106000D01*
X128006000Y-121846000D02*
X129116000Y-121846000D01*
X128806000Y-117106000D02*
X129116000Y-117106000D01*
X129116000Y-117106000D02*
X129116000Y-121846000D01*
%TO.C,R16*%
X98840758Y-121679500D02*
X98366242Y-121679500D01*
X98840758Y-120634500D02*
X98366242Y-120634500D01*
%TO.C,R13*%
X98856500Y-108250258D02*
X98856500Y-107775742D01*
X99901500Y-108250258D02*
X99901500Y-107775742D01*
%TO.C,C1*%
X88631500Y-116061258D02*
X88631500Y-115586742D01*
X89676500Y-116061258D02*
X89676500Y-115586742D01*
%TO.C,R1*%
X98791500Y-117809742D02*
X98791500Y-118284258D01*
X99836500Y-117809742D02*
X99836500Y-118284258D01*
%TO.C,R9*%
X100313258Y-104696500D02*
X99838742Y-104696500D01*
X100313258Y-105741500D02*
X99838742Y-105741500D01*
%TO.C,R14*%
X96282742Y-111745500D02*
X96757258Y-111745500D01*
X96282742Y-112790500D02*
X96757258Y-112790500D01*
%TO.C,R15*%
X101744742Y-106728500D02*
X102219258Y-106728500D01*
X101744742Y-107773500D02*
X102219258Y-107773500D01*
%TO.C,C2*%
X103459742Y-104696500D02*
X103934258Y-104696500D01*
X103459742Y-105741500D02*
X103934258Y-105741500D01*
%TO.C,R12*%
X93996742Y-104188500D02*
X94471258Y-104188500D01*
X93996742Y-105233500D02*
X94471258Y-105233500D01*
%TO.C,C3*%
X88631500Y-109711258D02*
X88631500Y-109236742D01*
X89676500Y-109711258D02*
X89676500Y-109236742D01*
%TO.C,R10*%
X93455258Y-112790500D02*
X92980742Y-112790500D01*
X93455258Y-111745500D02*
X92980742Y-111745500D01*
%TO.C,C20*%
X100313258Y-110538500D02*
X99838742Y-110538500D01*
X100313258Y-111583500D02*
X99838742Y-111583500D01*
%TO.C,R5*%
X89422500Y-119871258D02*
X89422500Y-119396742D01*
X88377500Y-119871258D02*
X88377500Y-119396742D01*
%TO.C,C5*%
X120918500Y-105680742D02*
X120918500Y-106155258D01*
X119873500Y-105680742D02*
X119873500Y-106155258D01*
%TO.C,C11*%
X109234500Y-122572742D02*
X109234500Y-123047258D01*
X108189500Y-122572742D02*
X108189500Y-123047258D01*
%TO.C,C14*%
X110663000Y-119838000D02*
X110663000Y-115928000D01*
X110663000Y-115928000D02*
X108793000Y-115928000D01*
X108793000Y-115928000D02*
X108793000Y-119838000D01*
%TO.C,R18*%
X120918500Y-111235258D02*
X120918500Y-110760742D01*
X119873500Y-111235258D02*
X119873500Y-110760742D01*
%TO.C,R29*%
X114379742Y-110313500D02*
X114854258Y-110313500D01*
X114379742Y-109268500D02*
X114854258Y-109268500D01*
%TO.C,C10*%
X116094742Y-122570500D02*
X116569258Y-122570500D01*
X116094742Y-121525500D02*
X116569258Y-121525500D01*
%TO.C,R20*%
X123458500Y-109400045D02*
X123458500Y-108925529D01*
X122413500Y-109400045D02*
X122413500Y-108925529D01*
%TO.C,R19*%
X123998258Y-112345500D02*
X123523742Y-112345500D01*
X123998258Y-111300500D02*
X123523742Y-111300500D01*
%TO.C,R21*%
X126729258Y-125299500D02*
X126254742Y-125299500D01*
X126729258Y-124254500D02*
X126254742Y-124254500D01*
%TO.C,R27*%
X106919500Y-118918258D02*
X106919500Y-118443742D01*
X107964500Y-118918258D02*
X107964500Y-118443742D01*
%TO.C,C21*%
X126983258Y-114539500D02*
X126508742Y-114539500D01*
X126983258Y-115584500D02*
X126508742Y-115584500D01*
%TO.C,R17*%
X119396742Y-108980500D02*
X119871258Y-108980500D01*
X119396742Y-107935500D02*
X119871258Y-107935500D01*
%TO.C,C12*%
X112790500Y-122572742D02*
X112790500Y-123047258D01*
X111745500Y-122572742D02*
X111745500Y-123047258D01*
%TO.C,C15*%
X116094742Y-112345500D02*
X116569258Y-112345500D01*
X116094742Y-111300500D02*
X116569258Y-111300500D01*
%TO.C,C6*%
X125967258Y-108789500D02*
X125492742Y-108789500D01*
X125967258Y-107744500D02*
X125492742Y-107744500D01*
%TO.C,R26*%
X113300742Y-127268500D02*
X113775258Y-127268500D01*
X113300742Y-126223500D02*
X113775258Y-126223500D01*
%TO.C,R24*%
X107681500Y-131872258D02*
X107681500Y-131397742D01*
X108726500Y-131872258D02*
X108726500Y-131397742D01*
%TO.C,R25*%
X109490742Y-126823500D02*
X109965258Y-126823500D01*
X109490742Y-125778500D02*
X109965258Y-125778500D01*
%TO.C,C9*%
X120156500Y-122507742D02*
X120156500Y-122982258D01*
X119111500Y-122507742D02*
X119111500Y-122982258D01*
%TO.C,R28*%
X115076500Y-106218258D02*
X115076500Y-105743742D01*
X114031500Y-106218258D02*
X114031500Y-105743742D01*
%TO.C,R30*%
X112538742Y-112345500D02*
X113013258Y-112345500D01*
X112538742Y-111300500D02*
X113013258Y-111300500D01*
%TO.C,U4*%
X120524000Y-114699000D02*
X120194000Y-114459000D01*
X120524000Y-114219000D01*
X120524000Y-114699000D01*
G36*
X120524000Y-114699000D02*
G01*
X120194000Y-114459000D01*
X120524000Y-114219000D01*
X120524000Y-114699000D01*
G37*
X120259000Y-117159000D02*
X120259000Y-119109000D01*
X120259000Y-117159000D02*
X120259000Y-115209000D01*
X111389000Y-117159000D02*
X111389000Y-119109000D01*
X111389000Y-117159000D02*
X111389000Y-115209000D01*
%TO.C,R31*%
X110250500Y-111077742D02*
X110250500Y-111552258D01*
X109205500Y-111077742D02*
X109205500Y-111552258D01*
%TO.C,C16*%
X110917000Y-109053000D02*
X110917000Y-105143000D01*
X109047000Y-109053000D02*
X110917000Y-109053000D01*
X109047000Y-105143000D02*
X109047000Y-109053000D01*
%TO.C,C13*%
X115553258Y-125236500D02*
X115078742Y-125236500D01*
X115553258Y-124191500D02*
X115078742Y-124191500D01*
%TO.C,C8*%
X122442500Y-120729742D02*
X122442500Y-121204258D01*
X121397500Y-120729742D02*
X121397500Y-121204258D01*
%TO.C,R6*%
X84821500Y-130984258D02*
X84821500Y-130509742D01*
X85866500Y-130984258D02*
X85866500Y-130509742D01*
%TO.C,R7*%
X84821500Y-135048258D02*
X84821500Y-134573742D01*
X85866500Y-135048258D02*
X85866500Y-134573742D01*
%TO.C,R8*%
X107427500Y-137148258D02*
X107427500Y-136673742D01*
X108472500Y-137148258D02*
X108472500Y-136673742D01*
%TD*%
M02*
