M48
; DRILL file {KiCad 9.0.0} date 2025-04-26T19:09:06+0200
; FORMAT={-:-/ absolute / metric / decimal}
; #@! TF.CreationDate,2025-04-26T19:09:06+02:00
; #@! TF.GenerationSoftware,Kicad,Pcbnew,9.0.0
; #@! TF.FileFunction,Plated,1,2,PTH
FMAT,2
METRIC
; #@! TA.AperFunction,Plated,PTH,ViaDrill
T1C0.300
; #@! TA.AperFunction,Plated,PTH,ComponentDrill
T2C0.800
; #@! TA.AperFunction,Plated,PTH,ComponentDrill
T3C1.000
%
G90
G05
T1
X87.376Y-116.332
X89.662Y-111.76
X90.17Y-126.492
X102.806Y-109.156
X104.71Y-121.985
X106.426Y-108.204
X114.046Y-131.572
X116.141Y-126.429
X123.444Y-120.142
X127.508Y-112.268
T2
X87.884Y-128.778
X87.884Y-136.398
X90.424Y-128.778
X90.424Y-136.398
X103.124Y-128.778
X103.124Y-136.398
X105.664Y-128.778
X105.664Y-136.398
T3
X93.243Y-141.478
X93.243Y-144.018
X96.837Y-101.537
X99.377Y-101.537
X101.917Y-101.537
X104.457Y-101.537
X106.997Y-101.537
X109.537Y-101.537
X112.077Y-101.537
X114.617Y-101.537
X117.157Y-101.537
X119.697Y-101.537
M30
