%TF.GenerationSoftware,KiCad,Pcbnew,9.0.0*%
%TF.CreationDate,2025-04-27T22:02:36+02:00*%
%TF.ProjectId,chorus,63686f72-7573-42e6-9b69-6361645f7063,rev?*%
%TF.SameCoordinates,Original*%
%TF.FileFunction,Soldermask,Top*%
%TF.FilePolarity,Negative*%
%FSLAX46Y46*%
G04 Gerber Fmt 4.6, Leading zero omitted, Abs format (unit mm)*
G04 Created by KiCad (PCBNEW 9.0.0) date 2025-04-27 22:02:36*
%MOMM*%
%LPD*%
G01*
G04 APERTURE LIST*
G04 Aperture macros list*
%AMRoundRect*
0 Rectangle with rounded corners*
0 $1 Rounding radius*
0 $2 $3 $4 $5 $6 $7 $8 $9 X,Y pos of 4 corners*
0 Add a 4 corners polygon primitive as box body*
4,1,4,$2,$3,$4,$5,$6,$7,$8,$9,$2,$3,0*
0 Add four circle primitives for the rounded corners*
1,1,$1+$1,$2,$3*
1,1,$1+$1,$4,$5*
1,1,$1+$1,$6,$7*
1,1,$1+$1,$8,$9*
0 Add four rect primitives between the rounded corners*
20,1,$1+$1,$2,$3,$4,$5,0*
20,1,$1+$1,$4,$5,$6,$7,0*
20,1,$1+$1,$6,$7,$8,$9,0*
20,1,$1+$1,$8,$9,$2,$3,0*%
G04 Aperture macros list end*
%ADD10C,1.300000*%
%ADD11RoundRect,0.250000X0.650000X-0.325000X0.650000X0.325000X-0.650000X0.325000X-0.650000X-0.325000X0*%
%ADD12RoundRect,0.200000X0.275000X-0.200000X0.275000X0.200000X-0.275000X0.200000X-0.275000X-0.200000X0*%
%ADD13RoundRect,0.250000X0.425000X-0.450000X0.425000X0.450000X-0.425000X0.450000X-0.425000X-0.450000X0*%
%ADD14RoundRect,0.200000X-0.275000X0.200000X-0.275000X-0.200000X0.275000X-0.200000X0.275000X0.200000X0*%
%ADD15RoundRect,0.150000X-0.150000X0.825000X-0.150000X-0.825000X0.150000X-0.825000X0.150000X0.825000X0*%
%ADD16RoundRect,0.200000X-0.200000X-0.275000X0.200000X-0.275000X0.200000X0.275000X-0.200000X0.275000X0*%
%ADD17RoundRect,0.200000X0.200000X0.275000X-0.200000X0.275000X-0.200000X-0.275000X0.200000X-0.275000X0*%
%ADD18RoundRect,0.250000X-0.425000X0.450000X-0.425000X-0.450000X0.425000X-0.450000X0.425000X0.450000X0*%
%ADD19RoundRect,0.250000X-0.400000X-0.750000X0.400000X-0.750000X0.400000X0.750000X-0.400000X0.750000X0*%
%ADD20RoundRect,0.250000X-0.750000X-0.750000X0.750000X-0.750000X0.750000X0.750000X-0.750000X0.750000X0*%
%ADD21RoundRect,0.150000X-0.587500X-0.150000X0.587500X-0.150000X0.587500X0.150000X-0.587500X0.150000X0*%
%ADD22RoundRect,0.150000X-0.825000X-0.150000X0.825000X-0.150000X0.825000X0.150000X-0.825000X0.150000X0*%
%ADD23RoundRect,0.250000X0.550000X-1.500000X0.550000X1.500000X-0.550000X1.500000X-0.550000X-1.500000X0*%
%ADD24O,1.700000X1.700000*%
%ADD25R,1.700000X1.700000*%
%ADD26C,1.600000*%
%ADD27RoundRect,0.250000X0.550000X-0.550000X0.550000X0.550000X-0.550000X0.550000X-0.550000X-0.550000X0*%
%ADD28RoundRect,0.225000X-0.250000X0.225000X-0.250000X-0.225000X0.250000X-0.225000X0.250000X0.225000X0*%
%ADD29RoundRect,0.225000X-0.225000X-0.250000X0.225000X-0.250000X0.225000X0.250000X-0.225000X0.250000X0*%
%ADD30RoundRect,0.225000X0.225000X0.250000X-0.225000X0.250000X-0.225000X-0.250000X0.225000X-0.250000X0*%
G04 APERTURE END LIST*
D10*
%TO.C,REF\u002A\u002A*%
X127000000Y-101600000D03*
%TD*%
%TO.C,REF\u002A\u002A*%
X83820000Y-147320000D03*
%TD*%
D11*
%TO.C,C19*%
X104648000Y-142191000D03*
X104648000Y-139241000D03*
%TD*%
%TO.C,C18*%
X104648000Y-147271000D03*
X104648000Y-144321000D03*
%TD*%
D12*
%TO.C,R8*%
X107950000Y-136086000D03*
X107950000Y-137736000D03*
%TD*%
%TO.C,R7*%
X85344000Y-133986000D03*
X85344000Y-135636000D03*
%TD*%
%TO.C,R6*%
X85344000Y-129922000D03*
X85344000Y-131572000D03*
%TD*%
D13*
%TO.C,C16*%
X109982000Y-108093000D03*
X109982000Y-105393000D03*
%TD*%
D14*
%TO.C,R31*%
X109728000Y-110490000D03*
X109728000Y-112140000D03*
%TD*%
D15*
%TO.C,U4*%
X119634000Y-114684000D03*
X118364000Y-114684000D03*
X117094000Y-114684000D03*
X115824000Y-114684000D03*
X114554000Y-114684000D03*
X113284000Y-114684000D03*
X112014000Y-114684000D03*
X112014000Y-119634000D03*
X113284000Y-119634000D03*
X114554000Y-119634000D03*
X115824000Y-119634000D03*
X117094000Y-119634000D03*
X118364000Y-119634000D03*
X119634000Y-119634000D03*
%TD*%
D16*
%TO.C,R30*%
X111951000Y-111823000D03*
X113601000Y-111823000D03*
%TD*%
D12*
%TO.C,R28*%
X114554000Y-106806000D03*
X114554000Y-105156000D03*
%TD*%
D16*
%TO.C,R25*%
X108903000Y-126301000D03*
X110553000Y-126301000D03*
%TD*%
D12*
%TO.C,R24*%
X108204000Y-132460000D03*
X108204000Y-130810000D03*
%TD*%
D16*
%TO.C,R26*%
X112713000Y-126746000D03*
X114363000Y-126746000D03*
%TD*%
D17*
%TO.C,C6*%
X126555000Y-108267000D03*
X124905000Y-108267000D03*
%TD*%
D16*
%TO.C,R17*%
X118809000Y-108458000D03*
X120459000Y-108458000D03*
%TD*%
D12*
%TO.C,R27*%
X107442000Y-119506000D03*
X107442000Y-117856000D03*
%TD*%
D17*
%TO.C,R21*%
X127317000Y-124777000D03*
X125667000Y-124777000D03*
%TD*%
%TO.C,R19*%
X124586000Y-111823000D03*
X122936000Y-111823000D03*
%TD*%
D12*
%TO.C,R20*%
X122936000Y-109987787D03*
X122936000Y-108337787D03*
%TD*%
D16*
%TO.C,R29*%
X113792000Y-109791000D03*
X115442000Y-109791000D03*
%TD*%
D12*
%TO.C,R18*%
X120396000Y-111823000D03*
X120396000Y-110173000D03*
%TD*%
D18*
%TO.C,C14*%
X109728000Y-116888000D03*
X109728000Y-119588000D03*
%TD*%
D14*
%TO.C,C5*%
X120396000Y-105093000D03*
X120396000Y-106743000D03*
%TD*%
D12*
%TO.C,R5*%
X88900000Y-118809000D03*
X88900000Y-120459000D03*
%TD*%
D17*
%TO.C,R10*%
X92393000Y-112268000D03*
X94043000Y-112268000D03*
%TD*%
D12*
%TO.C,C3*%
X89154000Y-108649000D03*
X89154000Y-110299000D03*
%TD*%
D16*
%TO.C,R12*%
X95059000Y-104711000D03*
X93409000Y-104711000D03*
%TD*%
%TO.C,C2*%
X104522000Y-105219000D03*
X102872000Y-105219000D03*
%TD*%
%TO.C,R15*%
X102807000Y-107251000D03*
X101157000Y-107251000D03*
%TD*%
%TO.C,R14*%
X97345000Y-112268000D03*
X95695000Y-112268000D03*
%TD*%
D17*
%TO.C,R9*%
X99251000Y-105219000D03*
X100901000Y-105219000D03*
%TD*%
D14*
%TO.C,R1*%
X99314000Y-118872000D03*
X99314000Y-117222000D03*
%TD*%
D12*
%TO.C,C1*%
X89154000Y-114999000D03*
X89154000Y-116649000D03*
%TD*%
%TO.C,R13*%
X99379000Y-107188000D03*
X99379000Y-108838000D03*
%TD*%
D17*
%TO.C,R16*%
X99428500Y-121157000D03*
X97778500Y-121157000D03*
%TD*%
D19*
%TO.C,RV3*%
X127896000Y-117476000D03*
D20*
X126746000Y-121476000D03*
D19*
X125596000Y-117476000D03*
%TD*%
D18*
%TO.C,C7*%
X122174000Y-118190000D03*
X122174000Y-115490000D03*
%TD*%
D17*
%TO.C,R22*%
X121857000Y-124777000D03*
X123507000Y-124777000D03*
%TD*%
%TO.C,R23*%
X118301000Y-126047000D03*
X119951000Y-126047000D03*
%TD*%
D21*
%TO.C,Q4*%
X97679500Y-123255000D03*
X97679500Y-125155000D03*
X99554500Y-124205000D03*
%TD*%
D22*
%TO.C,U3*%
X96709000Y-106616000D03*
X96709000Y-107886000D03*
X96709000Y-109156000D03*
X96709000Y-110426000D03*
X91759000Y-110426000D03*
X91759000Y-109156000D03*
X91759000Y-107886000D03*
X91759000Y-106616000D03*
%TD*%
D21*
%TO.C,Q3*%
X92045000Y-124079000D03*
X90170000Y-125029000D03*
X90170000Y-123129000D03*
%TD*%
D17*
%TO.C,R4*%
X92807000Y-121031000D03*
X91157000Y-121031000D03*
%TD*%
D16*
%TO.C,R2*%
X100901000Y-114999000D03*
X99251000Y-114999000D03*
%TD*%
D12*
%TO.C,R36*%
X95504000Y-123444000D03*
X95504000Y-125094000D03*
%TD*%
D14*
%TO.C,R32*%
X106426000Y-106806000D03*
X106426000Y-105156000D03*
%TD*%
%TO.C,R34*%
X107188000Y-144018000D03*
X107188000Y-145668000D03*
%TD*%
%TO.C,R35*%
X107188000Y-140716000D03*
X107188000Y-142366000D03*
%TD*%
D16*
%TO.C,R33*%
X95376000Y-147320000D03*
X93726000Y-147320000D03*
%TD*%
D23*
%TO.C,C17*%
X99314000Y-140556000D03*
X99314000Y-145956000D03*
%TD*%
D24*
%TO.C,J1*%
X93243000Y-144018000D03*
D25*
X93243000Y-141478000D03*
%TD*%
%TO.C,J7*%
X96837000Y-101537000D03*
D24*
X99377000Y-101537000D03*
X101917000Y-101537000D03*
X104457000Y-101537000D03*
X106997000Y-101537000D03*
X109537000Y-101537000D03*
X112077000Y-101537000D03*
X114617000Y-101537000D03*
X117157000Y-101537000D03*
X119697000Y-101537000D03*
%TD*%
D22*
%TO.C,U5*%
X96963000Y-115189000D03*
X96963000Y-116459000D03*
X96963000Y-117729000D03*
X96963000Y-118999000D03*
X92013000Y-118999000D03*
X92013000Y-117729000D03*
X92013000Y-116459000D03*
X92013000Y-115189000D03*
%TD*%
D26*
%TO.C,U1*%
X87884000Y-128778000D03*
X90424000Y-128778000D03*
X103124000Y-128778000D03*
X105664000Y-128778000D03*
X105664000Y-136398000D03*
X103124000Y-136398000D03*
X90424000Y-136398000D03*
D27*
X87884000Y-136398000D03*
%TD*%
D10*
%TO.C,REF\u002A\u002A*%
X127000000Y-147320000D03*
%TD*%
%TO.C,REF\u002A\u002A*%
X83820000Y-101600000D03*
%TD*%
D28*
%TO.C,C8*%
X121920000Y-121742000D03*
X121920000Y-120192000D03*
%TD*%
%TO.C,C9*%
X119634000Y-123520000D03*
X119634000Y-121970000D03*
%TD*%
D29*
%TO.C,C10*%
X117107000Y-122048000D03*
X115557000Y-122048000D03*
%TD*%
D28*
%TO.C,C11*%
X108712000Y-123585000D03*
X108712000Y-122035000D03*
%TD*%
%TO.C,C12*%
X112268000Y-123585000D03*
X112268000Y-122035000D03*
%TD*%
D30*
%TO.C,C13*%
X114541000Y-124714000D03*
X116091000Y-124714000D03*
%TD*%
D29*
%TO.C,C15*%
X117107000Y-111823000D03*
X115557000Y-111823000D03*
%TD*%
D30*
%TO.C,C20*%
X99301000Y-111061000D03*
X100851000Y-111061000D03*
%TD*%
%TO.C,C21*%
X125971000Y-115062000D03*
X127521000Y-115062000D03*
%TD*%
D28*
%TO.C,C22*%
X101919000Y-124726000D03*
X101919000Y-123176000D03*
%TD*%
M02*
