M48
; DRILL file {KiCad 9.0.0} date 2025-04-27T22:02:36+0200
; FORMAT={-:-/ absolute / inch / decimal}
; #@! TF.CreationDate,2025-04-27T22:02:36+02:00
; #@! TF.GenerationSoftware,Kicad,Pcbnew,9.0.0
; #@! TF.FileFunction,Plated,1,2,PTH
FMAT,2
INCH
; #@! TA.AperFunction,Plated,PTH,ViaDrill
T1C0.0118
; #@! TA.AperFunction,Plated,PTH,ComponentDrill
T2C0.0315
; #@! TA.AperFunction,Plated,PTH,ComponentDrill
T3C0.0394
%
G90
G05
T1
X3.44Y-4.58
X3.53Y-4.4
X3.55Y-4.98
X4.0475Y-4.2975
X4.1224Y-4.8026
X4.19Y-4.26
X4.49Y-5.18
X4.5725Y-4.9775
X4.86Y-4.73
X5.02Y-4.42
T2
X3.46Y-5.07
X3.46Y-5.37
X3.56Y-5.07
X3.56Y-5.37
X4.06Y-5.07
X4.06Y-5.37
X4.16Y-5.07
X4.16Y-5.37
T3
X3.671Y-5.57
X3.671Y-5.67
X3.8125Y-3.9975
X3.9125Y-3.9975
X4.0125Y-3.9975
X4.1125Y-3.9975
X4.2125Y-3.9975
X4.3125Y-3.9975
X4.4125Y-3.9975
X4.5125Y-3.9975
X4.6125Y-3.9975
X4.7125Y-3.9975
M30
