%TF.GenerationSoftware,KiCad,Pcbnew,9.0.0*%
%TF.CreationDate,2025-04-27T22:02:36+02:00*%
%TF.ProjectId,chorus,63686f72-7573-42e6-9b69-6361645f7063,rev?*%
%TF.SameCoordinates,Original*%
%TF.FileFunction,Copper,L2,Bot*%
%TF.FilePolarity,Positive*%
%FSLAX46Y46*%
G04 Gerber Fmt 4.6, Leading zero omitted, Abs format (unit mm)*
G04 Created by KiCad (PCBNEW 9.0.0) date 2025-04-27 22:02:36*
%MOMM*%
%LPD*%
G01*
G04 APERTURE LIST*
G04 Aperture macros list*
%AMRoundRect*
0 Rectangle with rounded corners*
0 $1 Rounding radius*
0 $2 $3 $4 $5 $6 $7 $8 $9 X,Y pos of 4 corners*
0 Add a 4 corners polygon primitive as box body*
4,1,4,$2,$3,$4,$5,$6,$7,$8,$9,$2,$3,0*
0 Add four circle primitives for the rounded corners*
1,1,$1+$1,$2,$3*
1,1,$1+$1,$4,$5*
1,1,$1+$1,$6,$7*
1,1,$1+$1,$8,$9*
0 Add four rect primitives between the rounded corners*
20,1,$1+$1,$2,$3,$4,$5,0*
20,1,$1+$1,$4,$5,$6,$7,0*
20,1,$1+$1,$6,$7,$8,$9,0*
20,1,$1+$1,$8,$9,$2,$3,0*%
G04 Aperture macros list end*
%TA.AperFunction,ComponentPad*%
%ADD10O,1.700000X1.700000*%
%TD*%
%TA.AperFunction,ComponentPad*%
%ADD11R,1.700000X1.700000*%
%TD*%
%TA.AperFunction,ComponentPad*%
%ADD12C,1.600000*%
%TD*%
%TA.AperFunction,ComponentPad*%
%ADD13RoundRect,0.250000X0.550000X-0.550000X0.550000X0.550000X-0.550000X0.550000X-0.550000X-0.550000X0*%
%TD*%
%TA.AperFunction,ViaPad*%
%ADD14C,0.600000*%
%TD*%
%TA.AperFunction,Conductor*%
%ADD15C,0.500000*%
%TD*%
G04 APERTURE END LIST*
D10*
%TO.P,J1,2*%
%TO.N,Net-(J1-Pad2)*%
X93243000Y-144018000D03*
D11*
%TO.P,J1,1*%
%TO.N,GND*%
X93243000Y-141478000D03*
%TD*%
%TO.P,J7,1,Pin_1*%
%TO.N,DEPTH1*%
X96837000Y-101537000D03*
D10*
%TO.P,J7,2,Pin_2*%
%TO.N,RATE2*%
X99377000Y-101537000D03*
%TO.P,J7,3,Pin_3*%
%TO.N,RATE1*%
X101917000Y-101537000D03*
%TO.P,J7,4,Pin_4*%
%TO.N,DEPTH2*%
X104457000Y-101537000D03*
%TO.P,J7,5,Pin_5*%
%TO.N,GND*%
X106997000Y-101537000D03*
%TO.P,J7,6,Pin_6*%
%TO.N,OUTPUT*%
X109537000Y-101537000D03*
%TO.P,J7,7,Pin_7*%
%TO.N,DRYWET3*%
X112077000Y-101537000D03*
%TO.P,J7,8,Pin_8*%
%TO.N,DRYWET2*%
X114617000Y-101537000D03*
%TO.P,J7,9,Pin_9*%
%TO.N,DRYWET1*%
X117157000Y-101537000D03*
%TO.P,J7,10,Pin_10*%
%TO.N,INPUT*%
X119697000Y-101537000D03*
%TD*%
D12*
%TO.P,U1,8,VGG*%
%TO.N,Net-(U1-VGG)*%
X87884000Y-128778000D03*
%TO.P,U1,7,IN*%
%TO.N,Net-(U1-IN)*%
X90424000Y-128778000D03*
%TO.P,U1,6,CP1*%
%TO.N,Net-(Q3-C)*%
X103124000Y-128778000D03*
%TO.P,U1,5,VDD*%
%TO.N,VDD*%
X105664000Y-128778000D03*
%TO.P,U1,4,OUT2*%
%TO.N,Net-(U1-OUT1)*%
X105664000Y-136398000D03*
%TO.P,U1,3,OUT1*%
X103124000Y-136398000D03*
%TO.P,U1,2,CP2*%
%TO.N,Net-(U1-CP2)*%
X90424000Y-136398000D03*
D13*
%TO.P,U1,1,GND*%
%TO.N,GND*%
X87884000Y-136398000D03*
%TD*%
D14*
%TO.N,GND*%
X102806000Y-109156000D03*
X89662000Y-111760000D03*
X104710000Y-121985000D03*
X116141000Y-126429000D03*
X123444000Y-120142000D03*
X127508000Y-112268000D03*
X90170000Y-126492000D03*
X106426000Y-108204000D03*
X87376000Y-116332000D03*
%TO.N,Net-(U1-IN)*%
X114046000Y-131572000D03*
%TD*%
D15*
%TO.N,Net-(U1-IN)*%
X93218000Y-131572000D02*
X114046000Y-131572000D01*
X90424000Y-128778000D02*
X93218000Y-131572000D01*
%TD*%
%TA.AperFunction,Conductor*%
%TO.N,GND*%
G36*
X127004042Y-99560765D02*
G01*
X127026774Y-99562254D01*
X127258114Y-99577417D01*
X127274172Y-99579532D01*
X127519888Y-99628408D01*
X127535554Y-99632606D01*
X127686736Y-99683925D01*
X127772788Y-99713136D01*
X127787765Y-99719339D01*
X128005336Y-99826633D01*
X128012460Y-99830146D01*
X128026508Y-99838256D01*
X128234815Y-99977443D01*
X128247679Y-99987314D01*
X128436033Y-100152497D01*
X128447502Y-100163966D01*
X128487670Y-100209768D01*
X128554438Y-100285903D01*
X128612685Y-100352320D01*
X128622559Y-100365188D01*
X128761743Y-100573492D01*
X128769853Y-100587539D01*
X128880657Y-100812227D01*
X128886864Y-100827213D01*
X128967393Y-101064445D01*
X128971591Y-101080111D01*
X129020465Y-101325813D01*
X129022583Y-101341895D01*
X129039235Y-101595956D01*
X129039500Y-101604066D01*
X129039500Y-147315933D01*
X129039235Y-147324043D01*
X129022583Y-147578104D01*
X129020465Y-147594186D01*
X128971591Y-147839888D01*
X128967393Y-147855554D01*
X128886864Y-148092786D01*
X128880657Y-148107772D01*
X128769853Y-148332460D01*
X128761743Y-148346507D01*
X128622559Y-148554811D01*
X128612685Y-148567679D01*
X128447502Y-148756033D01*
X128436033Y-148767502D01*
X128247679Y-148932685D01*
X128234811Y-148942559D01*
X128026507Y-149081743D01*
X128012460Y-149089853D01*
X127787772Y-149200657D01*
X127772786Y-149206864D01*
X127535554Y-149287393D01*
X127519888Y-149291591D01*
X127274186Y-149340465D01*
X127258104Y-149342583D01*
X127004043Y-149359235D01*
X126995933Y-149359500D01*
X83824067Y-149359500D01*
X83815957Y-149359235D01*
X83561895Y-149342583D01*
X83545814Y-149340465D01*
X83510770Y-149333494D01*
X83300111Y-149291591D01*
X83284445Y-149287393D01*
X83047213Y-149206864D01*
X83032227Y-149200657D01*
X82807539Y-149089853D01*
X82793492Y-149081743D01*
X82585188Y-148942559D01*
X82572320Y-148932685D01*
X82383966Y-148767502D01*
X82372497Y-148756033D01*
X82207314Y-148567679D01*
X82197440Y-148554811D01*
X82058256Y-148346507D01*
X82050146Y-148332460D01*
X81958440Y-148146499D01*
X81939339Y-148107765D01*
X81933135Y-148092786D01*
X81919438Y-148052437D01*
X81888733Y-147961981D01*
X81852606Y-147855554D01*
X81848408Y-147839888D01*
X81822869Y-147711495D01*
X81799532Y-147594172D01*
X81797417Y-147578114D01*
X81780765Y-147324042D01*
X81780500Y-147315933D01*
X81780500Y-147238592D01*
X82993500Y-147238592D01*
X82993500Y-147401407D01*
X83025259Y-147561073D01*
X83025262Y-147561082D01*
X83087562Y-147711490D01*
X83087563Y-147711492D01*
X83178015Y-147846862D01*
X83178018Y-147846866D01*
X83293133Y-147961981D01*
X83293137Y-147961984D01*
X83428505Y-148052435D01*
X83428506Y-148052435D01*
X83428507Y-148052436D01*
X83428509Y-148052437D01*
X83525922Y-148092786D01*
X83578919Y-148114738D01*
X83578921Y-148114738D01*
X83578926Y-148114740D01*
X83738592Y-148146499D01*
X83738595Y-148146500D01*
X83738597Y-148146500D01*
X83901405Y-148146500D01*
X83901406Y-148146499D01*
X83954629Y-148135912D01*
X84061073Y-148114740D01*
X84061076Y-148114738D01*
X84061081Y-148114738D01*
X84211495Y-148052435D01*
X84346863Y-147961984D01*
X84461984Y-147846863D01*
X84552435Y-147711495D01*
X84614738Y-147561081D01*
X84646500Y-147401403D01*
X84646500Y-147238597D01*
X84646500Y-147238594D01*
X84646499Y-147238592D01*
X126173500Y-147238592D01*
X126173500Y-147401407D01*
X126205259Y-147561073D01*
X126205262Y-147561082D01*
X126267562Y-147711490D01*
X126267563Y-147711492D01*
X126358015Y-147846862D01*
X126358018Y-147846866D01*
X126473133Y-147961981D01*
X126473137Y-147961984D01*
X126608505Y-148052435D01*
X126608506Y-148052435D01*
X126608507Y-148052436D01*
X126608509Y-148052437D01*
X126705922Y-148092786D01*
X126758919Y-148114738D01*
X126758921Y-148114738D01*
X126758926Y-148114740D01*
X126918592Y-148146499D01*
X126918595Y-148146500D01*
X126918597Y-148146500D01*
X127081405Y-148146500D01*
X127081406Y-148146499D01*
X127134629Y-148135912D01*
X127241073Y-148114740D01*
X127241076Y-148114738D01*
X127241081Y-148114738D01*
X127391495Y-148052435D01*
X127526863Y-147961984D01*
X127641984Y-147846863D01*
X127732435Y-147711495D01*
X127794738Y-147561081D01*
X127826500Y-147401403D01*
X127826500Y-147238597D01*
X127826500Y-147238594D01*
X127826499Y-147238592D01*
X127794740Y-147078926D01*
X127794737Y-147078917D01*
X127732437Y-146928509D01*
X127732436Y-146928507D01*
X127641984Y-146793137D01*
X127641981Y-146793133D01*
X127526866Y-146678018D01*
X127526862Y-146678015D01*
X127391492Y-146587563D01*
X127391490Y-146587562D01*
X127241082Y-146525262D01*
X127241073Y-146525259D01*
X127081406Y-146493500D01*
X127081403Y-146493500D01*
X126918597Y-146493500D01*
X126918594Y-146493500D01*
X126758926Y-146525259D01*
X126758917Y-146525262D01*
X126608509Y-146587562D01*
X126608507Y-146587563D01*
X126473137Y-146678015D01*
X126473133Y-146678018D01*
X126358018Y-146793133D01*
X126358015Y-146793137D01*
X126267563Y-146928507D01*
X126267562Y-146928509D01*
X126205262Y-147078917D01*
X126205259Y-147078926D01*
X126173500Y-147238592D01*
X84646499Y-147238592D01*
X84614740Y-147078926D01*
X84614737Y-147078917D01*
X84552437Y-146928509D01*
X84552436Y-146928507D01*
X84461984Y-146793137D01*
X84461981Y-146793133D01*
X84346866Y-146678018D01*
X84346862Y-146678015D01*
X84211492Y-146587563D01*
X84211490Y-146587562D01*
X84061082Y-146525262D01*
X84061073Y-146525259D01*
X83901406Y-146493500D01*
X83901403Y-146493500D01*
X83738597Y-146493500D01*
X83738594Y-146493500D01*
X83578926Y-146525259D01*
X83578917Y-146525262D01*
X83428509Y-146587562D01*
X83428507Y-146587563D01*
X83293137Y-146678015D01*
X83293133Y-146678018D01*
X83178018Y-146793133D01*
X83178015Y-146793137D01*
X83087563Y-146928507D01*
X83087562Y-146928509D01*
X83025262Y-147078917D01*
X83025259Y-147078926D01*
X82993500Y-147238592D01*
X81780500Y-147238592D01*
X81780500Y-144023711D01*
X85144500Y-144023711D01*
X85144500Y-144266288D01*
X85176161Y-144506785D01*
X85238947Y-144741104D01*
X85303847Y-144897786D01*
X85331776Y-144965212D01*
X85453064Y-145175289D01*
X85453066Y-145175292D01*
X85453067Y-145175293D01*
X85600733Y-145367736D01*
X85600739Y-145367743D01*
X85772256Y-145539260D01*
X85772262Y-145539265D01*
X85964711Y-145686936D01*
X86174788Y-145808224D01*
X86398900Y-145901054D01*
X86633211Y-145963838D01*
X86813586Y-145987584D01*
X86873711Y-145995500D01*
X86873712Y-145995500D01*
X87116289Y-145995500D01*
X87164388Y-145989167D01*
X87356789Y-145963838D01*
X87591100Y-145901054D01*
X87815212Y-145808224D01*
X88025289Y-145686936D01*
X88217738Y-145539265D01*
X88389265Y-145367738D01*
X88536936Y-145175289D01*
X88658224Y-144965212D01*
X88751054Y-144741100D01*
X88813838Y-144506789D01*
X88845500Y-144266288D01*
X88845500Y-144023712D01*
X88830755Y-143911713D01*
X91892500Y-143911713D01*
X91892500Y-144124286D01*
X91925753Y-144334239D01*
X91991444Y-144536414D01*
X92087951Y-144725820D01*
X92212890Y-144897786D01*
X92363213Y-145048109D01*
X92535179Y-145173048D01*
X92535181Y-145173049D01*
X92535184Y-145173051D01*
X92724588Y-145269557D01*
X92926757Y-145335246D01*
X93136713Y-145368500D01*
X93136714Y-145368500D01*
X93349286Y-145368500D01*
X93349287Y-145368500D01*
X93559243Y-145335246D01*
X93761412Y-145269557D01*
X93950816Y-145173051D01*
X93972789Y-145157086D01*
X94122786Y-145048109D01*
X94122788Y-145048106D01*
X94122792Y-145048104D01*
X94273104Y-144897792D01*
X94273106Y-144897788D01*
X94273109Y-144897786D01*
X94398048Y-144725820D01*
X94398047Y-144725820D01*
X94398051Y-144725816D01*
X94494557Y-144536412D01*
X94560246Y-144334243D01*
X94593500Y-144124287D01*
X94593500Y-144023711D01*
X121974500Y-144023711D01*
X121974500Y-144266288D01*
X122006161Y-144506785D01*
X122068947Y-144741104D01*
X122133847Y-144897786D01*
X122161776Y-144965212D01*
X122283064Y-145175289D01*
X122283066Y-145175292D01*
X122283067Y-145175293D01*
X122430733Y-145367736D01*
X122430739Y-145367743D01*
X122602256Y-145539260D01*
X122602262Y-145539265D01*
X122794711Y-145686936D01*
X123004788Y-145808224D01*
X123228900Y-145901054D01*
X123463211Y-145963838D01*
X123643586Y-145987584D01*
X123703711Y-145995500D01*
X123703712Y-145995500D01*
X123946289Y-145995500D01*
X123994388Y-145989167D01*
X124186789Y-145963838D01*
X124421100Y-145901054D01*
X124645212Y-145808224D01*
X124855289Y-145686936D01*
X125047738Y-145539265D01*
X125219265Y-145367738D01*
X125366936Y-145175289D01*
X125488224Y-144965212D01*
X125581054Y-144741100D01*
X125643838Y-144506789D01*
X125675500Y-144266288D01*
X125675500Y-144023712D01*
X125643838Y-143783211D01*
X125581054Y-143548900D01*
X125488224Y-143324788D01*
X125366936Y-143114711D01*
X125219265Y-142922262D01*
X125219260Y-142922256D01*
X125047743Y-142750739D01*
X125047736Y-142750733D01*
X124855293Y-142603067D01*
X124855292Y-142603066D01*
X124855289Y-142603064D01*
X124645212Y-142481776D01*
X124645205Y-142481773D01*
X124421104Y-142388947D01*
X124186785Y-142326161D01*
X123946289Y-142294500D01*
X123946288Y-142294500D01*
X123703712Y-142294500D01*
X123703711Y-142294500D01*
X123463214Y-142326161D01*
X123228895Y-142388947D01*
X123004794Y-142481773D01*
X123004785Y-142481777D01*
X122794706Y-142603067D01*
X122602263Y-142750733D01*
X122602256Y-142750739D01*
X122430739Y-142922256D01*
X122430733Y-142922263D01*
X122283067Y-143114706D01*
X122161777Y-143324785D01*
X122161773Y-143324794D01*
X122068947Y-143548895D01*
X122006161Y-143783214D01*
X121974500Y-144023711D01*
X94593500Y-144023711D01*
X94593500Y-143911713D01*
X94560246Y-143701757D01*
X94494557Y-143499588D01*
X94398051Y-143310184D01*
X94398049Y-143310181D01*
X94398048Y-143310179D01*
X94273109Y-143138213D01*
X94159181Y-143024285D01*
X94125696Y-142962962D01*
X94130680Y-142893270D01*
X94172552Y-142837337D01*
X94203529Y-142820422D01*
X94335086Y-142771354D01*
X94335093Y-142771350D01*
X94450187Y-142685190D01*
X94450190Y-142685187D01*
X94536350Y-142570093D01*
X94536354Y-142570086D01*
X94586596Y-142435379D01*
X94586598Y-142435372D01*
X94592999Y-142375844D01*
X94593000Y-142375827D01*
X94593000Y-141728000D01*
X93676012Y-141728000D01*
X93708925Y-141670993D01*
X93743000Y-141543826D01*
X93743000Y-141412174D01*
X93708925Y-141285007D01*
X93676012Y-141228000D01*
X94593000Y-141228000D01*
X94593000Y-140580172D01*
X94592999Y-140580155D01*
X94586598Y-140520627D01*
X94586596Y-140520620D01*
X94536354Y-140385913D01*
X94536350Y-140385906D01*
X94450190Y-140270812D01*
X94450187Y-140270809D01*
X94335093Y-140184649D01*
X94335086Y-140184645D01*
X94200379Y-140134403D01*
X94200372Y-140134401D01*
X94140844Y-140128000D01*
X93493000Y-140128000D01*
X93493000Y-141044988D01*
X93435993Y-141012075D01*
X93308826Y-140978000D01*
X93177174Y-140978000D01*
X93050007Y-141012075D01*
X92993000Y-141044988D01*
X92993000Y-140128000D01*
X92345155Y-140128000D01*
X92285627Y-140134401D01*
X92285620Y-140134403D01*
X92150913Y-140184645D01*
X92150906Y-140184649D01*
X92035812Y-140270809D01*
X92035809Y-140270812D01*
X91949649Y-140385906D01*
X91949645Y-140385913D01*
X91899403Y-140520620D01*
X91899401Y-140520627D01*
X91893000Y-140580155D01*
X91893000Y-141228000D01*
X92809988Y-141228000D01*
X92777075Y-141285007D01*
X92743000Y-141412174D01*
X92743000Y-141543826D01*
X92777075Y-141670993D01*
X92809988Y-141728000D01*
X91893000Y-141728000D01*
X91893000Y-142375844D01*
X91899401Y-142435372D01*
X91899403Y-142435379D01*
X91949645Y-142570086D01*
X91949649Y-142570093D01*
X92035809Y-142685187D01*
X92035812Y-142685190D01*
X92150906Y-142771350D01*
X92150913Y-142771354D01*
X92282470Y-142820422D01*
X92338404Y-142862293D01*
X92362821Y-142927758D01*
X92347969Y-142996031D01*
X92326819Y-143024285D01*
X92212889Y-143138215D01*
X92087951Y-143310179D01*
X91991444Y-143499585D01*
X91925753Y-143701760D01*
X91892500Y-143911713D01*
X88830755Y-143911713D01*
X88813838Y-143783214D01*
X88813838Y-143783211D01*
X88751054Y-143548900D01*
X88658224Y-143324788D01*
X88536936Y-143114711D01*
X88389265Y-142922262D01*
X88389260Y-142922256D01*
X88217743Y-142750739D01*
X88217736Y-142750733D01*
X88025293Y-142603067D01*
X88025292Y-142603066D01*
X88025289Y-142603064D01*
X87815212Y-142481776D01*
X87815205Y-142481773D01*
X87591104Y-142388947D01*
X87356785Y-142326161D01*
X87116289Y-142294500D01*
X87116288Y-142294500D01*
X86873712Y-142294500D01*
X86873711Y-142294500D01*
X86633214Y-142326161D01*
X86398895Y-142388947D01*
X86174794Y-142481773D01*
X86174785Y-142481777D01*
X85964706Y-142603067D01*
X85772263Y-142750733D01*
X85772256Y-142750739D01*
X85600739Y-142922256D01*
X85600733Y-142922263D01*
X85453067Y-143114706D01*
X85331777Y-143324785D01*
X85331773Y-143324794D01*
X85238947Y-143548895D01*
X85176161Y-143783214D01*
X85144500Y-144023711D01*
X81780500Y-144023711D01*
X81780500Y-135798013D01*
X86584000Y-135798013D01*
X86584000Y-136148000D01*
X87568314Y-136148000D01*
X87563920Y-136152394D01*
X87511259Y-136243606D01*
X87484000Y-136345339D01*
X87484000Y-136450661D01*
X87511259Y-136552394D01*
X87563920Y-136643606D01*
X87568314Y-136648000D01*
X86584001Y-136648000D01*
X86584001Y-136997986D01*
X86594494Y-137100697D01*
X86649641Y-137267119D01*
X86649643Y-137267124D01*
X86741684Y-137416345D01*
X86865654Y-137540315D01*
X87014875Y-137632356D01*
X87014880Y-137632358D01*
X87181302Y-137687505D01*
X87181309Y-137687506D01*
X87284019Y-137697999D01*
X87633999Y-137697999D01*
X87634000Y-137697998D01*
X87634000Y-136713686D01*
X87638394Y-136718080D01*
X87729606Y-136770741D01*
X87831339Y-136798000D01*
X87936661Y-136798000D01*
X88038394Y-136770741D01*
X88129606Y-136718080D01*
X88134000Y-136713686D01*
X88134000Y-137697999D01*
X88483972Y-137697999D01*
X88483986Y-137697998D01*
X88586697Y-137687505D01*
X88753119Y-137632358D01*
X88753124Y-137632356D01*
X88902345Y-137540315D01*
X89026315Y-137416345D01*
X89118356Y-137267124D01*
X89118359Y-137267117D01*
X89145592Y-137184932D01*
X89185364Y-137127487D01*
X89249879Y-137100663D01*
X89318655Y-137112977D01*
X89363617Y-137151050D01*
X89432034Y-137245219D01*
X89576786Y-137389971D01*
X89731749Y-137502556D01*
X89742390Y-137510287D01*
X89858607Y-137569503D01*
X89924776Y-137603218D01*
X89924778Y-137603218D01*
X89924781Y-137603220D01*
X90014459Y-137632358D01*
X90119465Y-137666477D01*
X90220557Y-137682488D01*
X90321648Y-137698500D01*
X90321649Y-137698500D01*
X90526351Y-137698500D01*
X90526352Y-137698500D01*
X90728534Y-137666477D01*
X90923219Y-137603220D01*
X91105610Y-137510287D01*
X91198590Y-137442732D01*
X91271213Y-137389971D01*
X91271215Y-137389968D01*
X91271219Y-137389966D01*
X91415966Y-137245219D01*
X91415968Y-137245215D01*
X91415971Y-137245213D01*
X91484383Y-137151050D01*
X91536287Y-137079610D01*
X91629220Y-136897219D01*
X91692477Y-136702534D01*
X91724500Y-136500352D01*
X91724500Y-136295648D01*
X101823500Y-136295648D01*
X101823500Y-136500351D01*
X101855522Y-136702534D01*
X101918781Y-136897223D01*
X102011715Y-137079613D01*
X102132028Y-137245213D01*
X102276786Y-137389971D01*
X102431749Y-137502556D01*
X102442390Y-137510287D01*
X102558607Y-137569503D01*
X102624776Y-137603218D01*
X102624778Y-137603218D01*
X102624781Y-137603220D01*
X102714459Y-137632358D01*
X102819465Y-137666477D01*
X102920557Y-137682488D01*
X103021648Y-137698500D01*
X103021649Y-137698500D01*
X103226351Y-137698500D01*
X103226352Y-137698500D01*
X103428534Y-137666477D01*
X103623219Y-137603220D01*
X103805610Y-137510287D01*
X103898590Y-137442732D01*
X103971213Y-137389971D01*
X103971215Y-137389968D01*
X103971219Y-137389966D01*
X104115966Y-137245219D01*
X104115968Y-137245215D01*
X104115971Y-137245213D01*
X104236284Y-137079614D01*
X104236285Y-137079613D01*
X104236287Y-137079610D01*
X104283516Y-136986917D01*
X104331489Y-136936123D01*
X104399310Y-136919328D01*
X104465445Y-136941865D01*
X104504483Y-136986917D01*
X104548348Y-137073006D01*
X104551715Y-137079614D01*
X104672028Y-137245213D01*
X104816786Y-137389971D01*
X104971749Y-137502556D01*
X104982390Y-137510287D01*
X105098607Y-137569503D01*
X105164776Y-137603218D01*
X105164778Y-137603218D01*
X105164781Y-137603220D01*
X105254459Y-137632358D01*
X105359465Y-137666477D01*
X105460557Y-137682488D01*
X105561648Y-137698500D01*
X105561649Y-137698500D01*
X105766351Y-137698500D01*
X105766352Y-137698500D01*
X105968534Y-137666477D01*
X106163219Y-137603220D01*
X106345610Y-137510287D01*
X106438590Y-137442732D01*
X106511213Y-137389971D01*
X106511215Y-137389968D01*
X106511219Y-137389966D01*
X106655966Y-137245219D01*
X106655968Y-137245215D01*
X106655971Y-137245213D01*
X106724383Y-137151050D01*
X106776287Y-137079610D01*
X106869220Y-136897219D01*
X106932477Y-136702534D01*
X106964500Y-136500352D01*
X106964500Y-136295648D01*
X106956257Y-136243606D01*
X106932477Y-136093465D01*
X106869218Y-135898776D01*
X106817876Y-135798013D01*
X106776287Y-135716390D01*
X106736035Y-135660987D01*
X106655971Y-135550786D01*
X106511213Y-135406028D01*
X106345613Y-135285715D01*
X106345612Y-135285714D01*
X106345610Y-135285713D01*
X106286675Y-135255684D01*
X106163223Y-135192781D01*
X105968534Y-135129522D01*
X105793995Y-135101878D01*
X105766352Y-135097500D01*
X105561648Y-135097500D01*
X105537329Y-135101351D01*
X105359465Y-135129522D01*
X105164776Y-135192781D01*
X104982386Y-135285715D01*
X104816786Y-135406028D01*
X104672028Y-135550786D01*
X104551715Y-135716386D01*
X104504485Y-135809080D01*
X104456510Y-135859876D01*
X104388689Y-135876671D01*
X104322554Y-135854134D01*
X104283515Y-135809080D01*
X104277876Y-135798013D01*
X104236287Y-135716390D01*
X104196035Y-135660987D01*
X104115971Y-135550786D01*
X103971213Y-135406028D01*
X103805613Y-135285715D01*
X103805612Y-135285714D01*
X103805610Y-135285713D01*
X103746675Y-135255684D01*
X103623223Y-135192781D01*
X103428534Y-135129522D01*
X103253995Y-135101878D01*
X103226352Y-135097500D01*
X103021648Y-135097500D01*
X102997329Y-135101351D01*
X102819465Y-135129522D01*
X102624776Y-135192781D01*
X102442386Y-135285715D01*
X102276786Y-135406028D01*
X102132028Y-135550786D01*
X102011715Y-135716386D01*
X101918781Y-135898776D01*
X101855522Y-136093465D01*
X101823500Y-136295648D01*
X91724500Y-136295648D01*
X91716257Y-136243606D01*
X91692477Y-136093465D01*
X91629218Y-135898776D01*
X91577876Y-135798013D01*
X91536287Y-135716390D01*
X91496035Y-135660987D01*
X91415971Y-135550786D01*
X91271213Y-135406028D01*
X91105613Y-135285715D01*
X91105612Y-135285714D01*
X91105610Y-135285713D01*
X91046675Y-135255684D01*
X90923223Y-135192781D01*
X90728534Y-135129522D01*
X90553995Y-135101878D01*
X90526352Y-135097500D01*
X90321648Y-135097500D01*
X90297329Y-135101351D01*
X90119465Y-135129522D01*
X89924776Y-135192781D01*
X89742386Y-135285715D01*
X89576786Y-135406028D01*
X89432032Y-135550782D01*
X89363616Y-135644949D01*
X89308286Y-135687614D01*
X89238672Y-135693593D01*
X89176877Y-135660987D01*
X89145592Y-135611067D01*
X89118358Y-135528880D01*
X89118356Y-135528875D01*
X89026315Y-135379654D01*
X88902345Y-135255684D01*
X88753124Y-135163643D01*
X88753119Y-135163641D01*
X88586697Y-135108494D01*
X88586690Y-135108493D01*
X88483986Y-135098000D01*
X88134000Y-135098000D01*
X88134000Y-136082314D01*
X88129606Y-136077920D01*
X88038394Y-136025259D01*
X87936661Y-135998000D01*
X87831339Y-135998000D01*
X87729606Y-136025259D01*
X87638394Y-136077920D01*
X87634000Y-136082314D01*
X87634000Y-135098000D01*
X87284028Y-135098000D01*
X87284012Y-135098001D01*
X87181302Y-135108494D01*
X87014880Y-135163641D01*
X87014875Y-135163643D01*
X86865654Y-135255684D01*
X86741684Y-135379654D01*
X86649643Y-135528875D01*
X86649641Y-135528880D01*
X86594494Y-135695302D01*
X86594493Y-135695309D01*
X86584000Y-135798013D01*
X81780500Y-135798013D01*
X81780500Y-128675648D01*
X86583500Y-128675648D01*
X86583500Y-128880351D01*
X86615522Y-129082534D01*
X86678781Y-129277223D01*
X86771715Y-129459613D01*
X86892028Y-129625213D01*
X87036786Y-129769971D01*
X87191749Y-129882556D01*
X87202390Y-129890287D01*
X87318607Y-129949503D01*
X87384776Y-129983218D01*
X87384778Y-129983218D01*
X87384781Y-129983220D01*
X87489137Y-130017127D01*
X87579465Y-130046477D01*
X87663564Y-130059797D01*
X87781648Y-130078500D01*
X87781649Y-130078500D01*
X87986351Y-130078500D01*
X87986352Y-130078500D01*
X88188534Y-130046477D01*
X88383219Y-129983220D01*
X88565610Y-129890287D01*
X88658590Y-129822732D01*
X88731213Y-129769971D01*
X88731215Y-129769968D01*
X88731219Y-129769966D01*
X88875966Y-129625219D01*
X88875968Y-129625215D01*
X88875971Y-129625213D01*
X88996284Y-129459614D01*
X88996285Y-129459613D01*
X88996287Y-129459610D01*
X89043516Y-129366917D01*
X89091489Y-129316123D01*
X89159310Y-129299328D01*
X89225445Y-129321865D01*
X89264485Y-129366919D01*
X89311715Y-129459614D01*
X89432028Y-129625213D01*
X89576786Y-129769971D01*
X89731749Y-129882556D01*
X89742390Y-129890287D01*
X89858607Y-129949503D01*
X89924776Y-129983218D01*
X89924778Y-129983218D01*
X89924781Y-129983220D01*
X90029137Y-130017127D01*
X90119465Y-130046477D01*
X90203564Y-130059797D01*
X90321648Y-130078500D01*
X90321649Y-130078500D01*
X90526350Y-130078500D01*
X90526352Y-130078500D01*
X90582026Y-130069681D01*
X90651318Y-130078635D01*
X90689105Y-130104473D01*
X92739578Y-132154947D01*
X92739584Y-132154952D01*
X92797709Y-132193789D01*
X92862505Y-132237084D01*
X92919080Y-132260518D01*
X92999088Y-132293659D01*
X93115241Y-132316763D01*
X93134468Y-132320587D01*
X93144081Y-132322500D01*
X93144082Y-132322500D01*
X93144083Y-132322500D01*
X93291918Y-132322500D01*
X113741396Y-132322500D01*
X113788844Y-132331937D01*
X113812503Y-132341737D01*
X113812508Y-132341738D01*
X113812511Y-132341739D01*
X113967153Y-132372499D01*
X113967156Y-132372500D01*
X113967158Y-132372500D01*
X114124844Y-132372500D01*
X114124845Y-132372499D01*
X114279497Y-132341737D01*
X114425179Y-132281394D01*
X114556289Y-132193789D01*
X114667789Y-132082289D01*
X114755394Y-131951179D01*
X114815737Y-131805497D01*
X114846500Y-131650842D01*
X114846500Y-131493158D01*
X114846500Y-131493155D01*
X114846499Y-131493153D01*
X114815738Y-131338510D01*
X114815737Y-131338503D01*
X114815735Y-131338498D01*
X114755397Y-131192827D01*
X114755390Y-131192814D01*
X114667789Y-131061711D01*
X114667786Y-131061707D01*
X114556292Y-130950213D01*
X114556288Y-130950210D01*
X114425185Y-130862609D01*
X114425172Y-130862602D01*
X114279501Y-130802264D01*
X114279489Y-130802261D01*
X114124845Y-130771500D01*
X114124842Y-130771500D01*
X113967158Y-130771500D01*
X113967155Y-130771500D01*
X113812511Y-130802260D01*
X113812506Y-130802262D01*
X113812504Y-130802262D01*
X113812503Y-130802263D01*
X113788844Y-130812062D01*
X113741396Y-130821500D01*
X93580230Y-130821500D01*
X93513191Y-130801815D01*
X93492549Y-130785181D01*
X91750473Y-129043105D01*
X91716988Y-128981782D01*
X91715681Y-128936027D01*
X91724500Y-128880352D01*
X91724500Y-128675648D01*
X101823500Y-128675648D01*
X101823500Y-128880351D01*
X101855522Y-129082534D01*
X101918781Y-129277223D01*
X102011715Y-129459613D01*
X102132028Y-129625213D01*
X102276786Y-129769971D01*
X102431749Y-129882556D01*
X102442390Y-129890287D01*
X102558607Y-129949503D01*
X102624776Y-129983218D01*
X102624778Y-129983218D01*
X102624781Y-129983220D01*
X102729137Y-130017127D01*
X102819465Y-130046477D01*
X102903564Y-130059797D01*
X103021648Y-130078500D01*
X103021649Y-130078500D01*
X103226351Y-130078500D01*
X103226352Y-130078500D01*
X103428534Y-130046477D01*
X103623219Y-129983220D01*
X103805610Y-129890287D01*
X103898590Y-129822732D01*
X103971213Y-129769971D01*
X103971215Y-129769968D01*
X103971219Y-129769966D01*
X104115966Y-129625219D01*
X104115968Y-129625215D01*
X104115971Y-129625213D01*
X104236284Y-129459614D01*
X104236285Y-129459613D01*
X104236287Y-129459610D01*
X104283516Y-129366917D01*
X104331489Y-129316123D01*
X104399310Y-129299328D01*
X104465445Y-129321865D01*
X104504485Y-129366919D01*
X104551715Y-129459614D01*
X104672028Y-129625213D01*
X104816786Y-129769971D01*
X104971749Y-129882556D01*
X104982390Y-129890287D01*
X105098607Y-129949503D01*
X105164776Y-129983218D01*
X105164778Y-129983218D01*
X105164781Y-129983220D01*
X105269137Y-130017127D01*
X105359465Y-130046477D01*
X105443564Y-130059797D01*
X105561648Y-130078500D01*
X105561649Y-130078500D01*
X105766351Y-130078500D01*
X105766352Y-130078500D01*
X105968534Y-130046477D01*
X106163219Y-129983220D01*
X106345610Y-129890287D01*
X106438590Y-129822732D01*
X106511213Y-129769971D01*
X106511215Y-129769968D01*
X106511219Y-129769966D01*
X106655966Y-129625219D01*
X106655968Y-129625215D01*
X106655971Y-129625213D01*
X106708732Y-129552590D01*
X106776287Y-129459610D01*
X106869220Y-129277219D01*
X106932477Y-129082534D01*
X106964500Y-128880352D01*
X106964500Y-128675648D01*
X106932477Y-128473466D01*
X106869220Y-128278781D01*
X106869218Y-128278778D01*
X106869218Y-128278776D01*
X106823515Y-128189080D01*
X106776287Y-128096390D01*
X106768556Y-128085749D01*
X106655971Y-127930786D01*
X106511213Y-127786028D01*
X106345613Y-127665715D01*
X106345612Y-127665714D01*
X106345610Y-127665713D01*
X106288653Y-127636691D01*
X106163223Y-127572781D01*
X105968534Y-127509522D01*
X105793995Y-127481878D01*
X105766352Y-127477500D01*
X105561648Y-127477500D01*
X105537329Y-127481351D01*
X105359465Y-127509522D01*
X105164776Y-127572781D01*
X104982386Y-127665715D01*
X104816786Y-127786028D01*
X104672028Y-127930786D01*
X104551715Y-128096386D01*
X104504485Y-128189080D01*
X104456510Y-128239876D01*
X104388689Y-128256671D01*
X104322554Y-128234134D01*
X104283515Y-128189080D01*
X104282883Y-128187840D01*
X104236287Y-128096390D01*
X104228556Y-128085749D01*
X104115971Y-127930786D01*
X103971213Y-127786028D01*
X103805613Y-127665715D01*
X103805612Y-127665714D01*
X103805610Y-127665713D01*
X103748653Y-127636691D01*
X103623223Y-127572781D01*
X103428534Y-127509522D01*
X103253995Y-127481878D01*
X103226352Y-127477500D01*
X103021648Y-127477500D01*
X102997329Y-127481351D01*
X102819465Y-127509522D01*
X102624776Y-127572781D01*
X102442386Y-127665715D01*
X102276786Y-127786028D01*
X102132028Y-127930786D01*
X102011715Y-128096386D01*
X101918781Y-128278776D01*
X101855522Y-128473465D01*
X101823500Y-128675648D01*
X91724500Y-128675648D01*
X91692477Y-128473466D01*
X91629220Y-128278781D01*
X91629218Y-128278778D01*
X91629218Y-128278776D01*
X91583515Y-128189080D01*
X91536287Y-128096390D01*
X91528556Y-128085749D01*
X91415971Y-127930786D01*
X91271213Y-127786028D01*
X91105613Y-127665715D01*
X91105612Y-127665714D01*
X91105610Y-127665713D01*
X91048653Y-127636691D01*
X90923223Y-127572781D01*
X90728534Y-127509522D01*
X90553995Y-127481878D01*
X90526352Y-127477500D01*
X90321648Y-127477500D01*
X90297329Y-127481351D01*
X90119465Y-127509522D01*
X89924776Y-127572781D01*
X89742386Y-127665715D01*
X89576786Y-127786028D01*
X89432028Y-127930786D01*
X89311715Y-128096386D01*
X89264485Y-128189080D01*
X89216510Y-128239876D01*
X89148689Y-128256671D01*
X89082554Y-128234134D01*
X89043515Y-128189080D01*
X89042883Y-128187840D01*
X88996287Y-128096390D01*
X88988556Y-128085749D01*
X88875971Y-127930786D01*
X88731213Y-127786028D01*
X88565613Y-127665715D01*
X88565612Y-127665714D01*
X88565610Y-127665713D01*
X88508653Y-127636691D01*
X88383223Y-127572781D01*
X88188534Y-127509522D01*
X88013995Y-127481878D01*
X87986352Y-127477500D01*
X87781648Y-127477500D01*
X87757329Y-127481351D01*
X87579465Y-127509522D01*
X87384776Y-127572781D01*
X87202386Y-127665715D01*
X87036786Y-127786028D01*
X86892028Y-127930786D01*
X86771715Y-128096386D01*
X86678781Y-128278776D01*
X86615522Y-128473465D01*
X86583500Y-128675648D01*
X81780500Y-128675648D01*
X81780500Y-104653711D01*
X85144500Y-104653711D01*
X85144500Y-104896288D01*
X85176161Y-105136785D01*
X85238947Y-105371104D01*
X85331773Y-105595205D01*
X85331776Y-105595212D01*
X85453064Y-105805289D01*
X85453066Y-105805292D01*
X85453067Y-105805293D01*
X85600733Y-105997736D01*
X85600739Y-105997743D01*
X85772256Y-106169260D01*
X85772262Y-106169265D01*
X85964711Y-106316936D01*
X86174788Y-106438224D01*
X86398900Y-106531054D01*
X86633211Y-106593838D01*
X86813586Y-106617584D01*
X86873711Y-106625500D01*
X86873712Y-106625500D01*
X87116289Y-106625500D01*
X87164388Y-106619167D01*
X87356789Y-106593838D01*
X87591100Y-106531054D01*
X87815212Y-106438224D01*
X88025289Y-106316936D01*
X88217738Y-106169265D01*
X88389265Y-105997738D01*
X88536936Y-105805289D01*
X88658224Y-105595212D01*
X88751054Y-105371100D01*
X88813838Y-105136789D01*
X88845500Y-104896288D01*
X88845500Y-104653712D01*
X88813838Y-104413211D01*
X88751054Y-104178900D01*
X88658224Y-103954788D01*
X88536936Y-103744711D01*
X88389265Y-103552262D01*
X88389260Y-103552256D01*
X88217743Y-103380739D01*
X88217736Y-103380733D01*
X88025293Y-103233067D01*
X88025292Y-103233066D01*
X88025289Y-103233064D01*
X87815212Y-103111776D01*
X87815205Y-103111773D01*
X87591104Y-103018947D01*
X87356785Y-102956161D01*
X87116289Y-102924500D01*
X87116288Y-102924500D01*
X86873712Y-102924500D01*
X86873711Y-102924500D01*
X86633214Y-102956161D01*
X86398895Y-103018947D01*
X86174794Y-103111773D01*
X86174785Y-103111777D01*
X85964706Y-103233067D01*
X85772263Y-103380733D01*
X85772256Y-103380739D01*
X85600739Y-103552256D01*
X85600733Y-103552263D01*
X85453067Y-103744706D01*
X85331777Y-103954785D01*
X85331773Y-103954794D01*
X85238947Y-104178895D01*
X85176161Y-104413214D01*
X85144500Y-104653711D01*
X81780500Y-104653711D01*
X81780500Y-101604066D01*
X81780765Y-101595956D01*
X81785835Y-101518597D01*
X81785835Y-101518592D01*
X82993500Y-101518592D01*
X82993500Y-101681407D01*
X83025259Y-101841073D01*
X83025262Y-101841082D01*
X83087562Y-101991490D01*
X83087563Y-101991492D01*
X83178015Y-102126862D01*
X83178018Y-102126866D01*
X83293133Y-102241981D01*
X83293137Y-102241984D01*
X83428505Y-102332435D01*
X83428506Y-102332435D01*
X83428507Y-102332436D01*
X83428509Y-102332437D01*
X83528781Y-102373970D01*
X83578919Y-102394738D01*
X83578921Y-102394738D01*
X83578926Y-102394740D01*
X83738592Y-102426499D01*
X83738595Y-102426500D01*
X83738597Y-102426500D01*
X83901405Y-102426500D01*
X83901406Y-102426499D01*
X83954629Y-102415912D01*
X84061073Y-102394740D01*
X84061076Y-102394738D01*
X84061081Y-102394738D01*
X84211495Y-102332435D01*
X84346863Y-102241984D01*
X84461984Y-102126863D01*
X84552435Y-101991495D01*
X84614738Y-101841081D01*
X84646500Y-101681403D01*
X84646500Y-101518597D01*
X84646500Y-101518594D01*
X84646499Y-101518592D01*
X84614740Y-101358926D01*
X84614737Y-101358917D01*
X84552437Y-101208509D01*
X84552436Y-101208507D01*
X84461984Y-101073137D01*
X84461981Y-101073133D01*
X84346866Y-100958018D01*
X84346862Y-100958015D01*
X84211492Y-100867563D01*
X84211490Y-100867562D01*
X84061082Y-100805262D01*
X84061073Y-100805259D01*
X83901406Y-100773500D01*
X83901403Y-100773500D01*
X83738597Y-100773500D01*
X83738594Y-100773500D01*
X83578926Y-100805259D01*
X83578917Y-100805262D01*
X83428509Y-100867562D01*
X83428507Y-100867563D01*
X83293137Y-100958015D01*
X83293133Y-100958018D01*
X83178018Y-101073133D01*
X83178015Y-101073137D01*
X83087563Y-101208507D01*
X83087562Y-101208509D01*
X83025262Y-101358917D01*
X83025259Y-101358926D01*
X82993500Y-101518592D01*
X81785835Y-101518592D01*
X81797417Y-101341883D01*
X81799531Y-101325829D01*
X81848409Y-101080107D01*
X81852606Y-101064445D01*
X81906548Y-100905536D01*
X81933138Y-100827205D01*
X81939336Y-100812239D01*
X82024702Y-100639135D01*
X95486500Y-100639135D01*
X95486500Y-102434870D01*
X95486501Y-102434876D01*
X95492908Y-102494483D01*
X95543202Y-102629328D01*
X95543206Y-102629335D01*
X95629452Y-102744544D01*
X95629455Y-102744547D01*
X95744664Y-102830793D01*
X95744671Y-102830797D01*
X95879517Y-102881091D01*
X95879516Y-102881091D01*
X95886444Y-102881835D01*
X95939127Y-102887500D01*
X97734872Y-102887499D01*
X97794483Y-102881091D01*
X97929331Y-102830796D01*
X98044546Y-102744546D01*
X98130796Y-102629331D01*
X98179810Y-102497916D01*
X98221681Y-102441984D01*
X98287145Y-102417566D01*
X98355418Y-102432417D01*
X98383673Y-102453569D01*
X98497213Y-102567109D01*
X98669179Y-102692048D01*
X98669181Y-102692049D01*
X98669184Y-102692051D01*
X98858588Y-102788557D01*
X99060757Y-102854246D01*
X99270713Y-102887500D01*
X99270714Y-102887500D01*
X99483286Y-102887500D01*
X99483287Y-102887500D01*
X99693243Y-102854246D01*
X99895412Y-102788557D01*
X100084816Y-102692051D01*
X100171138Y-102629335D01*
X100256786Y-102567109D01*
X100256788Y-102567106D01*
X100256792Y-102567104D01*
X100407104Y-102416792D01*
X100407106Y-102416788D01*
X100407109Y-102416786D01*
X100532048Y-102244820D01*
X100532047Y-102244820D01*
X100532051Y-102244816D01*
X100536514Y-102236054D01*
X100584488Y-102185259D01*
X100652308Y-102168463D01*
X100718444Y-102190999D01*
X100757484Y-102236054D01*
X100760506Y-102241984D01*
X100761951Y-102244820D01*
X100886890Y-102416786D01*
X101037213Y-102567109D01*
X101209179Y-102692048D01*
X101209181Y-102692049D01*
X101209184Y-102692051D01*
X101398588Y-102788557D01*
X101600757Y-102854246D01*
X101810713Y-102887500D01*
X101810714Y-102887500D01*
X102023286Y-102887500D01*
X102023287Y-102887500D01*
X102233243Y-102854246D01*
X102435412Y-102788557D01*
X102624816Y-102692051D01*
X102711138Y-102629335D01*
X102796786Y-102567109D01*
X102796788Y-102567106D01*
X102796792Y-102567104D01*
X102947104Y-102416792D01*
X102947106Y-102416788D01*
X102947109Y-102416786D01*
X103072048Y-102244820D01*
X103072047Y-102244820D01*
X103072051Y-102244816D01*
X103076514Y-102236054D01*
X103124488Y-102185259D01*
X103192308Y-102168463D01*
X103258444Y-102190999D01*
X103297484Y-102236054D01*
X103300506Y-102241984D01*
X103301951Y-102244820D01*
X103426890Y-102416786D01*
X103577213Y-102567109D01*
X103749179Y-102692048D01*
X103749181Y-102692049D01*
X103749184Y-102692051D01*
X103938588Y-102788557D01*
X104140757Y-102854246D01*
X104350713Y-102887500D01*
X104350714Y-102887500D01*
X104563286Y-102887500D01*
X104563287Y-102887500D01*
X104773243Y-102854246D01*
X104975412Y-102788557D01*
X105164816Y-102692051D01*
X105251138Y-102629335D01*
X105336786Y-102567109D01*
X105336788Y-102567106D01*
X105336792Y-102567104D01*
X105487104Y-102416792D01*
X105487106Y-102416788D01*
X105487109Y-102416786D01*
X105612048Y-102244820D01*
X105612051Y-102244816D01*
X105616793Y-102235508D01*
X105664763Y-102184711D01*
X105732583Y-102167911D01*
X105798719Y-102190445D01*
X105837763Y-102235500D01*
X105842377Y-102244555D01*
X105967272Y-102416459D01*
X105967276Y-102416464D01*
X106117535Y-102566723D01*
X106117540Y-102566727D01*
X106289442Y-102691620D01*
X106478782Y-102788095D01*
X106680871Y-102853757D01*
X106747000Y-102864231D01*
X106747000Y-101970012D01*
X106804007Y-102002925D01*
X106931174Y-102037000D01*
X107062826Y-102037000D01*
X107189993Y-102002925D01*
X107247000Y-101970012D01*
X107247000Y-102864230D01*
X107313126Y-102853757D01*
X107313129Y-102853757D01*
X107515217Y-102788095D01*
X107704557Y-102691620D01*
X107876459Y-102566727D01*
X107876464Y-102566723D01*
X108026723Y-102416464D01*
X108026727Y-102416459D01*
X108151620Y-102244558D01*
X108156232Y-102235507D01*
X108204205Y-102184709D01*
X108272025Y-102167912D01*
X108338161Y-102190447D01*
X108377204Y-102235504D01*
X108381949Y-102244817D01*
X108506890Y-102416786D01*
X108657213Y-102567109D01*
X108829179Y-102692048D01*
X108829181Y-102692049D01*
X108829184Y-102692051D01*
X109018588Y-102788557D01*
X109220757Y-102854246D01*
X109430713Y-102887500D01*
X109430714Y-102887500D01*
X109643286Y-102887500D01*
X109643287Y-102887500D01*
X109853243Y-102854246D01*
X110055412Y-102788557D01*
X110244816Y-102692051D01*
X110331138Y-102629335D01*
X110416786Y-102567109D01*
X110416788Y-102567106D01*
X110416792Y-102567104D01*
X110567104Y-102416792D01*
X110567106Y-102416788D01*
X110567109Y-102416786D01*
X110692048Y-102244820D01*
X110692047Y-102244820D01*
X110692051Y-102244816D01*
X110696514Y-102236054D01*
X110744488Y-102185259D01*
X110812308Y-102168463D01*
X110878444Y-102190999D01*
X110917484Y-102236054D01*
X110920506Y-102241984D01*
X110921951Y-102244820D01*
X111046890Y-102416786D01*
X111197213Y-102567109D01*
X111369179Y-102692048D01*
X111369181Y-102692049D01*
X111369184Y-102692051D01*
X111558588Y-102788557D01*
X111760757Y-102854246D01*
X111970713Y-102887500D01*
X111970714Y-102887500D01*
X112183286Y-102887500D01*
X112183287Y-102887500D01*
X112393243Y-102854246D01*
X112595412Y-102788557D01*
X112784816Y-102692051D01*
X112871138Y-102629335D01*
X112956786Y-102567109D01*
X112956788Y-102567106D01*
X112956792Y-102567104D01*
X113107104Y-102416792D01*
X113107106Y-102416788D01*
X113107109Y-102416786D01*
X113232048Y-102244820D01*
X113232047Y-102244820D01*
X113232051Y-102244816D01*
X113236514Y-102236054D01*
X113284488Y-102185259D01*
X113352308Y-102168463D01*
X113418444Y-102190999D01*
X113457484Y-102236054D01*
X113460506Y-102241984D01*
X113461951Y-102244820D01*
X113586890Y-102416786D01*
X113737213Y-102567109D01*
X113909179Y-102692048D01*
X113909181Y-102692049D01*
X113909184Y-102692051D01*
X114098588Y-102788557D01*
X114300757Y-102854246D01*
X114510713Y-102887500D01*
X114510714Y-102887500D01*
X114723286Y-102887500D01*
X114723287Y-102887500D01*
X114933243Y-102854246D01*
X115135412Y-102788557D01*
X115324816Y-102692051D01*
X115411138Y-102629335D01*
X115496786Y-102567109D01*
X115496788Y-102567106D01*
X115496792Y-102567104D01*
X115647104Y-102416792D01*
X115647106Y-102416788D01*
X115647109Y-102416786D01*
X115772048Y-102244820D01*
X115772047Y-102244820D01*
X115772051Y-102244816D01*
X115776514Y-102236054D01*
X115824488Y-102185259D01*
X115892308Y-102168463D01*
X115958444Y-102190999D01*
X115997484Y-102236054D01*
X116000506Y-102241984D01*
X116001951Y-102244820D01*
X116126890Y-102416786D01*
X116277213Y-102567109D01*
X116449179Y-102692048D01*
X116449181Y-102692049D01*
X116449184Y-102692051D01*
X116638588Y-102788557D01*
X116840757Y-102854246D01*
X117050713Y-102887500D01*
X117050714Y-102887500D01*
X117263286Y-102887500D01*
X117263287Y-102887500D01*
X117473243Y-102854246D01*
X117675412Y-102788557D01*
X117864816Y-102692051D01*
X117951138Y-102629335D01*
X118036786Y-102567109D01*
X118036788Y-102567106D01*
X118036792Y-102567104D01*
X118187104Y-102416792D01*
X118187106Y-102416788D01*
X118187109Y-102416786D01*
X118312048Y-102244820D01*
X118312047Y-102244820D01*
X118312051Y-102244816D01*
X118316514Y-102236054D01*
X118364488Y-102185259D01*
X118432308Y-102168463D01*
X118498444Y-102190999D01*
X118537484Y-102236054D01*
X118540506Y-102241984D01*
X118541951Y-102244820D01*
X118666890Y-102416786D01*
X118817213Y-102567109D01*
X118989179Y-102692048D01*
X118989181Y-102692049D01*
X118989184Y-102692051D01*
X119178588Y-102788557D01*
X119380757Y-102854246D01*
X119590713Y-102887500D01*
X119590714Y-102887500D01*
X119803286Y-102887500D01*
X119803287Y-102887500D01*
X120013243Y-102854246D01*
X120215412Y-102788557D01*
X120404816Y-102692051D01*
X120491138Y-102629335D01*
X120576786Y-102567109D01*
X120576788Y-102567106D01*
X120576792Y-102567104D01*
X120727104Y-102416792D01*
X120727106Y-102416788D01*
X120727109Y-102416786D01*
X120852048Y-102244820D01*
X120852047Y-102244820D01*
X120852051Y-102244816D01*
X120948557Y-102055412D01*
X121014246Y-101853243D01*
X121047500Y-101643287D01*
X121047500Y-101518592D01*
X126173500Y-101518592D01*
X126173500Y-101681407D01*
X126205259Y-101841073D01*
X126205262Y-101841082D01*
X126267562Y-101991490D01*
X126267563Y-101991492D01*
X126358015Y-102126862D01*
X126358018Y-102126866D01*
X126473133Y-102241981D01*
X126473137Y-102241984D01*
X126608505Y-102332435D01*
X126608506Y-102332435D01*
X126608507Y-102332436D01*
X126608509Y-102332437D01*
X126708781Y-102373970D01*
X126758919Y-102394738D01*
X126758921Y-102394738D01*
X126758926Y-102394740D01*
X126918592Y-102426499D01*
X126918595Y-102426500D01*
X126918597Y-102426500D01*
X127081405Y-102426500D01*
X127081406Y-102426499D01*
X127134629Y-102415912D01*
X127241073Y-102394740D01*
X127241076Y-102394738D01*
X127241081Y-102394738D01*
X127391495Y-102332435D01*
X127526863Y-102241984D01*
X127641984Y-102126863D01*
X127732435Y-101991495D01*
X127794738Y-101841081D01*
X127826500Y-101681403D01*
X127826500Y-101518597D01*
X127826500Y-101518594D01*
X127826499Y-101518592D01*
X127794740Y-101358926D01*
X127794737Y-101358917D01*
X127732437Y-101208509D01*
X127732436Y-101208507D01*
X127641984Y-101073137D01*
X127641981Y-101073133D01*
X127526866Y-100958018D01*
X127526862Y-100958015D01*
X127391492Y-100867563D01*
X127391490Y-100867562D01*
X127241082Y-100805262D01*
X127241073Y-100805259D01*
X127081406Y-100773500D01*
X127081403Y-100773500D01*
X126918597Y-100773500D01*
X126918594Y-100773500D01*
X126758926Y-100805259D01*
X126758917Y-100805262D01*
X126608509Y-100867562D01*
X126608507Y-100867563D01*
X126473137Y-100958015D01*
X126473133Y-100958018D01*
X126358018Y-101073133D01*
X126358015Y-101073137D01*
X126267563Y-101208507D01*
X126267562Y-101208509D01*
X126205262Y-101358917D01*
X126205259Y-101358926D01*
X126173500Y-101518592D01*
X121047500Y-101518592D01*
X121047500Y-101430713D01*
X121014246Y-101220757D01*
X120948557Y-101018588D01*
X120852051Y-100829184D01*
X120852049Y-100829181D01*
X120852048Y-100829179D01*
X120727109Y-100657213D01*
X120576786Y-100506890D01*
X120404820Y-100381951D01*
X120215414Y-100285444D01*
X120215413Y-100285443D01*
X120215412Y-100285443D01*
X120013243Y-100219754D01*
X120013241Y-100219753D01*
X120013240Y-100219753D01*
X119851957Y-100194208D01*
X119803287Y-100186500D01*
X119590713Y-100186500D01*
X119542042Y-100194208D01*
X119380760Y-100219753D01*
X119178585Y-100285444D01*
X118989179Y-100381951D01*
X118817213Y-100506890D01*
X118666890Y-100657213D01*
X118541949Y-100829182D01*
X118537484Y-100837946D01*
X118489509Y-100888742D01*
X118421688Y-100905536D01*
X118355553Y-100882998D01*
X118316516Y-100837946D01*
X118312050Y-100829182D01*
X118187109Y-100657213D01*
X118036786Y-100506890D01*
X117864820Y-100381951D01*
X117675414Y-100285444D01*
X117675413Y-100285443D01*
X117675412Y-100285443D01*
X117473243Y-100219754D01*
X117473241Y-100219753D01*
X117473240Y-100219753D01*
X117311957Y-100194208D01*
X117263287Y-100186500D01*
X117050713Y-100186500D01*
X117002042Y-100194208D01*
X116840760Y-100219753D01*
X116638585Y-100285444D01*
X116449179Y-100381951D01*
X116277213Y-100506890D01*
X116126890Y-100657213D01*
X116001949Y-100829182D01*
X115997484Y-100837946D01*
X115949509Y-100888742D01*
X115881688Y-100905536D01*
X115815553Y-100882998D01*
X115776516Y-100837946D01*
X115772050Y-100829182D01*
X115647109Y-100657213D01*
X115496786Y-100506890D01*
X115324820Y-100381951D01*
X115135414Y-100285444D01*
X115135413Y-100285443D01*
X115135412Y-100285443D01*
X114933243Y-100219754D01*
X114933241Y-100219753D01*
X114933240Y-100219753D01*
X114771957Y-100194208D01*
X114723287Y-100186500D01*
X114510713Y-100186500D01*
X114462042Y-100194208D01*
X114300760Y-100219753D01*
X114098585Y-100285444D01*
X113909179Y-100381951D01*
X113737213Y-100506890D01*
X113586890Y-100657213D01*
X113461949Y-100829182D01*
X113457484Y-100837946D01*
X113409509Y-100888742D01*
X113341688Y-100905536D01*
X113275553Y-100882998D01*
X113236516Y-100837946D01*
X113232050Y-100829182D01*
X113107109Y-100657213D01*
X112956786Y-100506890D01*
X112784820Y-100381951D01*
X112595414Y-100285444D01*
X112595413Y-100285443D01*
X112595412Y-100285443D01*
X112393243Y-100219754D01*
X112393241Y-100219753D01*
X112393240Y-100219753D01*
X112231957Y-100194208D01*
X112183287Y-100186500D01*
X111970713Y-100186500D01*
X111922042Y-100194208D01*
X111760760Y-100219753D01*
X111558585Y-100285444D01*
X111369179Y-100381951D01*
X111197213Y-100506890D01*
X111046890Y-100657213D01*
X110921949Y-100829182D01*
X110917484Y-100837946D01*
X110869509Y-100888742D01*
X110801688Y-100905536D01*
X110735553Y-100882998D01*
X110696516Y-100837946D01*
X110692050Y-100829182D01*
X110567109Y-100657213D01*
X110416786Y-100506890D01*
X110244820Y-100381951D01*
X110055414Y-100285444D01*
X110055413Y-100285443D01*
X110055412Y-100285443D01*
X109853243Y-100219754D01*
X109853241Y-100219753D01*
X109853240Y-100219753D01*
X109691957Y-100194208D01*
X109643287Y-100186500D01*
X109430713Y-100186500D01*
X109382042Y-100194208D01*
X109220760Y-100219753D01*
X109018585Y-100285444D01*
X108829179Y-100381951D01*
X108657213Y-100506890D01*
X108506890Y-100657213D01*
X108381949Y-100829182D01*
X108377202Y-100838499D01*
X108329227Y-100889293D01*
X108261405Y-100906087D01*
X108195271Y-100883548D01*
X108156234Y-100838495D01*
X108151622Y-100829444D01*
X108026727Y-100657540D01*
X108026723Y-100657535D01*
X107876464Y-100507276D01*
X107876459Y-100507272D01*
X107704557Y-100382379D01*
X107515215Y-100285903D01*
X107313124Y-100220241D01*
X107247000Y-100209768D01*
X107247000Y-101103988D01*
X107189993Y-101071075D01*
X107062826Y-101037000D01*
X106931174Y-101037000D01*
X106804007Y-101071075D01*
X106747000Y-101103988D01*
X106747000Y-100209768D01*
X106746999Y-100209768D01*
X106680875Y-100220241D01*
X106478784Y-100285903D01*
X106289442Y-100382379D01*
X106117540Y-100507272D01*
X106117535Y-100507276D01*
X105967276Y-100657535D01*
X105967272Y-100657540D01*
X105842378Y-100829443D01*
X105837762Y-100838502D01*
X105789784Y-100889295D01*
X105721963Y-100906087D01*
X105655829Y-100883546D01*
X105616794Y-100838493D01*
X105612051Y-100829184D01*
X105612049Y-100829181D01*
X105612048Y-100829179D01*
X105487109Y-100657213D01*
X105336786Y-100506890D01*
X105164820Y-100381951D01*
X104975414Y-100285444D01*
X104975413Y-100285443D01*
X104975412Y-100285443D01*
X104773243Y-100219754D01*
X104773241Y-100219753D01*
X104773240Y-100219753D01*
X104611957Y-100194208D01*
X104563287Y-100186500D01*
X104350713Y-100186500D01*
X104302042Y-100194208D01*
X104140760Y-100219753D01*
X103938585Y-100285444D01*
X103749179Y-100381951D01*
X103577213Y-100506890D01*
X103426890Y-100657213D01*
X103301949Y-100829182D01*
X103297484Y-100837946D01*
X103249509Y-100888742D01*
X103181688Y-100905536D01*
X103115553Y-100882998D01*
X103076516Y-100837946D01*
X103072050Y-100829182D01*
X102947109Y-100657213D01*
X102796786Y-100506890D01*
X102624820Y-100381951D01*
X102435414Y-100285444D01*
X102435413Y-100285443D01*
X102435412Y-100285443D01*
X102233243Y-100219754D01*
X102233241Y-100219753D01*
X102233240Y-100219753D01*
X102071957Y-100194208D01*
X102023287Y-100186500D01*
X101810713Y-100186500D01*
X101762042Y-100194208D01*
X101600760Y-100219753D01*
X101398585Y-100285444D01*
X101209179Y-100381951D01*
X101037213Y-100506890D01*
X100886890Y-100657213D01*
X100761949Y-100829182D01*
X100757484Y-100837946D01*
X100709509Y-100888742D01*
X100641688Y-100905536D01*
X100575553Y-100882998D01*
X100536516Y-100837946D01*
X100532050Y-100829182D01*
X100407109Y-100657213D01*
X100256786Y-100506890D01*
X100084820Y-100381951D01*
X99895414Y-100285444D01*
X99895413Y-100285443D01*
X99895412Y-100285443D01*
X99693243Y-100219754D01*
X99693241Y-100219753D01*
X99693240Y-100219753D01*
X99531957Y-100194208D01*
X99483287Y-100186500D01*
X99270713Y-100186500D01*
X99222042Y-100194208D01*
X99060760Y-100219753D01*
X98858585Y-100285444D01*
X98669179Y-100381951D01*
X98497215Y-100506889D01*
X98383673Y-100620431D01*
X98322350Y-100653915D01*
X98252658Y-100648931D01*
X98196725Y-100607059D01*
X98179810Y-100576082D01*
X98130797Y-100444671D01*
X98130793Y-100444664D01*
X98044547Y-100329455D01*
X98044544Y-100329452D01*
X97929335Y-100243206D01*
X97929328Y-100243202D01*
X97794482Y-100192908D01*
X97794483Y-100192908D01*
X97734883Y-100186501D01*
X97734881Y-100186500D01*
X97734873Y-100186500D01*
X97734864Y-100186500D01*
X95939129Y-100186500D01*
X95939123Y-100186501D01*
X95879516Y-100192908D01*
X95744671Y-100243202D01*
X95744664Y-100243206D01*
X95629455Y-100329452D01*
X95629452Y-100329455D01*
X95543206Y-100444664D01*
X95543202Y-100444671D01*
X95492908Y-100579517D01*
X95486501Y-100639116D01*
X95486500Y-100639135D01*
X82024702Y-100639135D01*
X82050149Y-100587533D01*
X82058259Y-100573488D01*
X82062654Y-100566911D01*
X82062654Y-100566910D01*
X82197443Y-100365184D01*
X82207305Y-100352331D01*
X82372502Y-100163960D01*
X82383960Y-100152502D01*
X82572331Y-99987305D01*
X82585176Y-99977448D01*
X82793498Y-99838252D01*
X82807533Y-99830149D01*
X83032239Y-99719336D01*
X83047205Y-99713138D01*
X83214945Y-99656197D01*
X83284445Y-99632606D01*
X83300107Y-99628409D01*
X83545829Y-99579531D01*
X83561883Y-99577417D01*
X83794848Y-99562148D01*
X83815958Y-99560765D01*
X83824067Y-99560500D01*
X83885892Y-99560500D01*
X126934108Y-99560500D01*
X126995933Y-99560500D01*
X127004042Y-99560765D01*
G37*
%TD.AperFunction*%
%TD*%
M02*
