%TF.GenerationSoftware,KiCad,Pcbnew,9.0.0*%
%TF.CreationDate,2025-04-27T22:02:36+02:00*%
%TF.ProjectId,chorus,63686f72-7573-42e6-9b69-6361645f7063,rev?*%
%TF.SameCoordinates,Original*%
%TF.FileFunction,Copper,L1,Top*%
%TF.FilePolarity,Positive*%
%FSLAX46Y46*%
G04 Gerber Fmt 4.6, Leading zero omitted, Abs format (unit mm)*
G04 Created by KiCad (PCBNEW 9.0.0) date 2025-04-27 22:02:36*
%MOMM*%
%LPD*%
G01*
G04 APERTURE LIST*
G04 Aperture macros list*
%AMRoundRect*
0 Rectangle with rounded corners*
0 $1 Rounding radius*
0 $2 $3 $4 $5 $6 $7 $8 $9 X,Y pos of 4 corners*
0 Add a 4 corners polygon primitive as box body*
4,1,4,$2,$3,$4,$5,$6,$7,$8,$9,$2,$3,0*
0 Add four circle primitives for the rounded corners*
1,1,$1+$1,$2,$3*
1,1,$1+$1,$4,$5*
1,1,$1+$1,$6,$7*
1,1,$1+$1,$8,$9*
0 Add four rect primitives between the rounded corners*
20,1,$1+$1,$2,$3,$4,$5,0*
20,1,$1+$1,$4,$5,$6,$7,0*
20,1,$1+$1,$6,$7,$8,$9,0*
20,1,$1+$1,$8,$9,$2,$3,0*%
G04 Aperture macros list end*
%TA.AperFunction,SMDPad,CuDef*%
%ADD10RoundRect,0.250000X0.650000X-0.325000X0.650000X0.325000X-0.650000X0.325000X-0.650000X-0.325000X0*%
%TD*%
%TA.AperFunction,SMDPad,CuDef*%
%ADD11RoundRect,0.200000X0.275000X-0.200000X0.275000X0.200000X-0.275000X0.200000X-0.275000X-0.200000X0*%
%TD*%
%TA.AperFunction,SMDPad,CuDef*%
%ADD12RoundRect,0.250000X0.425000X-0.450000X0.425000X0.450000X-0.425000X0.450000X-0.425000X-0.450000X0*%
%TD*%
%TA.AperFunction,SMDPad,CuDef*%
%ADD13RoundRect,0.200000X-0.275000X0.200000X-0.275000X-0.200000X0.275000X-0.200000X0.275000X0.200000X0*%
%TD*%
%TA.AperFunction,SMDPad,CuDef*%
%ADD14RoundRect,0.150000X-0.150000X0.825000X-0.150000X-0.825000X0.150000X-0.825000X0.150000X0.825000X0*%
%TD*%
%TA.AperFunction,SMDPad,CuDef*%
%ADD15RoundRect,0.200000X-0.200000X-0.275000X0.200000X-0.275000X0.200000X0.275000X-0.200000X0.275000X0*%
%TD*%
%TA.AperFunction,SMDPad,CuDef*%
%ADD16RoundRect,0.200000X0.200000X0.275000X-0.200000X0.275000X-0.200000X-0.275000X0.200000X-0.275000X0*%
%TD*%
%TA.AperFunction,SMDPad,CuDef*%
%ADD17RoundRect,0.250000X-0.425000X0.450000X-0.425000X-0.450000X0.425000X-0.450000X0.425000X0.450000X0*%
%TD*%
%TA.AperFunction,SMDPad,CuDef*%
%ADD18RoundRect,0.250000X-0.400000X-0.750000X0.400000X-0.750000X0.400000X0.750000X-0.400000X0.750000X0*%
%TD*%
%TA.AperFunction,SMDPad,CuDef*%
%ADD19RoundRect,0.250000X-0.750000X-0.750000X0.750000X-0.750000X0.750000X0.750000X-0.750000X0.750000X0*%
%TD*%
%TA.AperFunction,SMDPad,CuDef*%
%ADD20RoundRect,0.150000X-0.587500X-0.150000X0.587500X-0.150000X0.587500X0.150000X-0.587500X0.150000X0*%
%TD*%
%TA.AperFunction,SMDPad,CuDef*%
%ADD21RoundRect,0.150000X-0.825000X-0.150000X0.825000X-0.150000X0.825000X0.150000X-0.825000X0.150000X0*%
%TD*%
%TA.AperFunction,SMDPad,CuDef*%
%ADD22RoundRect,0.250000X0.550000X-1.500000X0.550000X1.500000X-0.550000X1.500000X-0.550000X-1.500000X0*%
%TD*%
%TA.AperFunction,ComponentPad*%
%ADD23O,1.700000X1.700000*%
%TD*%
%TA.AperFunction,ComponentPad*%
%ADD24R,1.700000X1.700000*%
%TD*%
%TA.AperFunction,ComponentPad*%
%ADD25C,1.600000*%
%TD*%
%TA.AperFunction,ComponentPad*%
%ADD26RoundRect,0.250000X0.550000X-0.550000X0.550000X0.550000X-0.550000X0.550000X-0.550000X-0.550000X0*%
%TD*%
%TA.AperFunction,SMDPad,CuDef*%
%ADD27RoundRect,0.225000X-0.250000X0.225000X-0.250000X-0.225000X0.250000X-0.225000X0.250000X0.225000X0*%
%TD*%
%TA.AperFunction,SMDPad,CuDef*%
%ADD28RoundRect,0.225000X-0.225000X-0.250000X0.225000X-0.250000X0.225000X0.250000X-0.225000X0.250000X0*%
%TD*%
%TA.AperFunction,SMDPad,CuDef*%
%ADD29RoundRect,0.225000X0.225000X0.250000X-0.225000X0.250000X-0.225000X-0.250000X0.225000X-0.250000X0*%
%TD*%
%TA.AperFunction,ViaPad*%
%ADD30C,0.600000*%
%TD*%
%TA.AperFunction,Conductor*%
%ADD31C,0.500000*%
%TD*%
%TA.AperFunction,Conductor*%
%ADD32C,0.250000*%
%TD*%
G04 APERTURE END LIST*
D10*
%TO.P,C19,1*%
%TO.N,+4.5V*%
X104648000Y-142191000D03*
%TO.P,C19,2*%
%TO.N,GND*%
X104648000Y-139241000D03*
%TD*%
%TO.P,C18,1*%
%TO.N,VDD*%
X104648000Y-147271000D03*
%TO.P,C18,2*%
%TO.N,GND*%
X104648000Y-144321000D03*
%TD*%
D11*
%TO.P,R8,2*%
%TO.N,Net-(U1-OUT1)*%
X107950000Y-136086000D03*
%TO.P,R8,1*%
%TO.N,GND*%
X107950000Y-137736000D03*
%TD*%
%TO.P,R7,2*%
%TO.N,Net-(U1-VGG)*%
X85344000Y-133986000D03*
%TO.P,R7,1*%
%TO.N,GND*%
X85344000Y-135636000D03*
%TD*%
%TO.P,R6,2*%
%TO.N,VDD*%
X85344000Y-129922000D03*
%TO.P,R6,1*%
%TO.N,Net-(U1-VGG)*%
X85344000Y-131572000D03*
%TD*%
D12*
%TO.P,C16,1*%
%TO.N,Net-(C16-Pad1)*%
X109982000Y-108093000D03*
%TO.P,C16,2*%
%TO.N,OUTPUT*%
X109982000Y-105393000D03*
%TD*%
D13*
%TO.P,R31,1*%
%TO.N,Net-(C16-Pad1)*%
X109728000Y-110490000D03*
%TO.P,R31,2*%
%TO.N,Net-(R29-Pad1)*%
X109728000Y-112140000D03*
%TD*%
D14*
%TO.P,U4,1*%
%TO.N,DRYWET1*%
X119634000Y-114684000D03*
%TO.P,U4,2,-*%
%TO.N,Net-(U4A--)*%
X118364000Y-114684000D03*
%TO.P,U4,3,+*%
%TO.N,Net-(U4A-+)*%
X117094000Y-114684000D03*
%TO.P,U4,4,V+*%
%TO.N,VDD*%
X115824000Y-114684000D03*
%TO.P,U4,5,+*%
%TO.N,+4.5V*%
X114554000Y-114684000D03*
%TO.P,U4,6,-*%
%TO.N,Net-(U4B--)*%
X113284000Y-114684000D03*
%TO.P,U4,7*%
%TO.N,Net-(R29-Pad1)*%
X112014000Y-114684000D03*
%TO.P,U4,8*%
%TO.N,Net-(U4C--)*%
X112014000Y-119634000D03*
%TO.P,U4,9,-*%
X113284000Y-119634000D03*
%TO.P,U4,10,+*%
%TO.N,Net-(U4C-+)*%
X114554000Y-119634000D03*
%TO.P,U4,11,V-*%
%TO.N,GND*%
X115824000Y-119634000D03*
%TO.P,U4,12,+*%
%TO.N,Net-(U4D-+)*%
X117094000Y-119634000D03*
%TO.P,U4,13,-*%
%TO.N,Net-(U1-IN)*%
X118364000Y-119634000D03*
%TO.P,U4,14*%
X119634000Y-119634000D03*
%TD*%
D15*
%TO.P,R30,1*%
%TO.N,Net-(R29-Pad1)*%
X111951000Y-111823000D03*
%TO.P,R30,2*%
%TO.N,Net-(C15-Pad1)*%
X113601000Y-111823000D03*
%TD*%
D11*
%TO.P,R28,1*%
%TO.N,Net-(U4B--)*%
X114554000Y-106806000D03*
%TO.P,R28,2*%
%TO.N,DRYWET2*%
X114554000Y-105156000D03*
%TD*%
D15*
%TO.P,R25,1*%
%TO.N,Net-(C11-Pad2)*%
X108903000Y-126301000D03*
%TO.P,R25,2*%
%TO.N,Net-(C12-Pad2)*%
X110553000Y-126301000D03*
%TD*%
D11*
%TO.P,R24,1*%
%TO.N,Net-(U1-OUT1)*%
X108204000Y-132460000D03*
%TO.P,R24,2*%
%TO.N,Net-(C11-Pad2)*%
X108204000Y-130810000D03*
%TD*%
D15*
%TO.P,R26,1*%
%TO.N,Net-(C12-Pad2)*%
X112713000Y-126746000D03*
%TO.P,R26,2*%
%TO.N,Net-(U4C-+)*%
X114363000Y-126746000D03*
%TD*%
D16*
%TO.P,C6,1*%
%TO.N,GND*%
X126555000Y-108267000D03*
%TO.P,C6,2*%
%TO.N,Net-(C6-Pad2)*%
X124905000Y-108267000D03*
%TD*%
D15*
%TO.P,R17,1*%
%TO.N,+4.5V*%
X118809000Y-108458000D03*
%TO.P,R17,2*%
%TO.N,Net-(C5-Pad2)*%
X120459000Y-108458000D03*
%TD*%
D11*
%TO.P,R27,1*%
%TO.N,+4.5V*%
X107442000Y-119506000D03*
%TO.P,R27,2*%
%TO.N,DRYWET3*%
X107442000Y-117856000D03*
%TD*%
D16*
%TO.P,R21,1*%
%TO.N,Net-(C7-Pad2)*%
X127317000Y-124777000D03*
%TO.P,R21,2*%
%TO.N,Net-(C8-Pad2)*%
X125667000Y-124777000D03*
%TD*%
%TO.P,R19,1*%
%TO.N,DRYWET1*%
X124586000Y-111823000D03*
%TO.P,R19,2*%
%TO.N,Net-(U4A--)*%
X122936000Y-111823000D03*
%TD*%
D11*
%TO.P,R20,1*%
%TO.N,Net-(U4A--)*%
X122936000Y-109987787D03*
%TO.P,R20,2*%
%TO.N,Net-(C6-Pad2)*%
X122936000Y-108337787D03*
%TD*%
D15*
%TO.P,R29,1*%
%TO.N,Net-(R29-Pad1)*%
X113792000Y-109791000D03*
%TO.P,R29,2*%
%TO.N,Net-(U4B--)*%
X115442000Y-109791000D03*
%TD*%
D11*
%TO.P,R18,1*%
%TO.N,Net-(U4A-+)*%
X120396000Y-111823000D03*
%TO.P,R18,2*%
%TO.N,Net-(C5-Pad2)*%
X120396000Y-110173000D03*
%TD*%
D17*
%TO.P,C14,1*%
%TO.N,DRYWET3*%
X109728000Y-116888000D03*
%TO.P,C14,2*%
%TO.N,Net-(U4C--)*%
X109728000Y-119588000D03*
%TD*%
D13*
%TO.P,C5,1*%
%TO.N,INPUT*%
X120396000Y-105093000D03*
%TO.P,C5,2*%
%TO.N,Net-(C5-Pad2)*%
X120396000Y-106743000D03*
%TD*%
D11*
%TO.P,R5,2*%
%TO.N,Net-(U1-CP2)*%
X88900000Y-118809000D03*
%TO.P,R5,1*%
%TO.N,Net-(Q3-B)*%
X88900000Y-120459000D03*
%TD*%
D16*
%TO.P,R10,2*%
%TO.N,Net-(U3A-+)*%
X92393000Y-112268000D03*
%TO.P,R10,1*%
%TO.N,VDD*%
X94043000Y-112268000D03*
%TD*%
D11*
%TO.P,C3,2*%
%TO.N,DEPTH1*%
X89154000Y-108649000D03*
%TO.P,C3,1*%
%TO.N,RATE2*%
X89154000Y-110299000D03*
%TD*%
D15*
%TO.P,R12,2*%
%TO.N,Net-(U3B-+)*%
X95059000Y-104711000D03*
%TO.P,R12,1*%
%TO.N,DEPTH1*%
X93409000Y-104711000D03*
%TD*%
%TO.P,C2,2*%
%TO.N,GND*%
X104522000Y-105219000D03*
%TO.P,C2,1*%
%TO.N,RATE1*%
X102872000Y-105219000D03*
%TD*%
%TO.P,R15,2*%
%TO.N,GND*%
X102807000Y-107251000D03*
%TO.P,R15,1*%
%TO.N,Net-(U3B--)*%
X101157000Y-107251000D03*
%TD*%
%TO.P,R14,2*%
%TO.N,Net-(U3B--)*%
X97345000Y-112268000D03*
%TO.P,R14,1*%
%TO.N,Net-(U3A-+)*%
X95695000Y-112268000D03*
%TD*%
D16*
%TO.P,R9,2*%
%TO.N,Net-(R13-Pad2)*%
X99251000Y-105219000D03*
%TO.P,R9,1*%
%TO.N,RATE1*%
X100901000Y-105219000D03*
%TD*%
D13*
%TO.P,R1,2*%
%TO.N,Net-(U5-THR)*%
X99314000Y-118872000D03*
%TO.P,R1,1*%
%TO.N,Net-(U5-DIS)*%
X99314000Y-117222000D03*
%TD*%
D11*
%TO.P,C1,2*%
%TO.N,GND*%
X89154000Y-114999000D03*
%TO.P,C1,1*%
%TO.N,Net-(U5-THR)*%
X89154000Y-116649000D03*
%TD*%
%TO.P,R13,2*%
%TO.N,Net-(R13-Pad2)*%
X99379000Y-107188000D03*
%TO.P,R13,1*%
%TO.N,Net-(U3B-+)*%
X99379000Y-108838000D03*
%TD*%
D16*
%TO.P,R16,1*%
%TO.N,DEPTH2*%
X99428500Y-121157000D03*
%TO.P,R16,2*%
%TO.N,Net-(Q4-B)*%
X97778500Y-121157000D03*
%TD*%
D18*
%TO.P,RV3,3,3*%
%TO.N,GND*%
X127896000Y-117476000D03*
D19*
%TO.P,RV3,2,2*%
%TO.N,Net-(C7-Pad2)*%
X126746000Y-121476000D03*
D18*
%TO.P,RV3,1,1*%
%TO.N,VDD*%
X125596000Y-117476000D03*
%TD*%
D17*
%TO.P,C7,2*%
%TO.N,Net-(C7-Pad2)*%
X122174000Y-118190000D03*
%TO.P,C7,1*%
%TO.N,DRYWET1*%
X122174000Y-115490000D03*
%TD*%
D16*
%TO.P,R22,2*%
%TO.N,Net-(C9-Pad2)*%
X121857000Y-124777000D03*
%TO.P,R22,1*%
%TO.N,Net-(C8-Pad2)*%
X123507000Y-124777000D03*
%TD*%
%TO.P,R23,2*%
%TO.N,Net-(U4D-+)*%
X118301000Y-126047000D03*
%TO.P,R23,1*%
%TO.N,Net-(C9-Pad2)*%
X119951000Y-126047000D03*
%TD*%
D20*
%TO.P,Q4,1,B*%
%TO.N,Net-(Q4-B)*%
X97679500Y-123255000D03*
%TO.P,Q4,2,E*%
%TO.N,Net-(Q4-E)*%
X97679500Y-125155000D03*
%TO.P,Q4,3,C*%
%TO.N,GND*%
X99554500Y-124205000D03*
%TD*%
D21*
%TO.P,U3,8,V+*%
%TO.N,VDD*%
X96709000Y-106616000D03*
%TO.P,U3,7*%
%TO.N,Net-(R13-Pad2)*%
X96709000Y-107886000D03*
%TO.P,U3,6,-*%
%TO.N,Net-(U3B--)*%
X96709000Y-109156000D03*
%TO.P,U3,5,+*%
%TO.N,Net-(U3B-+)*%
X96709000Y-110426000D03*
%TO.P,U3,4,V-*%
%TO.N,GND*%
X91759000Y-110426000D03*
%TO.P,U3,3,+*%
%TO.N,Net-(U3A-+)*%
X91759000Y-109156000D03*
%TO.P,U3,2,-*%
%TO.N,RATE2*%
X91759000Y-107886000D03*
%TO.P,U3,1*%
%TO.N,DEPTH1*%
X91759000Y-106616000D03*
%TD*%
D20*
%TO.P,Q3,3,C*%
%TO.N,Net-(Q3-C)*%
X92045000Y-124079000D03*
%TO.P,Q3,2,E*%
%TO.N,GND*%
X90170000Y-125029000D03*
%TO.P,Q3,1,B*%
%TO.N,Net-(Q3-B)*%
X90170000Y-123129000D03*
%TD*%
D16*
%TO.P,R4,1*%
%TO.N,Net-(Q3-C)*%
X92807000Y-121031000D03*
%TO.P,R4,2*%
%TO.N,VDD*%
X91157000Y-121031000D03*
%TD*%
D15*
%TO.P,R2,2*%
%TO.N,Net-(U5-DIS)*%
X100901000Y-114999000D03*
%TO.P,R2,1*%
%TO.N,VDD*%
X99251000Y-114999000D03*
%TD*%
D11*
%TO.P,R36,2*%
%TO.N,VDD*%
X95504000Y-123444000D03*
%TO.P,R36,1*%
%TO.N,Net-(Q4-E)*%
X95504000Y-125094000D03*
%TD*%
D13*
%TO.P,R32,2*%
%TO.N,GND*%
X106426000Y-106806000D03*
%TO.P,R32,1*%
%TO.N,OUTPUT*%
X106426000Y-105156000D03*
%TD*%
%TO.P,R34,1*%
%TO.N,+4.5V*%
X107188000Y-144018000D03*
%TO.P,R34,2*%
%TO.N,VDD*%
X107188000Y-145668000D03*
%TD*%
%TO.P,R35,1*%
%TO.N,GND*%
X107188000Y-140716000D03*
%TO.P,R35,2*%
%TO.N,+4.5V*%
X107188000Y-142366000D03*
%TD*%
D15*
%TO.P,R33,2*%
%TO.N,VDD*%
X95376000Y-147320000D03*
%TO.P,R33,1*%
%TO.N,Net-(J1-Pad2)*%
X93726000Y-147320000D03*
%TD*%
D22*
%TO.P,C17,2*%
%TO.N,GND*%
X99314000Y-140556000D03*
%TO.P,C17,1*%
%TO.N,VDD*%
X99314000Y-145956000D03*
%TD*%
D23*
%TO.P,J1,2*%
%TO.N,Net-(J1-Pad2)*%
X93243000Y-144018000D03*
D24*
%TO.P,J1,1*%
%TO.N,GND*%
X93243000Y-141478000D03*
%TD*%
%TO.P,J7,1,Pin_1*%
%TO.N,DEPTH1*%
X96837000Y-101537000D03*
D23*
%TO.P,J7,2,Pin_2*%
%TO.N,RATE2*%
X99377000Y-101537000D03*
%TO.P,J7,3,Pin_3*%
%TO.N,RATE1*%
X101917000Y-101537000D03*
%TO.P,J7,4,Pin_4*%
%TO.N,DEPTH2*%
X104457000Y-101537000D03*
%TO.P,J7,5,Pin_5*%
%TO.N,GND*%
X106997000Y-101537000D03*
%TO.P,J7,6,Pin_6*%
%TO.N,OUTPUT*%
X109537000Y-101537000D03*
%TO.P,J7,7,Pin_7*%
%TO.N,DRYWET3*%
X112077000Y-101537000D03*
%TO.P,J7,8,Pin_8*%
%TO.N,DRYWET2*%
X114617000Y-101537000D03*
%TO.P,J7,9,Pin_9*%
%TO.N,DRYWET1*%
X117157000Y-101537000D03*
%TO.P,J7,10,Pin_10*%
%TO.N,INPUT*%
X119697000Y-101537000D03*
%TD*%
D21*
%TO.P,U5,8,VCC*%
%TO.N,VDD*%
X96963000Y-115189000D03*
%TO.P,U5,7,DIS*%
%TO.N,Net-(U5-DIS)*%
X96963000Y-116459000D03*
%TO.P,U5,6,THR*%
%TO.N,Net-(U5-THR)*%
X96963000Y-117729000D03*
%TO.P,U5,5,CV*%
%TO.N,Net-(Q4-E)*%
X96963000Y-118999000D03*
%TO.P,U5,4,R*%
%TO.N,VDD*%
X92013000Y-118999000D03*
%TO.P,U5,3,Q*%
%TO.N,Net-(U1-CP2)*%
X92013000Y-117729000D03*
%TO.P,U5,2,TR*%
%TO.N,Net-(U5-THR)*%
X92013000Y-116459000D03*
%TO.P,U5,1,GND*%
%TO.N,GND*%
X92013000Y-115189000D03*
%TD*%
D25*
%TO.P,U1,8,VGG*%
%TO.N,Net-(U1-VGG)*%
X87884000Y-128778000D03*
%TO.P,U1,7,IN*%
%TO.N,Net-(U1-IN)*%
X90424000Y-128778000D03*
%TO.P,U1,6,CP1*%
%TO.N,Net-(Q3-C)*%
X103124000Y-128778000D03*
%TO.P,U1,5,VDD*%
%TO.N,VDD*%
X105664000Y-128778000D03*
%TO.P,U1,4,OUT2*%
%TO.N,Net-(U1-OUT1)*%
X105664000Y-136398000D03*
%TO.P,U1,3,OUT1*%
X103124000Y-136398000D03*
%TO.P,U1,2,CP2*%
%TO.N,Net-(U1-CP2)*%
X90424000Y-136398000D03*
D26*
%TO.P,U1,1,GND*%
%TO.N,GND*%
X87884000Y-136398000D03*
%TD*%
D27*
%TO.P,C8,2*%
%TO.N,Net-(C8-Pad2)*%
X121920000Y-121742000D03*
%TO.P,C8,1*%
%TO.N,GND*%
X121920000Y-120192000D03*
%TD*%
%TO.P,C9,2*%
%TO.N,Net-(C9-Pad2)*%
X119634000Y-123520000D03*
%TO.P,C9,1*%
%TO.N,Net-(U1-IN)*%
X119634000Y-121970000D03*
%TD*%
D28*
%TO.P,C10,2*%
%TO.N,Net-(U4D-+)*%
X117107000Y-122048000D03*
%TO.P,C10,1*%
%TO.N,GND*%
X115557000Y-122048000D03*
%TD*%
D27*
%TO.P,C11,2*%
%TO.N,Net-(C11-Pad2)*%
X108712000Y-123585000D03*
%TO.P,C11,1*%
%TO.N,GND*%
X108712000Y-122035000D03*
%TD*%
%TO.P,C12,2*%
%TO.N,Net-(C12-Pad2)*%
X112268000Y-123585000D03*
%TO.P,C12,1*%
%TO.N,Net-(U4C--)*%
X112268000Y-122035000D03*
%TD*%
D29*
%TO.P,C13,2*%
%TO.N,Net-(U4C-+)*%
X114541000Y-124714000D03*
%TO.P,C13,1*%
%TO.N,GND*%
X116091000Y-124714000D03*
%TD*%
D28*
%TO.P,C15,2*%
%TO.N,Net-(U4B--)*%
X117107000Y-111823000D03*
%TO.P,C15,1*%
%TO.N,Net-(C15-Pad1)*%
X115557000Y-111823000D03*
%TD*%
D29*
%TO.P,C20,2*%
%TO.N,VDD*%
X99301000Y-111061000D03*
%TO.P,C20,1*%
%TO.N,GND*%
X100851000Y-111061000D03*
%TD*%
%TO.P,C21,2*%
%TO.N,VDD*%
X125971000Y-115062000D03*
%TO.P,C21,1*%
%TO.N,GND*%
X127521000Y-115062000D03*
%TD*%
D27*
%TO.P,C22,2*%
%TO.N,GND*%
X101919000Y-124726000D03*
%TO.P,C22,1*%
%TO.N,Net-(Q4-B)*%
X101919000Y-123176000D03*
%TD*%
D30*
%TO.N,GND*%
X102806000Y-109156000D03*
X89662000Y-111760000D03*
X104710000Y-121985000D03*
X116141000Y-126429000D03*
X123444000Y-120142000D03*
X127508000Y-112268000D03*
X90170000Y-126492000D03*
X106426000Y-108204000D03*
X87376000Y-116332000D03*
%TO.N,Net-(U1-IN)*%
X114046000Y-131572000D03*
%TD*%
D31*
%TO.N,VDD*%
X90932000Y-142875000D02*
X90932000Y-142494000D01*
X83820000Y-131572000D02*
X83820000Y-135513196D01*
X83820000Y-135513196D02*
X90800804Y-142494000D01*
X90800804Y-142494000D02*
X90932000Y-142494000D01*
X90932000Y-144526000D02*
X90932000Y-142875000D01*
X128524000Y-120404000D02*
X128524000Y-128270000D01*
X109648000Y-147146000D02*
X105710000Y-147146000D01*
X128524000Y-128270000D02*
X109648000Y-147146000D01*
X125596000Y-117476000D02*
X128524000Y-120404000D01*
X124946000Y-116826000D02*
X125596000Y-117476000D01*
X115824000Y-115658999D02*
X116991001Y-116826000D01*
X116991001Y-116826000D02*
X124946000Y-116826000D01*
X115824000Y-114684000D02*
X115824000Y-115658999D01*
D32*
%TO.N,Net-(U3B--)*%
X95734001Y-109156000D02*
X96709000Y-109156000D01*
X95250000Y-109640001D02*
X95734001Y-109156000D01*
X96329000Y-111252000D02*
X95758000Y-111252000D01*
X95758000Y-111252000D02*
X95250000Y-110744000D01*
X95250000Y-110744000D02*
X95250000Y-109640001D01*
X97345000Y-112268000D02*
X96329000Y-111252000D01*
D31*
%TO.N,VDD*%
X105710000Y-147146000D02*
X107188000Y-145668000D01*
X104648000Y-147146000D02*
X105710000Y-147146000D01*
X99314000Y-145956000D02*
X101378000Y-145956000D01*
X101378000Y-145956000D02*
X102568000Y-147146000D01*
X102568000Y-147146000D02*
X104648000Y-147146000D01*
%TO.N,Net-(J1-Pad2)*%
X93243000Y-144018000D02*
X93243000Y-146837000D01*
X93243000Y-146837000D02*
X93726000Y-147320000D01*
%TO.N,GND*%
X101252000Y-140556000D02*
X102679000Y-141983000D01*
X103678000Y-144446000D02*
X104648000Y-144446000D01*
X102679000Y-143447000D02*
X103678000Y-144446000D01*
%TO.N,+4.5V*%
X107188000Y-143193000D02*
X107188000Y-144018000D01*
X105981000Y-143193000D02*
X107188000Y-143193000D01*
X104648000Y-142066000D02*
X104854000Y-142066000D01*
X104854000Y-142066000D02*
X105981000Y-143193000D01*
%TO.N,GND*%
X102679000Y-141983000D02*
X102679000Y-143447000D01*
%TO.N,+4.5V*%
X107188000Y-143002000D02*
X107188000Y-143193000D01*
%TO.N,GND*%
X96172000Y-140556000D02*
X95250000Y-141478000D01*
X95250000Y-141478000D02*
X93243000Y-141478000D01*
X99314000Y-140556000D02*
X96172000Y-140556000D01*
X107188000Y-140082000D02*
X106472000Y-139366000D01*
X101252000Y-140556000D02*
X102442000Y-139366000D01*
X99314000Y-140556000D02*
X101252000Y-140556000D01*
X107188000Y-140716000D02*
X107188000Y-140082000D01*
X102442000Y-139366000D02*
X104648000Y-139366000D01*
X106472000Y-139366000D02*
X104648000Y-139366000D01*
%TO.N,VDD*%
X95376000Y-147320000D02*
X95758000Y-147320000D01*
X97122000Y-145956000D02*
X99314000Y-145956000D01*
X95758000Y-147320000D02*
X97122000Y-145956000D01*
D32*
%TO.N,Net-(C5-Pad2)*%
X120396000Y-106743000D02*
X120396000Y-110173000D01*
%TO.N,Net-(U4A-+)*%
X119572678Y-111823000D02*
X117094000Y-114301678D01*
X117094000Y-114301678D02*
X117094000Y-114684000D01*
X120396000Y-111823000D02*
X119572678Y-111823000D01*
%TO.N,Net-(U4A--)*%
X122210000Y-112549000D02*
X122936000Y-111823000D01*
X119897582Y-112549000D02*
X122210000Y-112549000D01*
X118364000Y-114082582D02*
X119897582Y-112549000D01*
X118364000Y-114684000D02*
X118364000Y-114082582D01*
X122936000Y-111823000D02*
X122936000Y-109987787D01*
%TO.N,Net-(C6-Pad2)*%
X123006787Y-108267000D02*
X122936000Y-108337787D01*
X124905000Y-108267000D02*
X123006787Y-108267000D01*
%TO.N,Net-(C7-Pad2)*%
X127317000Y-122047000D02*
X126746000Y-121476000D01*
X127317000Y-124777000D02*
X127317000Y-122047000D01*
%TO.N,Net-(C8-Pad2)*%
X125667000Y-124777000D02*
X123507000Y-124777000D01*
X123507000Y-123379000D02*
X121920000Y-121792000D01*
X123507000Y-124777000D02*
X123507000Y-123379000D01*
%TO.N,Net-(C9-Pad2)*%
X121857000Y-124777000D02*
X121221000Y-124777000D01*
X120841000Y-124777000D02*
X119634000Y-123570000D01*
X121221000Y-124777000D02*
X120841000Y-124777000D01*
X119951000Y-125667000D02*
X119951000Y-126047000D01*
X120841000Y-124777000D02*
X119951000Y-125667000D01*
%TO.N,Net-(U4D-+)*%
X117094000Y-121985000D02*
X117157000Y-122048000D01*
X117094000Y-119634000D02*
X117094000Y-121985000D01*
X118301000Y-123381000D02*
X118301000Y-126047000D01*
X117157000Y-122237000D02*
X118301000Y-123381000D01*
X117157000Y-122048000D02*
X117157000Y-122237000D01*
%TO.N,Net-(U1-IN)*%
X119634000Y-119634000D02*
X119634000Y-121920000D01*
X118364000Y-119634000D02*
X119634000Y-119634000D01*
%TO.N,Net-(U4C-+)*%
X114554000Y-124651000D02*
X114491000Y-124714000D01*
X114554000Y-119634000D02*
X114554000Y-124651000D01*
X114491000Y-126618000D02*
X114363000Y-126746000D01*
X114491000Y-124714000D02*
X114491000Y-126618000D01*
%TO.N,Net-(C12-Pad2)*%
X112713000Y-124080000D02*
X112268000Y-123635000D01*
X112713000Y-126746000D02*
X112713000Y-124080000D01*
X112268000Y-126301000D02*
X112713000Y-126746000D01*
X110553000Y-126301000D02*
X112268000Y-126301000D01*
%TO.N,Net-(U4C--)*%
X112268000Y-119888000D02*
X112014000Y-119634000D01*
X112268000Y-121985000D02*
X112268000Y-119888000D01*
X112014000Y-119634000D02*
X113284000Y-119634000D01*
X111968000Y-119588000D02*
X112014000Y-119634000D01*
X109728000Y-119588000D02*
X111968000Y-119588000D01*
%TO.N,Net-(C11-Pad2)*%
X108712000Y-126110000D02*
X108903000Y-126301000D01*
X108712000Y-123635000D02*
X108712000Y-126110000D01*
X108903000Y-126555000D02*
X108204000Y-127254000D01*
X108204000Y-127254000D02*
X108204000Y-130810000D01*
X108903000Y-126301000D02*
X108903000Y-126555000D01*
%TO.N,DRYWET3*%
X108760000Y-117856000D02*
X109728000Y-116888000D01*
X107442000Y-117856000D02*
X108760000Y-117856000D01*
%TO.N,Net-(R29-Pad1)*%
X111634000Y-112140000D02*
X111951000Y-111823000D01*
X109728000Y-112140000D02*
X111634000Y-112140000D01*
X111951000Y-114621000D02*
X112014000Y-114684000D01*
X111951000Y-111823000D02*
X111951000Y-114621000D01*
X111951000Y-111632000D02*
X113792000Y-109791000D01*
X111951000Y-111823000D02*
X111951000Y-111632000D01*
%TO.N,Net-(C16-Pad1)*%
X109728000Y-108347000D02*
X109982000Y-108093000D01*
X109728000Y-110490000D02*
X109728000Y-108347000D01*
D31*
%TO.N,OUTPUT*%
X109982000Y-101982000D02*
X109537000Y-101537000D01*
X109982000Y-105393000D02*
X109982000Y-101982000D01*
%TO.N,INPUT*%
X120396000Y-102236000D02*
X119697000Y-101537000D01*
X120396000Y-105093000D02*
X120396000Y-102236000D01*
D32*
%TO.N,OUTPUT*%
X109745000Y-105156000D02*
X109982000Y-105393000D01*
X106426000Y-105156000D02*
X109745000Y-105156000D01*
%TO.N,DRYWET2*%
X114554000Y-101600000D02*
X114617000Y-101537000D01*
X114554000Y-105156000D02*
X114554000Y-101600000D01*
%TO.N,Net-(U4B--)*%
X114554000Y-108903000D02*
X115442000Y-109791000D01*
X114554000Y-106806000D02*
X114554000Y-108903000D01*
X117157000Y-111506000D02*
X117157000Y-111823000D01*
X115442000Y-109791000D02*
X117157000Y-111506000D01*
%TO.N,Net-(C15-Pad1)*%
X113601000Y-111823000D02*
X115507000Y-111823000D01*
%TO.N,Net-(U4B--)*%
X113284000Y-113709001D02*
X114369001Y-112624000D01*
X116356000Y-112624000D02*
X117157000Y-111823000D01*
X114369001Y-112624000D02*
X116356000Y-112624000D01*
X113284000Y-114684000D02*
X113284000Y-113709001D01*
%TO.N,+4.5V*%
X118809000Y-111395418D02*
X118809000Y-108458000D01*
X114554000Y-113709001D02*
X114979001Y-113284000D01*
X116920418Y-113284000D02*
X118809000Y-111395418D01*
X114979001Y-113284000D02*
X116920418Y-113284000D01*
X114554000Y-114684000D02*
X114554000Y-113709001D01*
%TO.N,DRYWET1*%
X125730000Y-103886000D02*
X125730000Y-110679000D01*
X125730000Y-110679000D02*
X124586000Y-111823000D01*
X117157000Y-101537000D02*
X118333000Y-100361000D01*
X118333000Y-100361000D02*
X122205000Y-100361000D01*
X122205000Y-100361000D02*
X125730000Y-103886000D01*
%TO.N,+4.5V*%
X107442000Y-119506000D02*
X107917000Y-119506000D01*
%TO.N,DRYWET1*%
X124586000Y-112125000D02*
X124586000Y-111823000D01*
X123427000Y-113284000D02*
X124586000Y-112125000D01*
X121034000Y-113284000D02*
X123427000Y-113284000D01*
X119634000Y-114684000D02*
X121034000Y-113284000D01*
D31*
%TO.N,VDD*%
X125921000Y-117151000D02*
X125596000Y-117476000D01*
X125921000Y-115062000D02*
X125921000Y-117151000D01*
D32*
%TO.N,DRYWET1*%
X122174000Y-114537000D02*
X123427000Y-113284000D01*
X122174000Y-115490000D02*
X122174000Y-114537000D01*
%TO.N,DRYWET3*%
X107696000Y-114856000D02*
X109728000Y-116888000D01*
X107696000Y-107950000D02*
X107696000Y-114856000D01*
X108966000Y-106680000D02*
X107696000Y-107950000D01*
X112077000Y-101537000D02*
X112077000Y-105642514D01*
X112077000Y-105642514D02*
X111039514Y-106680000D01*
X111039514Y-106680000D02*
X108966000Y-106680000D01*
%TO.N,Net-(U1-OUT1)*%
X103124000Y-136398000D02*
X105664000Y-136398000D01*
X107638000Y-136398000D02*
X107950000Y-136086000D01*
X105664000Y-136398000D02*
X107638000Y-136398000D01*
X107950000Y-132714000D02*
X108204000Y-132460000D01*
X107950000Y-136086000D02*
X107950000Y-132714000D01*
%TO.N,Net-(C7-Pad2)*%
X123460000Y-118190000D02*
X126746000Y-121476000D01*
X122174000Y-118190000D02*
X123460000Y-118190000D01*
%TO.N,RATE1*%
X102872000Y-105219000D02*
X101854000Y-105219000D01*
X101917000Y-105156000D02*
X101917000Y-101537000D01*
X101854000Y-105219000D02*
X101917000Y-105156000D01*
X101854000Y-105219000D02*
X100901000Y-105219000D01*
%TO.N,Net-(R13-Pad2)*%
X99251000Y-107060000D02*
X99379000Y-107188000D01*
X99251000Y-105219000D02*
X99251000Y-107060000D01*
%TO.N,Net-(U3B--)*%
X100458000Y-107950000D02*
X101157000Y-107251000D01*
X99042582Y-107950000D02*
X100458000Y-107950000D01*
X97836582Y-109156000D02*
X99042582Y-107950000D01*
X96709000Y-109156000D02*
X97836582Y-109156000D01*
%TO.N,Net-(U3B-+)*%
X97791000Y-110426000D02*
X96709000Y-110426000D01*
X99379000Y-108838000D02*
X97791000Y-110426000D01*
%TO.N,DEPTH1*%
X91187000Y-106616000D02*
X91759000Y-106616000D01*
X89154000Y-108649000D02*
X91187000Y-106616000D01*
%TO.N,RATE2*%
X91167000Y-107886000D02*
X91759000Y-107886000D01*
X89154000Y-109899000D02*
X91167000Y-107886000D01*
X89154000Y-110299000D02*
X89154000Y-109899000D01*
D31*
%TO.N,VDD*%
X99251000Y-113030000D02*
X99251000Y-114999000D01*
X99251000Y-111061000D02*
X99251000Y-113030000D01*
D32*
%TO.N,Net-(U5-DIS)*%
X100901000Y-115635000D02*
X99314000Y-117222000D01*
X100901000Y-114999000D02*
X100901000Y-115635000D01*
X98551000Y-116459000D02*
X99314000Y-117222000D01*
%TO.N,Net-(U1-CP2)*%
X89980000Y-117729000D02*
X88900000Y-118809000D01*
%TO.N,Net-(Q3-B)*%
X88900000Y-121859000D02*
X90170000Y-123129000D01*
X88900000Y-120459000D02*
X88900000Y-121859000D01*
%TO.N,Net-(Q3-C)*%
X92807000Y-123317000D02*
X92807000Y-121031000D01*
X92045000Y-124079000D02*
X92807000Y-123317000D01*
%TO.N,Net-(Q4-B)*%
X97778500Y-123156000D02*
X97679500Y-123255000D01*
X97778500Y-121157000D02*
X97778500Y-123156000D01*
X101790000Y-123255000D02*
X101919000Y-123126000D01*
X97679500Y-123255000D02*
X101790000Y-123255000D01*
%TO.N,DEPTH2*%
X105410000Y-115175500D02*
X105410000Y-102490000D01*
X105410000Y-102490000D02*
X104457000Y-101537000D01*
X99428500Y-121157000D02*
X105410000Y-115175500D01*
%TO.N,Net-(Q4-E)*%
X95565000Y-125155000D02*
X95504000Y-125094000D01*
X96520000Y-125155000D02*
X95565000Y-125155000D01*
X96409000Y-125044000D02*
X96520000Y-125155000D01*
X97679500Y-125155000D02*
X96520000Y-125155000D01*
%TO.N,Net-(U1-VGG)*%
X85344000Y-131318000D02*
X85344000Y-131572000D01*
X87884000Y-128778000D02*
X85344000Y-131318000D01*
X85344000Y-131572000D02*
X85344000Y-133986000D01*
%TO.N,Net-(U1-CP2)*%
X88099000Y-121695810D02*
X88099000Y-119610000D01*
X89106500Y-122703310D02*
X88099000Y-121695810D01*
X88099000Y-119610000D02*
X88900000Y-118809000D01*
X89106500Y-135080500D02*
X89106500Y-122703310D01*
X90424000Y-136398000D02*
X89106500Y-135080500D01*
%TO.N,Net-(U3B-+)*%
X95352000Y-104418000D02*
X95059000Y-104711000D01*
X99674418Y-104418000D02*
X95352000Y-104418000D01*
X100076000Y-104819582D02*
X99674418Y-104418000D01*
X100076000Y-105618418D02*
X100076000Y-104819582D01*
X100629582Y-106172000D02*
X100076000Y-105618418D01*
X101302418Y-106172000D02*
X100629582Y-106172000D01*
X101883000Y-106752582D02*
X101302418Y-106172000D01*
X101883000Y-107749418D02*
X101883000Y-106752582D01*
X100794418Y-108838000D02*
X101883000Y-107749418D01*
X99379000Y-108838000D02*
X100794418Y-108838000D01*
%TO.N,Net-(U3A-+)*%
X92733999Y-109156000D02*
X91759000Y-109156000D01*
X93060000Y-109482001D02*
X92733999Y-109156000D01*
X93060000Y-111601000D02*
X93060000Y-109482001D01*
X92393000Y-112268000D02*
X93060000Y-111601000D01*
%TO.N,Net-(Q3-C)*%
X94488000Y-128778000D02*
X103124000Y-128778000D01*
X92045000Y-126335000D02*
X94488000Y-128778000D01*
X92045000Y-124079000D02*
X92045000Y-126335000D01*
D31*
%TO.N,VDD*%
X103886000Y-127000000D02*
X94996000Y-127000000D01*
X93980000Y-124460000D02*
X93980000Y-120650000D01*
X94996000Y-127000000D02*
X93980000Y-125984000D01*
X105664000Y-128778000D02*
X103886000Y-127000000D01*
X94996000Y-123444000D02*
X93980000Y-124460000D01*
X95504000Y-123444000D02*
X94996000Y-123444000D01*
X93980000Y-125984000D02*
X93980000Y-124460000D01*
X94450000Y-148246000D02*
X95376000Y-147320000D01*
X90932000Y-146812000D02*
X92366000Y-148246000D01*
X92366000Y-148246000D02*
X94450000Y-148246000D01*
X90932000Y-144526000D02*
X90932000Y-146812000D01*
X85216000Y-129922000D02*
X83820000Y-131318000D01*
X85344000Y-129922000D02*
X85216000Y-129922000D01*
D32*
%TO.N,DEPTH1*%
X95567000Y-101537000D02*
X96837000Y-101537000D01*
X93409000Y-103695000D02*
X95567000Y-101537000D01*
X93409000Y-104711000D02*
X93409000Y-103695000D01*
%TO.N,RATE2*%
X92266000Y-107886000D02*
X91759000Y-107886000D01*
X94234000Y-105918000D02*
X92266000Y-107886000D01*
X94234000Y-104140000D02*
X94234000Y-105918000D01*
X95250000Y-103124000D02*
X94234000Y-104140000D01*
X97790000Y-103124000D02*
X95250000Y-103124000D01*
X99377000Y-101537000D02*
X97790000Y-103124000D01*
%TO.N,Net-(R13-Pad2)*%
X99060000Y-107188000D02*
X99379000Y-107188000D01*
X98362000Y-107886000D02*
X99060000Y-107188000D01*
X96709000Y-107886000D02*
X98362000Y-107886000D01*
D31*
%TO.N,VDD*%
X92519000Y-113792000D02*
X92202000Y-113792000D01*
X94043000Y-112268000D02*
X92519000Y-113792000D01*
X94043000Y-107887000D02*
X94043000Y-112268000D01*
X95314000Y-106616000D02*
X94043000Y-107887000D01*
X96709000Y-106616000D02*
X95314000Y-106616000D01*
D32*
%TO.N,Net-(U3A-+)*%
X95700678Y-107242000D02*
X94799000Y-108143678D01*
X97735322Y-107242000D02*
X95700678Y-107242000D01*
X98044000Y-106933322D02*
X97735322Y-107242000D01*
X98044000Y-106298678D02*
X98044000Y-106933322D01*
X94799000Y-111372000D02*
X95695000Y-112268000D01*
X97735322Y-105990000D02*
X98044000Y-106298678D01*
X94924000Y-105990000D02*
X97735322Y-105990000D01*
X94799000Y-108143678D02*
X94799000Y-111372000D01*
X93060000Y-107854000D02*
X94924000Y-105990000D01*
X93060000Y-109482001D02*
X93060000Y-107854000D01*
%TO.N,DEPTH1*%
X93409000Y-104966000D02*
X93409000Y-104711000D01*
X91759000Y-106616000D02*
X93409000Y-104966000D01*
D31*
%TO.N,+4.5V*%
X107188000Y-142366000D02*
X107188000Y-143002000D01*
%TO.N,VDD*%
X83820000Y-117856000D02*
X87884000Y-113792000D01*
X83820000Y-131572000D02*
X83820000Y-117856000D01*
X92202000Y-113792000D02*
X87884000Y-113792000D01*
X83820000Y-131318000D02*
X83820000Y-131572000D01*
%TO.N,GND*%
X104522000Y-105536000D02*
X102807000Y-107251000D01*
X104522000Y-105219000D02*
X104522000Y-105536000D01*
X102807000Y-109155000D02*
X102807000Y-107251000D01*
X100901000Y-111061000D02*
X102806000Y-109156000D01*
X102806000Y-109156000D02*
X102807000Y-109155000D01*
X91759000Y-110426000D02*
X90425000Y-111760000D01*
X90425000Y-111760000D02*
X89662000Y-111760000D01*
X101348000Y-124205000D02*
X101919000Y-124776000D01*
X99554500Y-124205000D02*
X101348000Y-124205000D01*
X104710000Y-121985000D02*
X101919000Y-124776000D01*
X108712000Y-121985000D02*
X104710000Y-121985000D01*
X116141000Y-122682000D02*
X115507000Y-122048000D01*
X116141000Y-124714000D02*
X116141000Y-122682000D01*
X116141000Y-119951000D02*
X115824000Y-119634000D01*
X116141000Y-122682000D02*
X116141000Y-119951000D01*
X116141000Y-124714000D02*
X116141000Y-126429000D01*
X121920000Y-120142000D02*
X123444000Y-120142000D01*
X127896000Y-115387000D02*
X127571000Y-115062000D01*
X127896000Y-117476000D02*
X127896000Y-115387000D01*
X127508000Y-114999000D02*
X127571000Y-115062000D01*
X127508000Y-109220000D02*
X127508000Y-112268000D01*
X126555000Y-108267000D02*
X127508000Y-109220000D01*
X127508000Y-112268000D02*
X127508000Y-114999000D01*
X87122000Y-135636000D02*
X87884000Y-136398000D01*
X85344000Y-135636000D02*
X87122000Y-135636000D01*
X90170000Y-125029000D02*
X90170000Y-126492000D01*
X106426000Y-106806000D02*
X106426000Y-108204000D01*
X89154000Y-114999000D02*
X88709000Y-114999000D01*
X88709000Y-114999000D02*
X87376000Y-116332000D01*
%TO.N,VDD*%
X92927000Y-139192000D02*
X95250000Y-139192000D01*
X95250000Y-139192000D02*
X105664000Y-128778000D01*
X90932000Y-141187000D02*
X92927000Y-139192000D01*
X90932000Y-142494000D02*
X90932000Y-141187000D01*
D32*
%TO.N,Net-(U1-IN)*%
X119027000Y-126545418D02*
X114046000Y-131526418D01*
X119027000Y-125548582D02*
X119027000Y-126545418D01*
X114046000Y-131526418D02*
X114046000Y-131572000D01*
X118833000Y-122721000D02*
X118833000Y-125354582D01*
X118833000Y-125354582D02*
X119027000Y-125548582D01*
X119634000Y-121920000D02*
X118833000Y-122721000D01*
%TO.N,+4.5V*%
X109728000Y-140462000D02*
X109220000Y-140970000D01*
X109728000Y-121776582D02*
X109728000Y-140462000D01*
X107457418Y-119506000D02*
X109728000Y-121776582D01*
X107442000Y-119506000D02*
X107457418Y-119506000D01*
X109220000Y-140970000D02*
X107188000Y-143002000D01*
X122781000Y-127409000D02*
X109220000Y-140970000D01*
X121119000Y-122616582D02*
X122781000Y-124278582D01*
X116751001Y-117856000D02*
X119888000Y-117856000D01*
X114554000Y-115658999D02*
X116751001Y-117856000D01*
X122781000Y-124278582D02*
X122781000Y-127409000D01*
X121119000Y-119087000D02*
X121119000Y-122616582D01*
X119888000Y-117856000D02*
X121119000Y-119087000D01*
X114554000Y-114684000D02*
X114554000Y-115658999D01*
D31*
%TO.N,GND*%
X107950000Y-137888000D02*
X106472000Y-139366000D01*
X107950000Y-137736000D02*
X107950000Y-137888000D01*
X90107000Y-114999000D02*
X89154000Y-114999000D01*
X90297000Y-115189000D02*
X90107000Y-114999000D01*
X92013000Y-115189000D02*
X90297000Y-115189000D01*
D32*
%TO.N,Net-(U5-THR)*%
X89344000Y-116459000D02*
X89154000Y-116649000D01*
X92013000Y-116459000D02*
X89344000Y-116459000D01*
X93853000Y-116459000D02*
X92013000Y-116459000D01*
X95123000Y-117729000D02*
X93853000Y-116459000D01*
X96963000Y-117729000D02*
X95123000Y-117729000D01*
%TO.N,Net-(U1-CP2)*%
X92013000Y-117729000D02*
X89980000Y-117729000D01*
%TO.N,Net-(Q4-E)*%
X96409000Y-119553000D02*
X96409000Y-125044000D01*
X96963000Y-118999000D02*
X96409000Y-119553000D01*
%TO.N,Net-(U5-DIS)*%
X96963000Y-116459000D02*
X98551000Y-116459000D01*
D31*
%TO.N,VDD*%
X98489000Y-113792000D02*
X99251000Y-113030000D01*
X92202000Y-113792000D02*
X95250000Y-113792000D01*
X95250000Y-113792000D02*
X95566000Y-113792000D01*
X95566000Y-113792000D02*
X96963000Y-115189000D01*
X95250000Y-113792000D02*
X98489000Y-113792000D01*
X93435000Y-120105000D02*
X93980000Y-120650000D01*
X92083000Y-120105000D02*
X93435000Y-120105000D01*
X91157000Y-121031000D02*
X92083000Y-120105000D01*
X93119000Y-120105000D02*
X93435000Y-120105000D01*
X92013000Y-118999000D02*
X93119000Y-120105000D01*
D32*
%TO.N,Net-(U5-THR)*%
X98171000Y-117729000D02*
X99314000Y-118872000D01*
X96963000Y-117729000D02*
X98171000Y-117729000D01*
%TD*%
M02*
